  0
SECTION
  2
HEADER
  9
$ACADVER
  1
AC1027
  9
$ACADMAINTVER
 70
   105
  9
$DWGCODEPAGE
  3
ANSI_932
  9
$REQUIREDVERSIONS
160
                 0
  9
$INSBASE
 10
0.0
 20
0.0
 30
0.0
  9
$EXTMIN
 10
0.0
 20
0.0
 30
0.0
  9
$EXTMAX
 10
594.0
 20
420.0
 30
0.0
  9
$LIMMIN
 10
0.0
 20
0.0
  9
$LIMMAX
 10
594.0
 20
420.0
  9
$ORTHOMODE
 70
     0
  9
$REGENMODE
 70
     1
  9
$FILLMODE
 70
     1
  9
$QTEXTMODE
 70
     0
  9
$MIRRTEXT
 70
     1
  9
$LTSCALE
 40
1.0
  9
$ATTMODE
 70
     1
  9
$TEXTSIZE
 40
2.5
  9
$TRACEWID
 40
1.0
  9
$TEXTSTYLE
  7
Standard
  9
$CLAYER
  8
0
  9
$CELTYPE
  6
ByLayer
  9
$CECOLOR
 62
   256
  9
$CELTSCALE
 40
1.0
  9
$DISPSILH
 70
     0
  9
$DIMSCALE
 40
1.0
  9
$DIMASZ
 40
2.5
  9
$DIMEXO
 40
0.625
  9
$DIMDLI
 40
3.75
  9
$DIMRND
 40
0.0
  9
$DIMDLE
 40
0.0
  9
$DIMEXE
 40
1.25
  9
$DIMTP
 40
0.0
  9
$DIMTM
 40
0.0
  9
$DIMTXT
 40
2.5
  9
$DIMCEN
 40
2.5
  9
$DIMTSZ
 40
0.0
  9
$DIMTOL
 70
     0
  9
$DIMLIM
 70
     0
  9
$DIMTIH
 70
     0
  9
$DIMTOH
 70
     0
  9
$DIMSE1
 70
     0
  9
$DIMSE2
 70
     0
  9
$DIMTAD
 70
     1
  9
$DIMZIN
 70
     8
  9
$DIMBLK
  1

  9
$DIMASO
 70
     1
  9
$DIMSHO
 70
     1
  9
$DIMPOST
  1

  9
$DIMAPOST
  1

  9
$DIMALT
 70
     0
  9
$DIMALTD
 70
     3
  9
$DIMALTF
 40
0.0393700787
  9
$DIMLFAC
 40
1.0
  9
$DIMTOFL
 70
     1
  9
$DIMTVP
 40
0.0
  9
$DIMTIX
 70
     0
  9
$DIMSOXD
 70
     0
  9
$DIMSAH
 70
     0
  9
$DIMBLK1
  1

  9
$DIMBLK2
  1

  9
$DIMSTYLE
  2
ISO-25
  9
$DIMCLRD
 70
     0
  9
$DIMCLRE
 70
     0
  9
$DIMCLRT
 70
     0
  9
$DIMTFAC
 40
1.0
  9
$DIMGAP
 40
0.625
  9
$DIMJUST
 70
     0
  9
$DIMSD1
 70
     0
  9
$DIMSD2
 70
     0
  9
$DIMTOLJ
 70
     0
  9
$DIMTZIN
 70
     8
  9
$DIMALTZ
 70
     0
  9
$DIMALTTZ
 70
     0
  9
$DIMUPT
 70
     0
  9
$DIMDEC
 70
     2
  9
$DIMTDEC
 70
     2
  9
$DIMALTU
 70
     2
  9
$DIMALTTD
 70
     3
  9
$DIMTXSTY
  7
Standard
  9
$DIMAUNIT
 70
     0
  9
$DIMADEC
 70
     0
  9
$DIMALTRND
 40
0.0
  9
$DIMAZIN
 70
     0
  9
$DIMDSEP
 70
    44
  9
$DIMATFIT
 70
     3
  9
$DIMFRAC
 70
     0
  9
$DIMLDRBLK
  1

  9
$DIMLUNIT
 70
     2
  9
$DIMLWD
 70
    -2
  9
$DIMLWE
 70
    -2
  9
$DIMTMOVE
 70
     0
  9
$DIMFXL
 40
1.0
  9
$DIMFXLON
 70
     0
  9
$DIMJOGANG
 40
0.7853981634
  9
$DIMTFILL
 70
     0
  9
$DIMTFILLCLR
 70
     0
  9
$DIMARCSYM
 70
     0
  9
$DIMLTYPE
  6

  9
$DIMLTEX1
  6

  9
$DIMLTEX2
  6

  9
$DIMTXTDIRECTION
 70
     0
  9
$LUNITS
 70
     2
  9
$LUPREC
 70
     4
  9
$SKETCHINC
 40
1.0
  9
$FILLETRAD
 40
10.0
  9
$AUNITS
 70
     0
  9
$AUPREC
 70
     0
  9
$MENU
  1
.
  9
$ELEVATION
 40
0.0
  9
$PELEVATION
 40
0.0
  9
$THICKNESS
 40
0.0
  9
$LIMCHECK
 70
     0
  9
$CHAMFERA
 40
0.0
  9
$CHAMFERB
 40
0.0
  9
$CHAMFERC
 40
0.0
  9
$CHAMFERD
 40
0.0
  9
$SKPOLY
 70
     0
  9
$TDCREATE
 40
2459477.510720347
  9
$TDUCREATE
 40
2459477.135720347
  9
$TDUPDATE
 40
2459477.510721042
  9
$TDUUPDATE
 40
2459477.135721042
  9
$TDINDWG
 40
0.0000000116
  9
$TDUSRTIMER
 40
0.0000000116
  9
$USRTIMER
 70
     1
  9
$ANGBASE
 50
0.0
  9
$ANGDIR
 70
     0
  9
$PDMODE
 70
     0
  9
$PDSIZE
 40
0.0
  9
$PLINEWID
 40
0.0
  9
$SPLFRAME
 70
     0
  9
$SPLINETYPE
 70
     6
  9
$SPLINESEGS
 70
     8
  9
$HANDSEED
  5
251
  9
$SURFTAB1
 70
     6
  9
$SURFTAB2
 70
     6
  9
$SURFTYPE
 70
     6
  9
$SURFU
 70
     6
  9
$SURFV
 70
     6
  9
$UCSBASE
  2

  9
$UCSNAME
  2

  9
$UCSORG
 10
0.0
 20
0.0
 30
0.0
  9
$UCSXDIR
 10
1.0
 20
0.0
 30
0.0
  9
$UCSYDIR
 10
0.0
 20
1.0
 30
0.0
  9
$UCSORTHOREF
  2

  9
$UCSORTHOVIEW
 70
     0
  9
$UCSORGTOP
 10
0.0
 20
0.0
 30
0.0
  9
$UCSORGBOTTOM
 10
0.0
 20
0.0
 30
0.0
  9
$UCSORGLEFT
 10
0.0
 20
0.0
 30
0.0
  9
$UCSORGRIGHT
 10
0.0
 20
0.0
 30
0.0
  9
$UCSORGFRONT
 10
0.0
 20
0.0
 30
0.0
  9
$UCSORGBACK
 10
0.0
 20
0.0
 30
0.0
  9
$PUCSBASE
  2

  9
$PUCSNAME
  2

  9
$PUCSORG
 10
0.0
 20
0.0
 30
0.0
  9
$PUCSXDIR
 10
1.0
 20
0.0
 30
0.0
  9
$PUCSYDIR
 10
0.0
 20
1.0
 30
0.0
  9
$PUCSORTHOREF
  2

  9
$PUCSORTHOVIEW
 70
     0
  9
$PUCSORGTOP
 10
0.0
 20
0.0
 30
0.0
  9
$PUCSORGBOTTOM
 10
0.0
 20
0.0
 30
0.0
  9
$PUCSORGLEFT
 10
0.0
 20
0.0
 30
0.0
  9
$PUCSORGRIGHT
 10
0.0
 20
0.0
 30
0.0
  9
$PUCSORGFRONT
 10
0.0
 20
0.0
 30
0.0
  9
$PUCSORGBACK
 10
0.0
 20
0.0
 30
0.0
  9
$USERI1
 70
     0
  9
$USERI2
 70
     0
  9
$USERI3
 70
     0
  9
$USERI4
 70
     0
  9
$USERI5
 70
     0
  9
$USERR1
 40
0.0
  9
$USERR2
 40
0.0
  9
$USERR3
 40
0.0
  9
$USERR4
 40
0.0
  9
$USERR5
 40
0.0
  9
$WORLDVIEW
 70
     1
  9
$SHADEDGE
 70
     3
  9
$SHADEDIF
 70
    70
  9
$TILEMODE
 70
     1
  9
$MAXACTVP
 70
    64
  9
$PINSBASE
 10
0.0
 20
0.0
 30
0.0
  9
$PLIMCHECK
 70
     0
  9
$PEXTMIN
 10
0.0
 20
0.0
 30
0.0
  9
$PEXTMAX
 10
594.0
 20
420.0
 30
0.0
  9
$PLIMMIN
 10
0.0
 20
0.0
  9
$PLIMMAX
 10
594.0
 20
420.0
  9
$UNITMODE
 70
     0
  9
$VISRETAIN
 70
     1
  9
$PLINEGEN
 70
     0
  9
$PSLTSCALE
 70
     1
  9
$TREEDEPTH
 70
  3020
  9
$CMLSTYLE
  2
Standard
  9
$CMLJUST
 70
     0
  9
$CMLSCALE
 40
20.0
  9
$PROXYGRAPHICS
 70
     1
  9
$MEASUREMENT
 70
     1
  9
$CELWEIGHT
370
    -1
  9
$ENDCAPS
280
     0
  9
$JOINSTYLE
280
     0
  9
$LWDISPLAY
290
     0
  9
$INSUNITS
 70
     4
  9
$HYPERLINKBASE
  1

  9
$STYLESHEET
  1

  9
$XEDIT
290
     1
  9
$CEPSNTYPE
380
     0
  9
$PSTYLEMODE
290
     1
  9
$FINGERPRINTGUID
  2
{bcd70aea-1d96-4183-a3fb-717d5262dc6e}
  9
$VERSIONGUID
  2
{FAEB1C32-E019-11D5-929B-00C0DF256EC4}
  9
$EXTNAMES
290
     1
  9
$PSVPSCALE
 40
0.0
  9
$OLESTARTUP
290
     0
  9
$SORTENTS
280
   127
  9
$INDEXCTL
280
     0
  9
$HIDETEXT
280
     1
  9
$XCLIPFRAME
280
     2
  9
$HALOGAP
280
     0
  9
$OBSCOLOR
 70
   257
  9
$OBSLTYPE
280
     0
  9
$INTERSECTIONDISPLAY
280
     0
  9
$INTERSECTIONCOLOR
 70
   257
  9
$DIMASSOC
280
     2
  9
$PROJECTNAME
  1

  9
$CAMERADISPLAY
290
     0
  9
$LENSLENGTH
 40
50.0
  9
$CAMERAHEIGHT
 40
0.0
  9
$STEPSPERSEC
 40
2.0
  9
$STEPSIZE
 40
6.0
  9
$3DDWFPREC
 40
2.0
  9
$PSOLWIDTH
 40
5.0
  9
$PSOLHEIGHT
 40
80.0
  9
$LOFTANG1
 40
1.5707963268
  9
$LOFTANG2
 40
1.5707963268
  9
$LOFTMAG1
 40
0.0
  9
$LOFTMAG2
 40
0.0
  9
$LOFTPARAM
 70
     7
  9
$LOFTNORMALS
280
     1
  9
$LATITUDE
 40
37.795
  9
$LONGITUDE
 40
-122.394
  9
$NORTHDIRECTION
 40
0.0
  9
$TIMEZONE
 70
 -8000
  9
$LIGHTGLYPHDISPLAY
280
     1
  9
$TILEMODELIGHTSYNCH
280
     1
  9
$CMATERIAL
347
44
  9
$SOLIDHIST
280
     0
  9
$SHOWHIST
280
     1
  9
$DWFFRAME
280
     2
  9
$DGNFRAME
280
     2
  9
$REALWORLDSCALE
290
     1
  9
$INTERFERECOLOR
 62
   256
  9
$CSHADOW
280
     0
  9
$SHADOWPLANELOCATION
 40
0.0
  0
ENDSEC
  0
SECTION
  2
CLASSES
  0
CLASS
  1
ACDBDICTIONARYWDFLT
  2
AcDbDictionaryWithDefault
  3
ObjectDBX Classes
 90
        0
 91
        3
280
     0
281
     0
  0
CLASS
  1
VISUALSTYLE
  2
AcDbVisualStyle
  3
ObjectDBX Classes
 90
     4095
 91
        3
280
     0
281
     0
  0
CLASS
  1
MATERIAL
  2
AcDbMaterial
  3
ObjectDBX Classes
 90
     1153
 91
        3
280
     0
281
     0
  0
CLASS
  1
SCALE
  2
AcDbScale
  3
ObjectDBX Classes
 90
     1153
 91
        3
280
     0
281
     0
  0
CLASS
  1
TABLESTYLE
  2
AcDbTableStyle
  3
ObjectDBX Classes
 90
     4095
 91
        3
280
     0
281
     0
  0
CLASS
  1
MLEADERSTYLE
  2
AcDbMLeaderStyle
  3
ACDB_MLEADERSTYLE_CLASS
 90
     4095
 91
        3
280
     0
281
     0
  0
CLASS
  1
SUN
  2
AcDbSun
  3
SCENEOE
 90
     1153
 91
        3
280
     0
281
     0
  0
CLASS
  1
DICTIONARYVAR
  2
AcDbDictionaryVar
  3
ObjectDBX Classes
 90
        0
 91
        3
280
     0
281
     0
  0
CLASS
  1
CELLSTYLEMAP
  2
AcDbCellStyleMap
  3
ObjectDBX Classes
 90
     1152
 91
        3
280
     0
281
     0
  0
ENDSEC
  0
SECTION
  2
TABLES
  0
TABLE
  2
VPORT
  5
8
330
0
100
AcDbSymbolTable
 70
     1
  0
VPORT
  5
29
330
8
100
AcDbSymbolTableRecord
100
AcDbViewportTableRecord
  2
*Active
 70
     0
 10
0.0
 20
0.0
 11
1.0
 21
1.0
 12
344.1869158879
 22
148.5
 13
0.0
 23
0.0
 14
10.0
 24
10.0
 15
10.0
 25
10.0
 16
0.0
 26
0.0
 36
1.0
 17
0.0
 27
0.0
 37
0.0
 40
297.0
 41
1.9729729729
 42
50.0
 43
0.0
 44
0.0
 50
0.0
 51
0.0
 71
     0
 72
   100
 73
     1
 74
     3
 75
     0
 76
     0
 77
     0
 78
     0
281
     0
 65
     1
110
0.0
120
0.0
130
0.0
111
1.0
121
0.0
131
0.0
112
0.0
122
1.0
132
0.0
 79
     0
146
0.0
348
2F
 60
     3
 61
     5
292
     1
282
     1
141
0.0
142
0.0
 63
   250
361
6D
  0
ENDTAB
  0
TABLE
  2
LTYPE
  5
5
330
0
100
AcDbSymbolTable
 70
     1
  0
LTYPE
  5
14
330
5
100
AcDbSymbolTableRecord
100
AcDbLinetypeTableRecord
  2
ByBlock
 70
     0
  3

 72
    65
 73
     0
 40
0.0
  0
LTYPE
  5
15
330
5
100
AcDbSymbolTableRecord
100
AcDbLinetypeTableRecord
  2
ByLayer
 70
     0
  3

 72
    65
 73
     0
 40
0.0
  0
LTYPE
  5
16
330
5
100
AcDbSymbolTableRecord
100
AcDbLinetypeTableRecord
  2
Continuous
 70
     0
  3
Solid line
 72
    65
 73
     0
 40
0.0
  0
ENDTAB
  0
TABLE
  2
LAYER
  5
2
330
0
100
AcDbSymbolTable
 70
     3
  0
LAYER
  5
10
330
2
100
AcDbSymbolTableRecord
100
AcDbLayerTableRecord
  2
0
 70
     0
 62
     7
  6
Continuous
370
    -3
390
F
347
46
348
0
  0
LAYER
  5
6E
330
2
100
AcDbSymbolTableRecord
100
AcDbLayerTableRecord
  2
BLACK
 70
     0
 62
     7
  6
Continuous
370
    -3
390
F
347
46
348
0
  0
LAYER
  5
10B
330
2
100
AcDbSymbolTableRecord
100
AcDbLayerTableRecord
  2
Default
 70
     0
 62
     7
  6
Continuous
370
    -3
390
F
347
46
348
0
  0
ENDTAB
  0
TABLE
  2
STYLE
  5
3
330
0
100
AcDbSymbolTable
 70
     3
  0
STYLE
  5
11
330
3
100
AcDbSymbolTableRecord
100
AcDbTextStyleTableRecord
  2
Standard
 70
     0
 40
0.0
 41
1.0
 50
0.0
 71
     0
 42
2.5
  3
txt
  4

  0
STYLE
  5
210
330
3
100
AcDbSymbolTableRecord
100
AcDbTextStyleTableRecord
  2
SEACAD_Solid_Edge_ANSI
 70
     0
 40
0.0
 41
1.0
 50
0.0
 71
     0
 42
2.5
  3
seans.ttf
  4

1001
ACAD
1000
Solid Edge ANSI
1071
        0
  0
STYLE
  5
23B
330
3
100
AcDbSymbolTableRecord
100
AcDbTextStyleTableRecord
  2
SEACAD_Solid_Edge_ANSI1_Symbols
 70
     0
 40
0.0
 41
1.0
 50
0.0
 71
     0
 42
2.5
  3
semeca1.ttf
  4

1001
ACAD
1000
Solid Edge ANSI1 Symbols
1071
        0
  0
ENDTAB
  0
TABLE
  2
VIEW
  5
6
330
0
100
AcDbSymbolTable
 70
     0
  0
ENDTAB
  0
TABLE
  2
UCS
  5
7
330
0
100
AcDbSymbolTable
 70
     0
  0
ENDTAB
  0
TABLE
  2
APPID
  5
9
330
0
100
AcDbSymbolTable
 70
     1
  0
APPID
  5
12
330
9
100
AcDbSymbolTableRecord
100
AcDbRegAppTableRecord
  2
ACAD
 70
     0
  0
ENDTAB
  0
TABLE
  2
DIMSTYLE
  5
A
330
0
100
AcDbSymbolTable
 70
     3
100
AcDbDimStyleTable
  0
DIMSTYLE
105
27
330
A
100
AcDbSymbolTableRecord
100
AcDbDimStyleTableRecord
  2
ISO-25
 70
     0
 41
2.5
 42
0.625
 43
3.75
 44
1.25
 73
     0
 74
     0
 77
     1
 78
     8
140
2.5
141
2.5
143
0.0393700787
147
0.625
171
     3
172
     1
178
     0
271
     2
272
     2
274
     3
278
    44
283
     0
284
     8
340
11
  0
DIMSTYLE
105
200
330
A
100
AcDbSymbolTableRecord
100
AcDbDimStyleTableRecord
  2
Standard
 70
     0
178
     0
340
11
  0
DIMSTYLE
105
211
102
{ACAD_REACTORS
330
212
330
21C
330
226
330
230
330
23A
102
}
330
A
100
AcDbSymbolTableRecord
100
AcDbDimStyleTableRecord
  2
JIS_(mm)
 70
     0
 41
1.575
 42
0.0
 44
0.7875
 73
     0
 74
     0
 77
     1
 78
     8
140
1.575
141
0.7875
143
0.0393700787
146
0.5
147
0.39375
172
     1
173
     1
178
     0
271
     2
272
     2
283
     0
284
     8
340
210
343
20A
344
20A
  0
ENDTAB
  0
TABLE
  2
BLOCK_RECORD
  5
1
330
0
100
AcDbSymbolTable
 70
     8
  0
BLOCK_RECORD
  5
1F
330
1
100
AcDbSymbolTableRecord
100
AcDbBlockTableRecord
  2
*Model_Space
340
22
 70
     0
280
     1
281
     0
  0
BLOCK_RECORD
  5
1B
330
1
100
AcDbSymbolTableRecord
100
AcDbBlockTableRecord
  2
*Paper_Space
340
1E
 70
     0
280
     1
281
     0
  0
BLOCK_RECORD
  5
201
330
1
100
AcDbSymbolTableRecord
100
AcDbBlockTableRecord
  2
_Oblique
340
0
 70
     0
280
     1
281
     0
  0
BLOCK_RECORD
  5
205
330
1
100
AcDbSymbolTableRecord
100
AcDbBlockTableRecord
  2
_Dot
340
0
 70
     0
280
     1
281
     0
  0
BLOCK_RECORD
  5
20A
330
1
100
AcDbSymbolTableRecord
100
AcDbBlockTableRecord
  2
_SE_OPEN
340
0
 70
     0
280
     1
281
     0
  0
BLOCK_RECORD
  5
213
330
1
100
AcDbSymbolTableRecord
100
AcDbBlockTableRecord
  2
DMBLK1
340
0
 70
     0
280
     1
281
     0
  0
BLOCK_RECORD
  5
21D
330
1
100
AcDbSymbolTableRecord
100
AcDbBlockTableRecord
  2
DMBLK2
340
0
 70
     0
280
     1
281
     0
  0
BLOCK_RECORD
  5
227
330
1
100
AcDbSymbolTableRecord
100
AcDbBlockTableRecord
  2
DMBLK3
340
0
 70
     0
280
     1
281
     0
  0
BLOCK_RECORD
  5
231
330
1
100
AcDbSymbolTableRecord
100
AcDbBlockTableRecord
  2
DMBLK4
340
0
 70
     0
280
     1
281
     0
  0
BLOCK_RECORD
  5
23C
330
1
100
AcDbSymbolTableRecord
100
AcDbBlockTableRecord
  2
DMBLK5
340
0
 70
     0
280
     1
281
     0
  0
ENDTAB
  0
ENDSEC
  0
SECTION
  2
BLOCKS
  0
BLOCK
  5
20
330
1F
100
AcDbEntity
  8
0
100
AcDbBlockBegin
  2
*Model_Space
 70
     0
 10
0.0
 20
0.0
 30
0.0
  3
*Model_Space
  1

  0
ENDBLK
  5
21
330
1F
100
AcDbEntity
  8
0
100
AcDbBlockEnd
  0
BLOCK
  5
1C
330
1B
100
AcDbEntity
 67
     1
  8
0
100
AcDbBlockBegin
  2
*Paper_Space
 70
     0
 10
0.0
 20
0.0
 30
0.0
  3
*Paper_Space
  1

  0
ENDBLK
  5
1D
330
1B
100
AcDbEntity
 67
     1
  8
0
100
AcDbBlockEnd
  0
BLOCK
  5
202
330
201
100
AcDbEntity
  8
0
100
AcDbBlockBegin
  2
_Oblique
 70
     0
 10
0.0
 20
0.0
 30
0.0
  3
_Oblique
  1

  0
LINE
  5
204
330
201
100
AcDbEntity
  8
0
  6
ByBlock
 62
     0
370
    -2
100
AcDbLine
 10
-0.5
 20
-0.5
 30
0.0
 11
0.5
 21
0.5
 31
0.0
  0
ENDBLK
  5
203
330
201
100
AcDbEntity
  8
0
100
AcDbBlockEnd
  0
BLOCK
  5
206
330
205
100
AcDbEntity
  8
0
100
AcDbBlockBegin
  2
_Dot
 70
     0
 10
0.0
 20
0.0
 30
0.0
  3
_Dot
  1

  0
LWPOLYLINE
  5
208
330
205
100
AcDbEntity
  8
0
  6
ByBlock
 62
     0
100
AcDbPolyline
 90
        2
 70
     1
 43
0.5
 10
-0.25
 20
0.0
 42
1.0
 10
0.25
 20
0.0
 42
1.0
  0
LINE
  5
209
330
205
100
AcDbEntity
  8
0
  6
ByBlock
 62
     0
370
    -2
100
AcDbLine
 10
-0.5
 20
0.0
 30
0.0
 11
-1.0
 21
0.0
 31
0.0
  0
ENDBLK
  5
207
330
205
100
AcDbEntity
  8
0
100
AcDbBlockEnd
  0
BLOCK
  5
20E
330
20A
100
AcDbEntity
  8
0
100
AcDbBlockBegin
  2
_SE_OPEN
 70
     0
 10
0.0
 20
0.0
 30
0.0
  3
_SE_OPEN
  1

  0
LINE
  5
20B
330
20A
100
AcDbEntity
  8
0
 62
     0
100
AcDbLine
 10
0.0
 20
0.0
 30
0.0
 11
-1.0
 21
-0.1665
 31
0.0
  0
LINE
  5
20C
330
20A
100
AcDbEntity
  8
0
 62
     0
100
AcDbLine
 10
-1.0
 20
0.1665
 30
0.0
 11
0.0
 21
0.0
 31
0.0
  0
LINE
  5
20D
330
20A
100
AcDbEntity
  8
0
 62
     0
100
AcDbLine
 10
0.0
 20
0.0
 30
0.0
 11
-1.0
 21
0.0
 31
0.0
  0
ENDBLK
  5
20F
330
20A
100
AcDbEntity
  8
0
100
AcDbBlockEnd
  0
BLOCK
  5
21A
330
213
100
AcDbEntity
  8
0
100
AcDbBlockBegin
  2
DMBLK1
 70
     0
 10
0.0
 20
0.0
 30
0.0
  3
DMBLK1
  1

  0
LWPOLYLINE
  5
214
330
213
100
AcDbEntity
  8
Default
  6
Continuous
 62
     7
100
AcDbPolyline
 90
        3
 70
     0
 43
0.0
 10
43.344999998
 20
-120.6756797615
 10
44.92
 20
-120.4131797612
 10
43.344999998
 20
-120.1506797608
  0
LWPOLYLINE
  5
215
330
213
100
AcDbEntity
  8
Default
  6
Continuous
 62
     7
100
AcDbPolyline
 90
        3
 70
     0
 43
0.0
 10
56.655000002
 20
-120.6756797615
 10
55.08
 20
-120.4131797612
 10
56.655000002
 20
-120.1506797608
  0
LINE
  5
216
330
213
100
AcDbEntity
  8
Default
  6
Continuous
 62
     7
100
AcDbLine
 10
44.92
 20
-124.6
 30
0.0
 11
44.92
 21
-119.6256797601
 31
0.0
  0
LINE
  5
217
330
213
100
AcDbEntity
  8
Default
  6
Continuous
 62
     7
100
AcDbLine
 10
55.08
 20
-124.6
 30
0.0
 11
55.08
 21
-119.6256797601
 31
0.0
  0
LINE
  5
218
330
213
100
AcDbEntity
  8
Default
  6
Continuous
 62
     7
100
AcDbLine
 10
41.7699999959
 20
-120.4131797612
 30
0.0
 11
58.2300003004
 21
-120.4131797612
 31
0.0
  0
TEXT
  5
219
330
213
100
AcDbEntity
  8
Default
  6
Continuous
 62
     7
100
AcDbText
 10
47.4550305195
 20
-120.0194297612
 30
0.0
 40
1.575
  1
10.16
  7
SEACAD_Solid_Edge_ANSI
 11
47.4550305195
 21
-118.4444297612
 31
0.0
100
AcDbText
 73
     3
  0
ENDBLK
  5
21B
330
213
100
AcDbEntity
  8
0
100
AcDbBlockEnd
  0
BLOCK
  5
224
330
21D
100
AcDbEntity
  8
0
100
AcDbBlockBegin
  2
DMBLK2
 70
     0
 10
0.0
 20
0.0
 30
0.0
  3
DMBLK2
  1

  0
LWPOLYLINE
  5
21E
330
21D
100
AcDbEntity
  8
Default
  6
Continuous
 62
     7
100
AcDbPolyline
 90
        3
 70
     0
 43
0.0
 10
39.8269714445
 20
-173.824999998
 10
39.5644714442
 20
-175.4
 10
39.3019714438
 20
-173.824999998
  0
LWPOLYLINE
  5
21F
330
21D
100
AcDbEntity
  8
Default
  6
Continuous
 62
     7
100
AcDbPolyline
 90
        3
 70
     0
 43
0.0
 10
39.8269714445
 20
-126.175000616
 10
39.5644714442
 20
-124.6000006139
 10
39.3019714438
 20
-126.175000616
  0
LINE
  5
220
330
21D
100
AcDbEntity
  8
Default
  6
Continuous
 62
     7
100
AcDbLine
 10
44.92
 20
-175.4
 30
0.0
 11
38.7769714432
 21
-175.4
 31
0.0
  0
LINE
  5
221
330
21D
100
AcDbEntity
  8
Default
  6
Continuous
 62
     7
100
AcDbLine
 10
44.92
 20
-124.6
 30
0.0
 11
38.7769714432
 21
-124.6
 31
0.0
  0
LINE
  5
222
330
21D
100
AcDbEntity
  8
Default
  6
Continuous
 62
     7
100
AcDbLine
 10
39.5644714442
 20
-175.4
 30
0.0
 11
39.5644714442
 21
-124.6000006139
 31
0.0
  0
TEXT
  5
223
330
21D
100
AcDbEntity
  8
Default
  6
Continuous
 62
     7
100
AcDbText
 10
39.1707214442
 20
-151.968750307
 30
0.0
 40
1.575
  1
50.8
 50
90.0
  7
SEACAD_Solid_Edge_ANSI
 11
37.5957214442
 21
-151.968750307
 31
0.0
100
AcDbText
 73
     3
  0
ENDBLK
  5
225
330
21D
100
AcDbEntity
  8
0
100
AcDbBlockEnd
  0
BLOCK
  5
22E
330
227
100
AcDbEntity
  8
0
100
AcDbBlockBegin
  2
DMBLK3
 70
     0
 10
0.0
 20
0.0
 30
0.0
  3
DMBLK3
  1

  0
LWPOLYLINE
  5
228
330
227
100
AcDbEntity
  8
Default
  6
Continuous
 62
     7
100
AcDbPolyline
 90
        3
 70
     0
 43
0.0
 10
42.9164841111
 20
-129.075000002
 10
42.6539841108
 20
-127.5
 10
42.3914841105
 20
-129.075000002
  0
LWPOLYLINE
  5
229
330
227
100
AcDbEntity
  8
Default
  6
Continuous
 62
     7
100
AcDbPolyline
 90
        3
 70
     0
 43
0.0
 10
42.9164841111
 20
-170.9250017861
 10
42.6539841108
 20
-172.5000017881
 10
42.3914841105
 20
-170.9250017861
  0
LINE
  5
22A
330
227
100
AcDbEntity
  8
Default
  6
Continuous
 62
     7
100
AcDbLine
 10
50.0
 20
-127.5
 30
0.0
 11
41.8664841098
 21
-127.5
 31
0.0
  0
LINE
  5
22B
330
227
100
AcDbEntity
  8
Default
  6
Continuous
 62
     7
100
AcDbLine
 10
50.0
 20
-172.5
 30
0.0
 11
41.8664841098
 21
-172.5
 31
0.0
  0
LINE
  5
22C
330
227
100
AcDbEntity
  8
Default
  6
Continuous
 62
     7
100
AcDbLine
 10
42.6539841108
 20
-127.5
 30
0.0
 11
42.6539841108
 21
-172.5000017881
 31
0.0
  0
TEXT
  5
22D
330
227
100
AcDbEntity
  8
Default
  6
Continuous
 62
     7
100
AcDbText
 10
42.2602341108
 20
-151.1524399185
 30
0.0
 40
1.575
  1
45
 50
90.0
  7
SEACAD_Solid_Edge_ANSI
 11
40.6852341108
 21
-151.1524399185
 31
0.0
100
AcDbText
 73
     3
  0
ENDBLK
  5
22F
330
227
100
AcDbEntity
  8
0
100
AcDbBlockEnd
  0
BLOCK
  5
238
330
231
100
AcDbEntity
  8
0
100
AcDbBlockBegin
  2
DMBLK4
 70
     0
 10
0.0
 20
0.0
 30
0.0
  3
DMBLK4
  1

  0
LWPOLYLINE
  5
232
330
231
100
AcDbEntity
  8
Default
  6
Continuous
 62
     7
100
AcDbPolyline
 90
        3
 70
     0
 43
0.0
 10
47.765000002
 20
-123.9146847427
 10
46.19
 20
-123.6521847424
 10
47.765000002
 20
-123.389684742
  0
LWPOLYLINE
  5
233
330
231
100
AcDbEntity
  8
Default
  6
Continuous
 62
     7
100
AcDbPolyline
 90
        3
 70
     0
 43
0.0
 10
52.2349998127
 20
-123.9146847427
 10
53.8099998148
 20
-123.6521847424
 10
52.2349998127
 20
-123.389684742
  0
LINE
  5
234
330
231
100
AcDbEntity
  8
Default
  6
Continuous
 62
     7
100
AcDbLine
 10
46.19
 20
-125.87
 30
0.0
 11
46.19
 21
-122.8646847414
 31
0.0
  0
LINE
  5
235
330
231
100
AcDbEntity
  8
Default
  6
Continuous
 62
     7
100
AcDbLine
 10
53.81
 20
-125.87
 30
0.0
 11
53.81
 21
-122.8646847414
 31
0.0
  0
LINE
  5
236
330
231
100
AcDbEntity
  8
Default
  6
Continuous
 62
     7
100
AcDbLine
 10
46.19
 20
-123.6521847424
 30
0.0
 11
53.8099998148
 21
-123.6521847424
 31
0.0
  0
TEXT
  5
237
330
231
100
AcDbEntity
  8
Default
  6
Continuous
 62
     7
100
AcDbText
 10
48.0312499074
 20
-123.2584347424
 30
0.0
 40
1.575
  1
7.62
  7
SEACAD_Solid_Edge_ANSI
 11
48.0312499074
 21
-121.6834347424
 31
0.0
100
AcDbText
 73
     3
  0
ENDBLK
  5
239
330
231
100
AcDbEntity
  8
0
100
AcDbBlockEnd
  0
BLOCK
  5
244
330
23C
100
AcDbEntity
  8
0
100
AcDbBlockBegin
  2
DMBLK5
 70
     0
 10
0.0
 20
0.0
 30
0.0
  3
DMBLK5
  1

  0
LINE
  5
23D
330
23C
100
AcDbEntity
  8
Default
  6
Continuous
 62
     7
100
AcDbLine
 10
45.4409559039
 20
-126.1667269714
 30
0.0
 11
51.5356779324
 21
-127.9491024708
 31
0.0
  0
LINE
  5
23E
330
23C
100
AcDbEntity
  8
Default
  6
Continuous
 62
     7
100
AcDbLine
 10
51.53567801
 20
-127.9491024935
 30
0.0
 11
64.0633787304
 21
-131.6127752127
 31
0.0
  0
LWPOLYLINE
  5
23F
330
23C
100
AcDbEntity
  8
Default
  6
Continuous
 62
     7
100
AcDbPolyline
 90
        3
 70
     0
 43
0.0
 10
46.878958069
 20
-126.8607594128
 10
48.46432199
 20
-127.0508975065
 10
47.0263198249
 20
-126.3568650651
  0
LWPOLYLINE
  5
240
330
23C
100
AcDbEntity
  8
Default
  6
Continuous
 62
     7
100
AcDbPolyline
 90
        3
 70
     0
 43
0.0
 10
52.9736801751
 20
-128.6431349349
 10
51.53567801
 20
-127.9491024935
 10
53.121041931
 20
-128.1392405872
  0
TEXT
  5
241
330
23C
100
AcDbEntity
  8
Default
  6
Continuous
 62
     7
100
AcDbText
 10
55.2031667172
 20
-128.6114016971
 30
0.0
 40
1.575
  1
O
 50
343.6986658381
  7
SEACAD_Solid_Edge_ANSI1_Symbols
 11
55.6452519842
 21
-127.099718656
 31
0.0
100
AcDbText
 73
     3
  0
TEXT
  5
242
330
23C
100
AcDbEntity
  8
Default
  6
Continuous
 62
     7
100
AcDbText
 10
57.7934917186
 20
-129.3689312114
 30
0.0
 40
1.575
  1
3.2
 50
343.6986658381
  7
SEACAD_Solid_Edge_ANSI
 11
58.2355769856
 21
-127.8572481703
 31
0.0
100
AcDbText
 73
     3
  0
TEXT
  5
243
330
23C
100
AcDbEntity
  8
Default
  6
Continuous
 62
     7
100
AcDbText
 10
61.5247679079
 20
-130.4601270411
 30
0.0
 40
1.575
  1
x2
 50
343.6986658381
  7
SEACAD_Solid_Edge_ANSI
 11
61.9668531748
 21
-128.9484440001
 31
0.0
100
AcDbText
 73
     3
  0
ENDBLK
  5
245
330
23C
100
AcDbEntity
  8
0
100
AcDbBlockEnd
  0
ENDSEC
  0
SECTION
  2
ENTITIES
  0
LINE
  5
6F
330
1F
100
AcDbEntity
  8
BLACK
  6
Continuous
 62
     7
100
AcDbLine
 10
46.19
 20
-150.0
 30
0.0
 11
44.92
 21
-150.0
 31
0.0
  0
LINE
  5
70
330
1F
100
AcDbEntity
  8
BLACK
  6
Continuous
 62
     7
100
AcDbLine
 10
53.81
 20
-150.0
 30
0.0
 11
55.08
 21
-150.0
 31
0.0
  0
LINE
  5
71
330
1F
100
AcDbEntity
  8
BLACK
  6
Continuous
 62
     7
100
AcDbLine
 10
48.603
 20
-150.0
 30
0.0
 11
48.984
 21
-150.0
 31
0.0
  0
LINE
  5
72
330
1F
100
AcDbEntity
  8
BLACK
  6
Continuous
 62
     7
100
AcDbLine
 10
51.016
 20
-150.0
 30
0.0
 11
51.397
 21
-150.0
 31
0.0
  0
LINE
  5
73
330
1F
100
AcDbEntity
  8
BLACK
  6
Continuous
 62
     7
100
AcDbLine
 10
51.016
 20
-156.35
 30
0.0
 11
51.397
 21
-156.35
 31
0.0
  0
LINE
  5
74
330
1F
100
AcDbEntity
  8
BLACK
  6
Continuous
 62
     7
100
AcDbLine
 10
48.984
 20
-156.35
 30
0.0
 11
48.603
 21
-156.35
 31
0.0
  0
LINE
  5
75
330
1F
100
AcDbEntity
  8
BLACK
  6
Continuous
 62
     7
100
AcDbLine
 10
48.984
 20
-143.65
 30
0.0
 11
48.603
 21
-143.65
 31
0.0
  0
LINE
  5
76
330
1F
100
AcDbEntity
  8
BLACK
  6
Continuous
 62
     7
100
AcDbLine
 10
51.016
 20
-143.65
 30
0.0
 11
51.397
 21
-143.65
 31
0.0
  0
LINE
  5
77
330
1F
100
AcDbEntity
  8
BLACK
  6
Continuous
 62
     7
100
AcDbLine
 10
46.19
 20
-137.3
 30
0.0
 11
44.92
 21
-137.3
 31
0.0
  0
LINE
  5
78
330
1F
100
AcDbEntity
  8
BLACK
  6
Continuous
 62
     7
100
AcDbLine
 10
53.81
 20
-137.3
 30
0.0
 11
55.08
 21
-137.3
 31
0.0
  0
LINE
  5
79
330
1F
100
AcDbEntity
  8
BLACK
  6
Continuous
 62
     7
100
AcDbLine
 10
46.19
 20
-162.7
 30
0.0
 11
44.92
 21
-162.7
 31
0.0
  0
LINE
  5
7A
330
1F
100
AcDbEntity
  8
BLACK
  6
Continuous
 62
     7
100
AcDbLine
 10
53.81
 20
-162.7
 30
0.0
 11
55.08
 21
-162.7
 31
0.0
  0
LINE
  5
7B
330
1F
100
AcDbEntity
  8
BLACK
  6
Continuous
 62
     7
100
AcDbLine
 10
48.7717
 20
-174.074
 30
0.0
 11
48.2057
 21
-174.074
 31
0.0
  0
LINE
  5
7C
330
1F
100
AcDbEntity
  8
BLACK
  6
Continuous
 62
     7
100
AcDbLine
 10
48.2057
 20
-174.074
 30
0.0
 11
48.5105
 21
-174.422
 31
0.0
  0
LINE
  5
7D
330
1F
100
AcDbEntity
  8
BLACK
  6
Continuous
 62
     7
100
AcDbLine
 10
48.5105
 20
-174.422
 30
0.0
 11
48.3798
 21
-174.422
 31
0.0
  0
LINE
  5
7E
330
1F
100
AcDbEntity
  8
BLACK
  6
Continuous
 62
     7
100
AcDbLine
 10
48.3798
 20
-174.422
 30
0.0
 11
48.2928
 21
-174.466
 31
0.0
  0
LINE
  5
7F
330
1F
100
AcDbEntity
  8
BLACK
  6
Continuous
 62
     7
100
AcDbLine
 10
48.2928
 20
-174.466
 30
0.0
 11
48.2492
 21
-174.509
 31
0.0
  0
LINE
  5
80
330
1F
100
AcDbEntity
  8
BLACK
  6
Continuous
 62
     7
100
AcDbLine
 10
48.2492
 20
-174.509
 30
0.0
 11
48.2057
 21
-174.596
 31
0.0
  0
LINE
  5
81
330
1F
100
AcDbEntity
  8
BLACK
  6
Continuous
 62
     7
100
AcDbLine
 10
48.2057
 20
-174.596
 30
0.0
 11
48.2057
 21
-174.814
 31
0.0
  0
LINE
  5
82
330
1F
100
AcDbEntity
  8
BLACK
  6
Continuous
 62
     7
100
AcDbLine
 10
48.2057
 20
-174.814
 30
0.0
 11
48.2492
 21
-174.901
 31
0.0
  0
LINE
  5
83
330
1F
100
AcDbEntity
  8
BLACK
  6
Continuous
 62
     7
100
AcDbLine
 10
48.2492
 20
-174.901
 30
0.0
 11
48.2928
 21
-174.945
 31
0.0
  0
LINE
  5
84
330
1F
100
AcDbEntity
  8
BLACK
  6
Continuous
 62
     7
100
AcDbLine
 10
48.2928
 20
-174.945
 30
0.0
 11
48.3798
 21
-174.988
 31
0.0
  0
LINE
  5
85
330
1F
100
AcDbEntity
  8
BLACK
  6
Continuous
 62
     7
100
AcDbLine
 10
48.3798
 20
-174.988
 30
0.0
 11
48.6411
 21
-174.988
 31
0.0
  0
LINE
  5
86
330
1F
100
AcDbEntity
  8
BLACK
  6
Continuous
 62
     7
100
AcDbLine
 10
48.6411
 20
-174.988
 30
0.0
 11
48.7282
 21
-174.945
 31
0.0
  0
LINE
  5
87
330
1F
100
AcDbEntity
  8
BLACK
  6
Continuous
 62
     7
100
AcDbLine
 10
48.7282
 20
-174.945
 30
0.0
 11
48.7717
 21
-174.901
 31
0.0
  0
LINE
  5
88
330
1F
100
AcDbEntity
  8
BLACK
  6
Continuous
 62
     7
100
AcDbLine
 10
47.7702
 20
-174.988
 30
0.0
 11
47.5961
 21
-174.988
 31
0.0
  0
LINE
  5
89
330
1F
100
AcDbEntity
  8
BLACK
  6
Continuous
 62
     7
100
AcDbLine
 10
47.5961
 20
-174.988
 30
0.0
 11
47.509
 21
-174.945
 31
0.0
  0
LINE
  5
8A
330
1F
100
AcDbEntity
  8
BLACK
  6
Continuous
 62
     7
100
AcDbLine
 10
47.509
 20
-174.945
 30
0.0
 11
47.4654
 21
-174.901
 31
0.0
  0
LINE
  5
8B
330
1F
100
AcDbEntity
  8
BLACK
  6
Continuous
 62
     7
100
AcDbLine
 10
47.4654
 20
-174.901
 30
0.0
 11
47.3784
 21
-174.77
 31
0.0
  0
LINE
  5
8C
330
1F
100
AcDbEntity
  8
BLACK
  6
Continuous
 62
     7
100
AcDbLine
 10
47.3784
 20
-174.77
 30
0.0
 11
47.3348
 21
-174.596
 31
0.0
  0
LINE
  5
8D
330
1F
100
AcDbEntity
  8
BLACK
  6
Continuous
 62
     7
100
AcDbLine
 10
47.3348
 20
-174.596
 30
0.0
 11
47.3348
 21
-174.248
 31
0.0
  0
LINE
  5
8E
330
1F
100
AcDbEntity
  8
BLACK
  6
Continuous
 62
     7
100
AcDbLine
 10
47.3348
 20
-174.248
 30
0.0
 11
47.3784
 21
-174.161
 31
0.0
  0
LINE
  5
8F
330
1F
100
AcDbEntity
  8
BLACK
  6
Continuous
 62
     7
100
AcDbLine
 10
47.3784
 20
-174.161
 30
0.0
 11
47.4219
 21
-174.117
 31
0.0
  0
LINE
  5
90
330
1F
100
AcDbEntity
  8
BLACK
  6
Continuous
 62
     7
100
AcDbLine
 10
47.4219
 20
-174.117
 30
0.0
 11
47.509
 21
-174.074
 31
0.0
  0
LINE
  5
91
330
1F
100
AcDbEntity
  8
BLACK
  6
Continuous
 62
     7
100
AcDbLine
 10
47.509
 20
-174.074
 30
0.0
 11
47.6832
 21
-174.074
 31
0.0
  0
LINE
  5
92
330
1F
100
AcDbEntity
  8
BLACK
  6
Continuous
 62
     7
100
AcDbLine
 10
47.6832
 20
-174.074
 30
0.0
 11
47.7702
 21
-174.117
 31
0.0
  0
LINE
  5
93
330
1F
100
AcDbEntity
  8
BLACK
  6
Continuous
 62
     7
100
AcDbLine
 10
47.7702
 20
-174.117
 30
0.0
 11
47.8138
 21
-174.161
 31
0.0
  0
LINE
  5
94
330
1F
100
AcDbEntity
  8
BLACK
  6
Continuous
 62
     7
100
AcDbLine
 10
47.8138
 20
-174.161
 30
0.0
 11
47.8573
 21
-174.248
 31
0.0
  0
LINE
  5
95
330
1F
100
AcDbEntity
  8
BLACK
  6
Continuous
 62
     7
100
AcDbLine
 10
47.8573
 20
-174.248
 30
0.0
 11
47.8573
 21
-174.466
 31
0.0
  0
LINE
  5
96
330
1F
100
AcDbEntity
  8
BLACK
  6
Continuous
 62
     7
100
AcDbLine
 10
47.8573
 20
-174.466
 30
0.0
 11
47.8138
 21
-174.553
 31
0.0
  0
LINE
  5
97
330
1F
100
AcDbEntity
  8
BLACK
  6
Continuous
 62
     7
100
AcDbLine
 10
47.8138
 20
-174.553
 30
0.0
 11
47.7702
 21
-174.596
 31
0.0
  0
LINE
  5
98
330
1F
100
AcDbEntity
  8
BLACK
  6
Continuous
 62
     7
100
AcDbLine
 10
47.7702
 20
-174.596
 30
0.0
 11
47.6832
 21
-174.64
 31
0.0
  0
LINE
  5
99
330
1F
100
AcDbEntity
  8
BLACK
  6
Continuous
 62
     7
100
AcDbLine
 10
47.6832
 20
-174.64
 30
0.0
 11
47.509
 21
-174.64
 31
0.0
  0
LINE
  5
9A
330
1F
100
AcDbEntity
  8
BLACK
  6
Continuous
 62
     7
100
AcDbLine
 10
47.509
 20
-174.64
 30
0.0
 11
47.4219
 21
-174.596
 31
0.0
  0
LINE
  5
9B
330
1F
100
AcDbEntity
  8
BLACK
  6
Continuous
 62
     7
100
AcDbLine
 10
47.4219
 20
-174.596
 30
0.0
 11
47.3784
 21
-174.553
 31
0.0
  0
LINE
  5
9C
330
1F
100
AcDbEntity
  8
BLACK
  6
Continuous
 62
     7
100
AcDbLine
 10
47.3784
 20
-174.553
 30
0.0
 11
47.3348
 21
-174.466
 31
0.0
  0
LINE
  5
9D
330
1F
100
AcDbEntity
  8
BLACK
  6
Continuous
 62
     7
100
AcDbLine
 10
52.2298
 20
-174.379
 30
0.0
 11
52.2298
 21
-174.988
 31
0.0
  0
LINE
  5
9E
330
1F
100
AcDbEntity
  8
BLACK
  6
Continuous
 62
     7
100
AcDbLine
 10
52.4475
 20
-174.03
 30
0.0
 11
52.6652
 21
-174.683
 31
0.0
  0
LINE
  5
9F
330
1F
100
AcDbEntity
  8
BLACK
  6
Continuous
 62
     7
100
AcDbLine
 10
52.6652
 20
-174.683
 30
0.0
 11
52.0991
 21
-174.683
 31
0.0
  0
LINE
  5
A0
330
1F
100
AcDbEntity
  8
BLACK
  6
Continuous
 62
     7
100
AcDbLine
 10
51.5766
 20
-174.074
 30
0.0
 11
51.4895
 21
-174.074
 31
0.0
  0
LINE
  5
A1
330
1F
100
AcDbEntity
  8
BLACK
  6
Continuous
 62
     7
100
AcDbLine
 10
51.4895
 20
-174.074
 30
0.0
 11
51.4024
 21
-174.117
 31
0.0
  0
LINE
  5
A2
330
1F
100
AcDbEntity
  8
BLACK
  6
Continuous
 62
     7
100
AcDbLine
 10
51.4024
 20
-174.117
 30
0.0
 11
51.3589
 21
-174.161
 31
0.0
  0
LINE
  5
A3
330
1F
100
AcDbEntity
  8
BLACK
  6
Continuous
 62
     7
100
AcDbLine
 10
51.3589
 20
-174.161
 30
0.0
 11
51.3154
 21
-174.248
 31
0.0
  0
LINE
  5
A4
330
1F
100
AcDbEntity
  8
BLACK
  6
Continuous
 62
     7
100
AcDbLine
 10
51.3154
 20
-174.248
 30
0.0
 11
51.2718
 21
-174.422
 31
0.0
  0
LINE
  5
A5
330
1F
100
AcDbEntity
  8
BLACK
  6
Continuous
 62
     7
100
AcDbLine
 10
51.2718
 20
-174.422
 30
0.0
 11
51.2718
 21
-174.64
 31
0.0
  0
LINE
  5
A6
330
1F
100
AcDbEntity
  8
BLACK
  6
Continuous
 62
     7
100
AcDbLine
 10
51.2718
 20
-174.64
 30
0.0
 11
51.3154
 21
-174.814
 31
0.0
  0
LINE
  5
A7
330
1F
100
AcDbEntity
  8
BLACK
  6
Continuous
 62
     7
100
AcDbLine
 10
51.3154
 20
-174.814
 30
0.0
 11
51.3589
 21
-174.901
 31
0.0
  0
LINE
  5
A8
330
1F
100
AcDbEntity
  8
BLACK
  6
Continuous
 62
     7
100
AcDbLine
 10
51.3589
 20
-174.901
 30
0.0
 11
51.4024
 21
-174.945
 31
0.0
  0
LINE
  5
A9
330
1F
100
AcDbEntity
  8
BLACK
  6
Continuous
 62
     7
100
AcDbLine
 10
51.4024
 20
-174.945
 30
0.0
 11
51.4895
 21
-174.988
 31
0.0
  0
LINE
  5
AA
330
1F
100
AcDbEntity
  8
BLACK
  6
Continuous
 62
     7
100
AcDbLine
 10
51.4895
 20
-174.988
 30
0.0
 11
51.5766
 21
-174.988
 31
0.0
  0
LINE
  5
AB
330
1F
100
AcDbEntity
  8
BLACK
  6
Continuous
 62
     7
100
AcDbLine
 10
51.5766
 20
-174.988
 30
0.0
 11
51.6637
 21
-174.945
 31
0.0
  0
LINE
  5
AC
330
1F
100
AcDbEntity
  8
BLACK
  6
Continuous
 62
     7
100
AcDbLine
 10
51.6637
 20
-174.945
 30
0.0
 11
51.7072
 21
-174.901
 31
0.0
  0
LINE
  5
AD
330
1F
100
AcDbEntity
  8
BLACK
  6
Continuous
 62
     7
100
AcDbLine
 10
51.7072
 20
-174.901
 30
0.0
 11
51.7508
 21
-174.814
 31
0.0
  0
LINE
  5
AE
330
1F
100
AcDbEntity
  8
BLACK
  6
Continuous
 62
     7
100
AcDbLine
 10
51.7508
 20
-174.814
 30
0.0
 11
51.7943
 21
-174.64
 31
0.0
  0
LINE
  5
AF
330
1F
100
AcDbEntity
  8
BLACK
  6
Continuous
 62
     7
100
AcDbLine
 10
51.7943
 20
-174.64
 30
0.0
 11
51.7943
 21
-174.422
 31
0.0
  0
LINE
  5
B0
330
1F
100
AcDbEntity
  8
BLACK
  6
Continuous
 62
     7
100
AcDbLine
 10
51.7943
 20
-174.422
 30
0.0
 11
51.7508
 21
-174.248
 31
0.0
  0
LINE
  5
B1
330
1F
100
AcDbEntity
  8
BLACK
  6
Continuous
 62
     7
100
AcDbLine
 10
51.7508
 20
-174.248
 30
0.0
 11
51.7072
 21
-174.161
 31
0.0
  0
LINE
  5
B2
330
1F
100
AcDbEntity
  8
BLACK
  6
Continuous
 62
     7
100
AcDbLine
 10
51.7072
 20
-174.161
 30
0.0
 11
51.6637
 21
-174.117
 31
0.0
  0
LINE
  5
B3
330
1F
100
AcDbEntity
  8
BLACK
  6
Continuous
 62
     7
100
AcDbLine
 10
51.6637
 20
-174.117
 30
0.0
 11
51.5766
 21
-174.074
 31
0.0
  0
LINE
  5
B4
330
1F
100
AcDbEntity
  8
BLACK
  6
Continuous
 62
     7
100
AcDbLine
 10
49.7242
 20
-162.834
 30
0.0
 11
49.1582
 21
-162.834
 31
0.0
  0
LINE
  5
B5
330
1F
100
AcDbEntity
  8
BLACK
  6
Continuous
 62
     7
100
AcDbLine
 10
49.1582
 20
-162.834
 30
0.0
 11
49.463
 21
-163.183
 31
0.0
  0
LINE
  5
B6
330
1F
100
AcDbEntity
  8
BLACK
  6
Continuous
 62
     7
100
AcDbLine
 10
49.463
 20
-163.183
 30
0.0
 11
49.3323
 21
-163.183
 31
0.0
  0
LINE
  5
B7
330
1F
100
AcDbEntity
  8
BLACK
  6
Continuous
 62
     7
100
AcDbLine
 10
49.3323
 20
-163.183
 30
0.0
 11
49.2453
 21
-163.226
 31
0.0
  0
LINE
  5
B8
330
1F
100
AcDbEntity
  8
BLACK
  6
Continuous
 62
     7
100
AcDbLine
 10
49.2453
 20
-163.226
 30
0.0
 11
49.2017
 21
-163.27
 31
0.0
  0
LINE
  5
B9
330
1F
100
AcDbEntity
  8
BLACK
  6
Continuous
 62
     7
100
AcDbLine
 10
49.2017
 20
-163.27
 30
0.0
 11
49.1582
 21
-163.357
 31
0.0
  0
LINE
  5
BA
330
1F
100
AcDbEntity
  8
BLACK
  6
Continuous
 62
     7
100
AcDbLine
 10
49.1582
 20
-163.357
 30
0.0
 11
49.1582
 21
-163.574
 31
0.0
  0
LINE
  5
BB
330
1F
100
AcDbEntity
  8
BLACK
  6
Continuous
 62
     7
100
AcDbLine
 10
49.1582
 20
-163.574
 30
0.0
 11
49.2017
 21
-163.662
 31
0.0
  0
LINE
  5
BC
330
1F
100
AcDbEntity
  8
BLACK
  6
Continuous
 62
     7
100
AcDbLine
 10
49.2017
 20
-163.662
 30
0.0
 11
49.2453
 21
-163.705
 31
0.0
  0
LINE
  5
BD
330
1F
100
AcDbEntity
  8
BLACK
  6
Continuous
 62
     7
100
AcDbLine
 10
49.2453
 20
-163.705
 30
0.0
 11
49.3323
 21
-163.749
 31
0.0
  0
LINE
  5
BE
330
1F
100
AcDbEntity
  8
BLACK
  6
Continuous
 62
     7
100
AcDbLine
 10
49.3323
 20
-163.749
 30
0.0
 11
49.5936
 21
-163.749
 31
0.0
  0
LINE
  5
BF
330
1F
100
AcDbEntity
  8
BLACK
  6
Continuous
 62
     7
100
AcDbLine
 10
49.5936
 20
-163.749
 30
0.0
 11
49.6807
 21
-163.705
 31
0.0
  0
LINE
  5
C0
330
1F
100
AcDbEntity
  8
BLACK
  6
Continuous
 62
     7
100
AcDbLine
 10
49.6807
 20
-163.705
 30
0.0
 11
49.7242
 21
-163.662
 31
0.0
  0
LINE
  5
C1
330
1F
100
AcDbEntity
  8
BLACK
  6
Continuous
 62
     7
100
AcDbLine
 10
48.7227
 20
-163.749
 30
0.0
 11
48.5486
 21
-163.749
 31
0.0
  0
LINE
  5
C2
330
1F
100
AcDbEntity
  8
BLACK
  6
Continuous
 62
     7
100
AcDbLine
 10
48.5486
 20
-163.749
 30
0.0
 11
48.4615
 21
-163.705
 31
0.0
  0
LINE
  5
C3
330
1F
100
AcDbEntity
  8
BLACK
  6
Continuous
 62
     7
100
AcDbLine
 10
48.4615
 20
-163.705
 30
0.0
 11
48.4179
 21
-163.662
 31
0.0
  0
LINE
  5
C4
330
1F
100
AcDbEntity
  8
BLACK
  6
Continuous
 62
     7
100
AcDbLine
 10
48.4179
 20
-163.662
 30
0.0
 11
48.3309
 21
-163.531
 31
0.0
  0
LINE
  5
C5
330
1F
100
AcDbEntity
  8
BLACK
  6
Continuous
 62
     7
100
AcDbLine
 10
48.3309
 20
-163.531
 30
0.0
 11
48.2873
 21
-163.357
 31
0.0
  0
LINE
  5
C6
330
1F
100
AcDbEntity
  8
BLACK
  6
Continuous
 62
     7
100
AcDbLine
 10
48.2873
 20
-163.357
 30
0.0
 11
48.2873
 21
-163.008
 31
0.0
  0
LINE
  5
C7
330
1F
100
AcDbEntity
  8
BLACK
  6
Continuous
 62
     7
100
AcDbLine
 10
48.2873
 20
-163.008
 30
0.0
 11
48.3309
 21
-162.921
 31
0.0
  0
LINE
  5
C8
330
1F
100
AcDbEntity
  8
BLACK
  6
Continuous
 62
     7
100
AcDbLine
 10
48.3309
 20
-162.921
 30
0.0
 11
48.3744
 21
-162.878
 31
0.0
  0
LINE
  5
C9
330
1F
100
AcDbEntity
  8
BLACK
  6
Continuous
 62
     7
100
AcDbLine
 10
48.3744
 20
-162.878
 30
0.0
 11
48.4615
 21
-162.834
 31
0.0
  0
LINE
  5
CA
330
1F
100
AcDbEntity
  8
BLACK
  6
Continuous
 62
     7
100
AcDbLine
 10
48.4615
 20
-162.834
 30
0.0
 11
48.6357
 21
-162.834
 31
0.0
  0
LINE
  5
CB
330
1F
100
AcDbEntity
  8
BLACK
  6
Continuous
 62
     7
100
AcDbLine
 10
48.6357
 20
-162.834
 30
0.0
 11
48.7227
 21
-162.878
 31
0.0
  0
LINE
  5
CC
330
1F
100
AcDbEntity
  8
BLACK
  6
Continuous
 62
     7
100
AcDbLine
 10
48.7227
 20
-162.878
 30
0.0
 11
48.7663
 21
-162.921
 31
0.0
  0
LINE
  5
CD
330
1F
100
AcDbEntity
  8
BLACK
  6
Continuous
 62
     7
100
AcDbLine
 10
48.7663
 20
-162.921
 30
0.0
 11
48.8098
 21
-163.008
 31
0.0
  0
LINE
  5
CE
330
1F
100
AcDbEntity
  8
BLACK
  6
Continuous
 62
     7
100
AcDbLine
 10
48.8098
 20
-163.008
 30
0.0
 11
48.8098
 21
-163.226
 31
0.0
  0
LINE
  5
CF
330
1F
100
AcDbEntity
  8
BLACK
  6
Continuous
 62
     7
100
AcDbLine
 10
48.8098
 20
-163.226
 30
0.0
 11
48.7663
 21
-163.313
 31
0.0
  0
LINE
  5
D0
330
1F
100
AcDbEntity
  8
BLACK
  6
Continuous
 62
     7
100
AcDbLine
 10
48.7663
 20
-163.313
 30
0.0
 11
48.7227
 21
-163.357
 31
0.0
  0
LINE
  5
D1
330
1F
100
AcDbEntity
  8
BLACK
  6
Continuous
 62
     7
100
AcDbLine
 10
48.7227
 20
-163.357
 30
0.0
 11
48.6357
 21
-163.4
 31
0.0
  0
LINE
  5
D2
330
1F
100
AcDbEntity
  8
BLACK
  6
Continuous
 62
     7
100
AcDbLine
 10
48.6357
 20
-163.4
 30
0.0
 11
48.4615
 21
-163.4
 31
0.0
  0
LINE
  5
D3
330
1F
100
AcDbEntity
  8
BLACK
  6
Continuous
 62
     7
100
AcDbLine
 10
48.4615
 20
-163.4
 30
0.0
 11
48.3744
 21
-163.357
 31
0.0
  0
LINE
  5
D4
330
1F
100
AcDbEntity
  8
BLACK
  6
Continuous
 62
     7
100
AcDbLine
 10
48.3744
 20
-163.357
 30
0.0
 11
48.3309
 21
-163.313
 31
0.0
  0
LINE
  5
D5
330
1F
100
AcDbEntity
  8
BLACK
  6
Continuous
 62
     7
100
AcDbLine
 10
48.3309
 20
-163.313
 30
0.0
 11
48.2873
 21
-163.226
 31
0.0
  0
LINE
  5
D6
330
1F
100
AcDbEntity
  8
BLACK
  6
Continuous
 62
     7
100
AcDbLine
 10
51.4043
 20
-163.139
 30
0.0
 11
51.4043
 21
-163.749
 31
0.0
  0
LINE
  5
D7
330
1F
100
AcDbEntity
  8
BLACK
  6
Continuous
 62
     7
100
AcDbLine
 10
51.622
 20
-162.791
 30
0.0
 11
51.8397
 21
-163.444
 31
0.0
  0
LINE
  5
D8
330
1F
100
AcDbEntity
  8
BLACK
  6
Continuous
 62
     7
100
AcDbLine
 10
51.8397
 20
-163.444
 30
0.0
 11
51.2736
 21
-163.444
 31
0.0
  0
LINE
  5
D9
330
1F
100
AcDbEntity
  8
BLACK
  6
Continuous
 62
     7
100
AcDbLine
 10
50.7511
 20
-162.834
 30
0.0
 11
50.664
 21
-162.834
 31
0.0
  0
LINE
  5
DA
330
1F
100
AcDbEntity
  8
BLACK
  6
Continuous
 62
     7
100
AcDbLine
 10
50.664
 20
-162.834
 30
0.0
 11
50.5769
 21
-162.878
 31
0.0
  0
LINE
  5
DB
330
1F
100
AcDbEntity
  8
BLACK
  6
Continuous
 62
     7
100
AcDbLine
 10
50.5769
 20
-162.878
 30
0.0
 11
50.5334
 21
-162.921
 31
0.0
  0
LINE
  5
DC
330
1F
100
AcDbEntity
  8
BLACK
  6
Continuous
 62
     7
100
AcDbLine
 10
50.5334
 20
-162.921
 30
0.0
 11
50.4899
 21
-163.008
 31
0.0
  0
LINE
  5
DD
330
1F
100
AcDbEntity
  8
BLACK
  6
Continuous
 62
     7
100
AcDbLine
 10
50.4899
 20
-163.008
 30
0.0
 11
50.4463
 21
-163.183
 31
0.0
  0
LINE
  5
DE
330
1F
100
AcDbEntity
  8
BLACK
  6
Continuous
 62
     7
100
AcDbLine
 10
50.4463
 20
-163.183
 30
0.0
 11
50.4463
 21
-163.4
 31
0.0
  0
LINE
  5
DF
330
1F
100
AcDbEntity
  8
BLACK
  6
Continuous
 62
     7
100
AcDbLine
 10
50.4463
 20
-163.4
 30
0.0
 11
50.4899
 21
-163.574
 31
0.0
  0
LINE
  5
E0
330
1F
100
AcDbEntity
  8
BLACK
  6
Continuous
 62
     7
100
AcDbLine
 10
50.4899
 20
-163.574
 30
0.0
 11
50.5334
 21
-163.662
 31
0.0
  0
LINE
  5
E1
330
1F
100
AcDbEntity
  8
BLACK
  6
Continuous
 62
     7
100
AcDbLine
 10
50.5334
 20
-163.662
 30
0.0
 11
50.5769
 21
-163.705
 31
0.0
  0
LINE
  5
E2
330
1F
100
AcDbEntity
  8
BLACK
  6
Continuous
 62
     7
100
AcDbLine
 10
50.5769
 20
-163.705
 30
0.0
 11
50.664
 21
-163.749
 31
0.0
  0
LINE
  5
E3
330
1F
100
AcDbEntity
  8
BLACK
  6
Continuous
 62
     7
100
AcDbLine
 10
50.664
 20
-163.749
 30
0.0
 11
50.7511
 21
-163.749
 31
0.0
  0
LINE
  5
E4
330
1F
100
AcDbEntity
  8
BLACK
  6
Continuous
 62
     7
100
AcDbLine
 10
50.7511
 20
-163.749
 30
0.0
 11
50.8382
 21
-163.705
 31
0.0
  0
LINE
  5
E5
330
1F
100
AcDbEntity
  8
BLACK
  6
Continuous
 62
     7
100
AcDbLine
 10
50.8382
 20
-163.705
 30
0.0
 11
50.8817
 21
-163.662
 31
0.0
  0
LINE
  5
E6
330
1F
100
AcDbEntity
  8
BLACK
  6
Continuous
 62
     7
100
AcDbLine
 10
50.8817
 20
-163.662
 30
0.0
 11
50.9253
 21
-163.574
 31
0.0
  0
LINE
  5
E7
330
1F
100
AcDbEntity
  8
BLACK
  6
Continuous
 62
     7
100
AcDbLine
 10
50.9253
 20
-163.574
 30
0.0
 11
50.9688
 21
-163.4
 31
0.0
  0
LINE
  5
E8
330
1F
100
AcDbEntity
  8
BLACK
  6
Continuous
 62
     7
100
AcDbLine
 10
50.9688
 20
-163.4
 30
0.0
 11
50.9688
 21
-163.183
 31
0.0
  0
LINE
  5
E9
330
1F
100
AcDbEntity
  8
BLACK
  6
Continuous
 62
     7
100
AcDbLine
 10
50.9688
 20
-163.183
 30
0.0
 11
50.9253
 21
-163.008
 31
0.0
  0
LINE
  5
EA
330
1F
100
AcDbEntity
  8
BLACK
  6
Continuous
 62
     7
100
AcDbLine
 10
50.9253
 20
-163.008
 30
0.0
 11
50.8817
 21
-162.921
 31
0.0
  0
LINE
  5
EB
330
1F
100
AcDbEntity
  8
BLACK
  6
Continuous
 62
     7
100
AcDbLine
 10
50.8817
 20
-162.921
 30
0.0
 11
50.8382
 21
-162.878
 31
0.0
  0
LINE
  5
EC
330
1F
100
AcDbEntity
  8
BLACK
  6
Continuous
 62
     7
100
AcDbLine
 10
50.8382
 20
-162.878
 30
0.0
 11
50.7511
 21
-162.834
 31
0.0
  0
LINE
  5
ED
330
1F
100
AcDbEntity
  8
BLACK
  6
Continuous
 62
     7
100
AcDbLine
 10
48.7227
 20
-137.079
 30
0.0
 11
49.2453
 21
-137.079
 31
0.0
  0
LINE
  5
EE
330
1F
100
AcDbEntity
  8
BLACK
  6
Continuous
 62
     7
100
AcDbLine
 10
48.984
 20
-137.079
 30
0.0
 11
48.984
 21
-136.164
 31
0.0
  0
LINE
  5
EF
330
1F
100
AcDbEntity
  8
BLACK
  6
Continuous
 62
     7
100
AcDbLine
 10
48.984
 20
-136.164
 30
0.0
 11
49.0711
 21
-136.295
 31
0.0
  0
LINE
  5
F0
330
1F
100
AcDbEntity
  8
BLACK
  6
Continuous
 62
     7
100
AcDbLine
 10
49.0711
 20
-136.295
 30
0.0
 11
49.1582
 21
-136.382
 31
0.0
  0
LINE
  5
F1
330
1F
100
AcDbEntity
  8
BLACK
  6
Continuous
 62
     7
100
AcDbLine
 10
49.1582
 20
-136.382
 30
0.0
 11
49.2453
 21
-136.426
 31
0.0
  0
LINE
  5
F2
330
1F
100
AcDbEntity
  8
BLACK
  6
Continuous
 62
     7
100
AcDbLine
 10
51.1503
 20
-136.251
 30
0.0
 11
51.1067
 21
-136.208
 31
0.0
  0
LINE
  5
F3
330
1F
100
AcDbEntity
  8
BLACK
  6
Continuous
 62
     7
100
AcDbLine
 10
51.1067
 20
-136.208
 30
0.0
 11
51.0196
 21
-136.164
 31
0.0
  0
LINE
  5
F4
330
1F
100
AcDbEntity
  8
BLACK
  6
Continuous
 62
     7
100
AcDbLine
 10
51.0196
 20
-136.164
 30
0.0
 11
50.8019
 21
-136.164
 31
0.0
  0
LINE
  5
F5
330
1F
100
AcDbEntity
  8
BLACK
  6
Continuous
 62
     7
100
AcDbLine
 10
50.8019
 20
-136.164
 30
0.0
 11
50.7148
 21
-136.208
 31
0.0
  0
LINE
  5
F6
330
1F
100
AcDbEntity
  8
BLACK
  6
Continuous
 62
     7
100
AcDbLine
 10
50.7148
 20
-136.208
 30
0.0
 11
50.6713
 21
-136.251
 31
0.0
  0
LINE
  5
F7
330
1F
100
AcDbEntity
  8
BLACK
  6
Continuous
 62
     7
100
AcDbLine
 10
50.6713
 20
-136.251
 30
0.0
 11
50.6277
 21
-136.338
 31
0.0
  0
LINE
  5
F8
330
1F
100
AcDbEntity
  8
BLACK
  6
Continuous
 62
     7
100
AcDbLine
 10
50.6277
 20
-136.338
 30
0.0
 11
50.6277
 21
-136.426
 31
0.0
  0
LINE
  5
F9
330
1F
100
AcDbEntity
  8
BLACK
  6
Continuous
 62
     7
100
AcDbLine
 10
50.6277
 20
-136.426
 30
0.0
 11
50.6713
 21
-136.556
 31
0.0
  0
LINE
  5
FA
330
1F
100
AcDbEntity
  8
BLACK
  6
Continuous
 62
     7
100
AcDbLine
 10
50.6713
 20
-136.556
 30
0.0
 11
51.1938
 21
-137.079
 31
0.0
  0
LINE
  5
FB
330
1F
100
AcDbEntity
  8
BLACK
  6
Continuous
 62
     7
100
AcDbLine
 10
51.1938
 20
-137.079
 30
0.0
 11
50.6277
 21
-137.079
 31
0.0
  0
LINE
  5
FC
330
1F
100
AcDbEntity
  8
BLACK
  6
Continuous
 62
     7
100
AcDbLine
 10
47.5797
 20
-125.903
 30
0.0
 11
48.1023
 21
-125.903
 31
0.0
  0
LINE
  5
FD
330
1F
100
AcDbEntity
  8
BLACK
  6
Continuous
 62
     7
100
AcDbLine
 10
47.841
 20
-125.903
 30
0.0
 11
47.841
 21
-124.988
 31
0.0
  0
LINE
  5
FE
330
1F
100
AcDbEntity
  8
BLACK
  6
Continuous
 62
     7
100
AcDbLine
 10
47.841
 20
-124.988
 30
0.0
 11
47.9281
 21
-125.119
 31
0.0
  0
LINE
  5
FF
330
1F
100
AcDbEntity
  8
BLACK
  6
Continuous
 62
     7
100
AcDbLine
 10
47.9281
 20
-125.119
 30
0.0
 11
48.0152
 21
-125.206
 31
0.0
  0
LINE
  5
100
330
1F
100
AcDbEntity
  8
BLACK
  6
Continuous
 62
     7
100
AcDbLine
 10
48.0152
 20
-125.206
 30
0.0
 11
48.1023
 21
-125.25
 31
0.0
  0
LINE
  5
101
330
1F
100
AcDbEntity
  8
BLACK
  6
Continuous
 62
     7
100
AcDbLine
 10
52.5473
 20
-125.075
 30
0.0
 11
52.5037
 21
-125.032
 31
0.0
  0
LINE
  5
102
330
1F
100
AcDbEntity
  8
BLACK
  6
Continuous
 62
     7
100
AcDbLine
 10
52.5037
 20
-125.032
 30
0.0
 11
52.4166
 21
-124.988
 31
0.0
  0
LINE
  5
103
330
1F
100
AcDbEntity
  8
BLACK
  6
Continuous
 62
     7
100
AcDbLine
 10
52.4166
 20
-124.988
 30
0.0
 11
52.1989
 21
-124.988
 31
0.0
  0
LINE
  5
104
330
1F
100
AcDbEntity
  8
BLACK
  6
Continuous
 62
     7
100
AcDbLine
 10
52.1989
 20
-124.988
 30
0.0
 11
52.1118
 21
-125.032
 31
0.0
  0
LINE
  5
105
330
1F
100
AcDbEntity
  8
BLACK
  6
Continuous
 62
     7
100
AcDbLine
 10
52.1118
 20
-125.032
 30
0.0
 11
52.0683
 21
-125.075
 31
0.0
  0
LINE
  5
106
330
1F
100
AcDbEntity
  8
BLACK
  6
Continuous
 62
     7
100
AcDbLine
 10
52.0683
 20
-125.075
 30
0.0
 11
52.0247
 21
-125.162
 31
0.0
  0
LINE
  5
107
330
1F
100
AcDbEntity
  8
BLACK
  6
Continuous
 62
     7
100
AcDbLine
 10
52.0247
 20
-125.162
 30
0.0
 11
52.0247
 21
-125.25
 31
0.0
  0
LINE
  5
108
330
1F
100
AcDbEntity
  8
BLACK
  6
Continuous
 62
     7
100
AcDbLine
 10
52.0247
 20
-125.25
 30
0.0
 11
52.0683
 21
-125.38
 31
0.0
  0
LINE
  5
109
330
1F
100
AcDbEntity
  8
BLACK
  6
Continuous
 62
     7
100
AcDbLine
 10
52.0683
 20
-125.38
 30
0.0
 11
52.5908
 21
-125.903
 31
0.0
  0
LINE
  5
10A
330
1F
100
AcDbEntity
  8
BLACK
  6
Continuous
 62
     7
100
AcDbLine
 10
52.5908
 20
-125.903
 30
0.0
 11
52.0247
 21
-125.903
 31
0.0
  0
POINT
  5
10C
330
1F
100
AcDbEntity
  8
Default
  6
Continuous
 62
     1
100
AcDbPoint
 10
50.0
 20
-150.0
 30
0.0
  0
POINT
  5
10D
330
1F
100
AcDbEntity
  8
Default
  6
Continuous
 62
     1
100
AcDbPoint
 10
50.0
 20
-150.0
 30
0.0
  0
LINE
  5
10E
330
1F
100
AcDbEntity
  8
BLACK
  6
Continuous
 62
     7
100
AcDbLine
 10
44.92
 20
-150.0
 30
0.0
 11
46.19
 21
-150.0
 31
0.0
  0
LINE
  5
10F
330
1F
100
AcDbEntity
  8
BLACK
  6
Continuous
 62
     7
100
AcDbLine
 10
53.81
 20
-150.0
 30
0.0
 11
55.08
 21
-150.0
 31
0.0
  0
LINE
  5
110
330
1F
100
AcDbEntity
  8
BLACK
  6
Continuous
 62
     7
100
AcDbLine
 10
48.984
 20
-150.0
 30
0.0
 11
48.603
 21
-150.0
 31
0.0
  0
LINE
  5
111
330
1F
100
AcDbEntity
  8
BLACK
  6
Continuous
 62
     7
100
AcDbLine
 10
51.016
 20
-150.0
 30
0.0
 11
51.397
 21
-150.0
 31
0.0
  0
LINE
  5
112
330
1F
100
AcDbEntity
  8
BLACK
  6
Continuous
 62
     7
100
AcDbLine
 10
48.984
 20
-143.65
 30
0.0
 11
48.603
 21
-143.65
 31
0.0
  0
LINE
  5
113
330
1F
100
AcDbEntity
  8
BLACK
  6
Continuous
 62
     7
100
AcDbLine
 10
51.016
 20
-143.65
 30
0.0
 11
51.397
 21
-143.65
 31
0.0
  0
LINE
  5
114
330
1F
100
AcDbEntity
  8
BLACK
  6
Continuous
 62
     7
100
AcDbLine
 10
48.984
 20
-156.35
 30
0.0
 11
48.603
 21
-156.35
 31
0.0
  0
LINE
  5
115
330
1F
100
AcDbEntity
  8
BLACK
  6
Continuous
 62
     7
100
AcDbLine
 10
51.016
 20
-156.35
 30
0.0
 11
51.397
 21
-156.35
 31
0.0
  0
LINE
  5
116
330
1F
100
AcDbEntity
  8
BLACK
  6
Continuous
 62
     7
100
AcDbLine
 10
53.81
 20
-162.7
 30
0.0
 11
55.08
 21
-162.7
 31
0.0
  0
LINE
  5
117
330
1F
100
AcDbEntity
  8
BLACK
  6
Continuous
 62
     7
100
AcDbLine
 10
44.92
 20
-162.7
 30
0.0
 11
46.19
 21
-162.7
 31
0.0
  0
LINE
  5
118
330
1F
100
AcDbEntity
  8
BLACK
  6
Continuous
 62
     7
100
AcDbLine
 10
53.81
 20
-137.3
 30
0.0
 11
55.08
 21
-137.3
 31
0.0
  0
LINE
  5
119
330
1F
100
AcDbEntity
  8
BLACK
  6
Continuous
 62
     7
100
AcDbLine
 10
44.92
 20
-137.3
 30
0.0
 11
46.19
 21
-137.3
 31
0.0
  0
LINE
  5
11A
330
1F
100
AcDbEntity
  8
BLACK
  6
Continuous
 62
     7
100
AcDbLine
 10
50.8817
 20
-163.139
 30
0.0
 11
50.8817
 21
-163.749
 31
0.0
  0
LINE
  5
11B
330
1F
100
AcDbEntity
  8
BLACK
  6
Continuous
 62
     7
100
AcDbLine
 10
50.664
 20
-162.791
 30
0.0
 11
50.4463
 21
-163.444
 31
0.0
  0
LINE
  5
11C
330
1F
100
AcDbEntity
  8
BLACK
  6
Continuous
 62
     7
100
AcDbLine
 10
50.4463
 20
-163.444
 30
0.0
 11
51.0124
 21
-163.444
 31
0.0
  0
LINE
  5
11D
330
1F
100
AcDbEntity
  8
BLACK
  6
Continuous
 62
     7
100
AcDbLine
 10
51.5349
 20
-162.834
 30
0.0
 11
51.622
 21
-162.834
 31
0.0
  0
LINE
  5
11E
330
1F
100
AcDbEntity
  8
BLACK
  6
Continuous
 62
     7
100
AcDbLine
 10
51.622
 20
-162.834
 30
0.0
 11
51.7091
 21
-162.878
 31
0.0
  0
LINE
  5
11F
330
1F
100
AcDbEntity
  8
BLACK
  6
Continuous
 62
     7
100
AcDbLine
 10
51.7091
 20
-162.878
 30
0.0
 11
51.7526
 21
-162.921
 31
0.0
  0
LINE
  5
120
330
1F
100
AcDbEntity
  8
BLACK
  6
Continuous
 62
     7
100
AcDbLine
 10
51.7526
 20
-162.921
 30
0.0
 11
51.7961
 21
-163.008
 31
0.0
  0
LINE
  5
121
330
1F
100
AcDbEntity
  8
BLACK
  6
Continuous
 62
     7
100
AcDbLine
 10
51.7961
 20
-163.008
 30
0.0
 11
51.8397
 21
-163.183
 31
0.0
  0
LINE
  5
122
330
1F
100
AcDbEntity
  8
BLACK
  6
Continuous
 62
     7
100
AcDbLine
 10
51.8397
 20
-163.183
 30
0.0
 11
51.8397
 21
-163.4
 31
0.0
  0
LINE
  5
123
330
1F
100
AcDbEntity
  8
BLACK
  6
Continuous
 62
     7
100
AcDbLine
 10
51.8397
 20
-163.4
 30
0.0
 11
51.7961
 21
-163.574
 31
0.0
  0
LINE
  5
124
330
1F
100
AcDbEntity
  8
BLACK
  6
Continuous
 62
     7
100
AcDbLine
 10
51.7961
 20
-163.574
 30
0.0
 11
51.7526
 21
-163.662
 31
0.0
  0
LINE
  5
125
330
1F
100
AcDbEntity
  8
BLACK
  6
Continuous
 62
     7
100
AcDbLine
 10
51.7526
 20
-163.662
 30
0.0
 11
51.7091
 21
-163.705
 31
0.0
  0
LINE
  5
126
330
1F
100
AcDbEntity
  8
BLACK
  6
Continuous
 62
     7
100
AcDbLine
 10
51.7091
 20
-163.705
 30
0.0
 11
51.622
 21
-163.749
 31
0.0
  0
LINE
  5
127
330
1F
100
AcDbEntity
  8
BLACK
  6
Continuous
 62
     7
100
AcDbLine
 10
51.622
 20
-163.749
 30
0.0
 11
51.5349
 21
-163.749
 31
0.0
  0
LINE
  5
128
330
1F
100
AcDbEntity
  8
BLACK
  6
Continuous
 62
     7
100
AcDbLine
 10
51.5349
 20
-163.749
 30
0.0
 11
51.4478
 21
-163.705
 31
0.0
  0
LINE
  5
129
330
1F
100
AcDbEntity
  8
BLACK
  6
Continuous
 62
     7
100
AcDbLine
 10
51.4478
 20
-163.705
 30
0.0
 11
51.4043
 21
-163.662
 31
0.0
  0
LINE
  5
12A
330
1F
100
AcDbEntity
  8
BLACK
  6
Continuous
 62
     7
100
AcDbLine
 10
51.4043
 20
-163.662
 30
0.0
 11
51.3607
 21
-163.574
 31
0.0
  0
LINE
  5
12B
330
1F
100
AcDbEntity
  8
BLACK
  6
Continuous
 62
     7
100
AcDbLine
 10
51.3607
 20
-163.574
 30
0.0
 11
51.3172
 21
-163.4
 31
0.0
  0
LINE
  5
12C
330
1F
100
AcDbEntity
  8
BLACK
  6
Continuous
 62
     7
100
AcDbLine
 10
51.3172
 20
-163.4
 30
0.0
 11
51.3172
 21
-163.183
 31
0.0
  0
LINE
  5
12D
330
1F
100
AcDbEntity
  8
BLACK
  6
Continuous
 62
     7
100
AcDbLine
 10
51.3172
 20
-163.183
 30
0.0
 11
51.3607
 21
-163.008
 31
0.0
  0
LINE
  5
12E
330
1F
100
AcDbEntity
  8
BLACK
  6
Continuous
 62
     7
100
AcDbLine
 10
51.3607
 20
-163.008
 30
0.0
 11
51.4043
 21
-162.921
 31
0.0
  0
LINE
  5
12F
330
1F
100
AcDbEntity
  8
BLACK
  6
Continuous
 62
     7
100
AcDbLine
 10
51.4043
 20
-162.921
 30
0.0
 11
51.4478
 21
-162.878
 31
0.0
  0
LINE
  5
130
330
1F
100
AcDbEntity
  8
BLACK
  6
Continuous
 62
     7
100
AcDbLine
 10
51.4478
 20
-162.878
 30
0.0
 11
51.5349
 21
-162.834
 31
0.0
  0
LINE
  5
131
330
1F
100
AcDbEntity
  8
BLACK
  6
Continuous
 62
     7
100
AcDbLine
 10
48.2438
 20
-162.834
 30
0.0
 11
48.8098
 21
-162.834
 31
0.0
  0
LINE
  5
132
330
1F
100
AcDbEntity
  8
BLACK
  6
Continuous
 62
     7
100
AcDbLine
 10
48.8098
 20
-162.834
 30
0.0
 11
48.505
 21
-163.183
 31
0.0
  0
LINE
  5
133
330
1F
100
AcDbEntity
  8
BLACK
  6
Continuous
 62
     7
100
AcDbLine
 10
48.505
 20
-163.183
 30
0.0
 11
48.6357
 21
-163.183
 31
0.0
  0
LINE
  5
134
330
1F
100
AcDbEntity
  8
BLACK
  6
Continuous
 62
     7
100
AcDbLine
 10
48.6357
 20
-163.183
 30
0.0
 11
48.7227
 21
-163.226
 31
0.0
  0
LINE
  5
135
330
1F
100
AcDbEntity
  8
BLACK
  6
Continuous
 62
     7
100
AcDbLine
 10
48.7227
 20
-163.226
 30
0.0
 11
48.7663
 21
-163.27
 31
0.0
  0
LINE
  5
136
330
1F
100
AcDbEntity
  8
BLACK
  6
Continuous
 62
     7
100
AcDbLine
 10
48.7663
 20
-163.27
 30
0.0
 11
48.8098
 21
-163.357
 31
0.0
  0
LINE
  5
137
330
1F
100
AcDbEntity
  8
BLACK
  6
Continuous
 62
     7
100
AcDbLine
 10
48.8098
 20
-163.357
 30
0.0
 11
48.8098
 21
-163.574
 31
0.0
  0
LINE
  5
138
330
1F
100
AcDbEntity
  8
BLACK
  6
Continuous
 62
     7
100
AcDbLine
 10
48.8098
 20
-163.574
 30
0.0
 11
48.7663
 21
-163.662
 31
0.0
  0
LINE
  5
139
330
1F
100
AcDbEntity
  8
BLACK
  6
Continuous
 62
     7
100
AcDbLine
 10
48.7663
 20
-163.662
 30
0.0
 11
48.7227
 21
-163.705
 31
0.0
  0
LINE
  5
13A
330
1F
100
AcDbEntity
  8
BLACK
  6
Continuous
 62
     7
100
AcDbLine
 10
48.7227
 20
-163.705
 30
0.0
 11
48.6357
 21
-163.749
 31
0.0
  0
LINE
  5
13B
330
1F
100
AcDbEntity
  8
BLACK
  6
Continuous
 62
     7
100
AcDbLine
 10
48.6357
 20
-163.749
 30
0.0
 11
48.3744
 21
-163.749
 31
0.0
  0
LINE
  5
13C
330
1F
100
AcDbEntity
  8
BLACK
  6
Continuous
 62
     7
100
AcDbLine
 10
48.3744
 20
-163.749
 30
0.0
 11
48.2873
 21
-163.705
 31
0.0
  0
LINE
  5
13D
330
1F
100
AcDbEntity
  8
BLACK
  6
Continuous
 62
     7
100
AcDbLine
 10
48.2873
 20
-163.705
 30
0.0
 11
48.2438
 21
-163.662
 31
0.0
  0
LINE
  5
13E
330
1F
100
AcDbEntity
  8
BLACK
  6
Continuous
 62
     7
100
AcDbLine
 10
49.2453
 20
-163.749
 30
0.0
 11
49.4194
 21
-163.749
 31
0.0
  0
LINE
  5
13F
330
1F
100
AcDbEntity
  8
BLACK
  6
Continuous
 62
     7
100
AcDbLine
 10
49.4194
 20
-163.749
 30
0.0
 11
49.5065
 21
-163.705
 31
0.0
  0
LINE
  5
140
330
1F
100
AcDbEntity
  8
BLACK
  6
Continuous
 62
     7
100
AcDbLine
 10
49.5065
 20
-163.705
 30
0.0
 11
49.5501
 21
-163.662
 31
0.0
  0
LINE
  5
141
330
1F
100
AcDbEntity
  8
BLACK
  6
Continuous
 62
     7
100
AcDbLine
 10
49.5501
 20
-163.662
 30
0.0
 11
49.6371
 21
-163.531
 31
0.0
  0
LINE
  5
142
330
1F
100
AcDbEntity
  8
BLACK
  6
Continuous
 62
     7
100
AcDbLine
 10
49.6371
 20
-163.531
 30
0.0
 11
49.6807
 21
-163.357
 31
0.0
  0
LINE
  5
143
330
1F
100
AcDbEntity
  8
BLACK
  6
Continuous
 62
     7
100
AcDbLine
 10
49.6807
 20
-163.357
 30
0.0
 11
49.6807
 21
-163.008
 31
0.0
  0
LINE
  5
144
330
1F
100
AcDbEntity
  8
BLACK
  6
Continuous
 62
     7
100
AcDbLine
 10
49.6807
 20
-163.008
 30
0.0
 11
49.6371
 21
-162.921
 31
0.0
  0
LINE
  5
145
330
1F
100
AcDbEntity
  8
BLACK
  6
Continuous
 62
     7
100
AcDbLine
 10
49.6371
 20
-162.921
 30
0.0
 11
49.5936
 21
-162.878
 31
0.0
  0
LINE
  5
146
330
1F
100
AcDbEntity
  8
BLACK
  6
Continuous
 62
     7
100
AcDbLine
 10
49.5936
 20
-162.878
 30
0.0
 11
49.5065
 21
-162.834
 31
0.0
  0
LINE
  5
147
330
1F
100
AcDbEntity
  8
BLACK
  6
Continuous
 62
     7
100
AcDbLine
 10
49.5065
 20
-162.834
 30
0.0
 11
49.3323
 21
-162.834
 31
0.0
  0
LINE
  5
148
330
1F
100
AcDbEntity
  8
BLACK
  6
Continuous
 62
     7
100
AcDbLine
 10
49.3323
 20
-162.834
 30
0.0
 11
49.2453
 21
-162.878
 31
0.0
  0
LINE
  5
149
330
1F
100
AcDbEntity
  8
BLACK
  6
Continuous
 62
     7
100
AcDbLine
 10
49.2453
 20
-162.878
 30
0.0
 11
49.2017
 21
-162.921
 31
0.0
  0
LINE
  5
14A
330
1F
100
AcDbEntity
  8
BLACK
  6
Continuous
 62
     7
100
AcDbLine
 10
49.2017
 20
-162.921
 30
0.0
 11
49.1582
 21
-163.008
 31
0.0
  0
LINE
  5
14B
330
1F
100
AcDbEntity
  8
BLACK
  6
Continuous
 62
     7
100
AcDbLine
 10
49.1582
 20
-163.008
 30
0.0
 11
49.1582
 21
-163.226
 31
0.0
  0
LINE
  5
14C
330
1F
100
AcDbEntity
  8
BLACK
  6
Continuous
 62
     7
100
AcDbLine
 10
49.1582
 20
-163.226
 30
0.0
 11
49.2017
 21
-163.313
 31
0.0
  0
LINE
  5
14D
330
1F
100
AcDbEntity
  8
BLACK
  6
Continuous
 62
     7
100
AcDbLine
 10
49.2017
 20
-163.313
 30
0.0
 11
49.2453
 21
-163.357
 31
0.0
  0
LINE
  5
14E
330
1F
100
AcDbEntity
  8
BLACK
  6
Continuous
 62
     7
100
AcDbLine
 10
49.2453
 20
-163.357
 30
0.0
 11
49.3323
 21
-163.4
 31
0.0
  0
LINE
  5
14F
330
1F
100
AcDbEntity
  8
BLACK
  6
Continuous
 62
     7
100
AcDbLine
 10
49.3323
 20
-163.4
 30
0.0
 11
49.5065
 21
-163.4
 31
0.0
  0
LINE
  5
150
330
1F
100
AcDbEntity
  8
BLACK
  6
Continuous
 62
     7
100
AcDbLine
 10
49.5065
 20
-163.4
 30
0.0
 11
49.5936
 21
-163.357
 31
0.0
  0
LINE
  5
151
330
1F
100
AcDbEntity
  8
BLACK
  6
Continuous
 62
     7
100
AcDbLine
 10
49.5936
 20
-163.357
 30
0.0
 11
49.6371
 21
-163.313
 31
0.0
  0
LINE
  5
152
330
1F
100
AcDbEntity
  8
BLACK
  6
Continuous
 62
     7
100
AcDbLine
 10
49.6371
 20
-163.313
 30
0.0
 11
49.6807
 21
-163.226
 31
0.0
  0
LINE
  5
153
330
1F
100
AcDbEntity
  8
BLACK
  6
Continuous
 62
     7
100
AcDbLine
 10
50.6277
 20
-136.251
 30
0.0
 11
50.6713
 21
-136.208
 31
0.0
  0
LINE
  5
154
330
1F
100
AcDbEntity
  8
BLACK
  6
Continuous
 62
     7
100
AcDbLine
 10
50.6713
 20
-136.208
 30
0.0
 11
50.7584
 21
-136.164
 31
0.0
  0
LINE
  5
155
330
1F
100
AcDbEntity
  8
BLACK
  6
Continuous
 62
     7
100
AcDbLine
 10
50.7584
 20
-136.164
 30
0.0
 11
50.9761
 21
-136.164
 31
0.0
  0
LINE
  5
156
330
1F
100
AcDbEntity
  8
BLACK
  6
Continuous
 62
     7
100
AcDbLine
 10
50.9761
 20
-136.164
 30
0.0
 11
51.0632
 21
-136.208
 31
0.0
  0
LINE
  5
157
330
1F
100
AcDbEntity
  8
BLACK
  6
Continuous
 62
     7
100
AcDbLine
 10
51.0632
 20
-136.208
 30
0.0
 11
51.1067
 21
-136.251
 31
0.0
  0
LINE
  5
158
330
1F
100
AcDbEntity
  8
BLACK
  6
Continuous
 62
     7
100
AcDbLine
 10
51.1067
 20
-136.251
 30
0.0
 11
51.1503
 21
-136.338
 31
0.0
  0
LINE
  5
159
330
1F
100
AcDbEntity
  8
BLACK
  6
Continuous
 62
     7
100
AcDbLine
 10
51.1503
 20
-136.338
 30
0.0
 11
51.1503
 21
-136.426
 31
0.0
  0
LINE
  5
15A
330
1F
100
AcDbEntity
  8
BLACK
  6
Continuous
 62
     7
100
AcDbLine
 10
51.1503
 20
-136.426
 30
0.0
 11
51.1067
 21
-136.556
 31
0.0
  0
LINE
  5
15B
330
1F
100
AcDbEntity
  8
BLACK
  6
Continuous
 62
     7
100
AcDbLine
 10
51.1067
 20
-136.556
 30
0.0
 11
50.5842
 21
-137.079
 31
0.0
  0
LINE
  5
15C
330
1F
100
AcDbEntity
  8
BLACK
  6
Continuous
 62
     7
100
AcDbLine
 10
50.5842
 20
-137.079
 30
0.0
 11
51.1503
 21
-137.079
 31
0.0
  0
LINE
  5
15D
330
1F
100
AcDbEntity
  8
BLACK
  6
Continuous
 62
     7
100
AcDbLine
 10
49.2453
 20
-137.079
 30
0.0
 11
48.7227
 21
-137.079
 31
0.0
  0
LINE
  5
15E
330
1F
100
AcDbEntity
  8
BLACK
  6
Continuous
 62
     7
100
AcDbLine
 10
48.984
 20
-137.079
 30
0.0
 11
48.984
 21
-136.164
 31
0.0
  0
LINE
  5
15F
330
1F
100
AcDbEntity
  8
BLACK
  6
Continuous
 62
     7
100
AcDbLine
 10
48.984
 20
-136.164
 30
0.0
 11
48.8969
 21
-136.295
 31
0.0
  0
LINE
  5
160
330
1F
100
AcDbEntity
  8
BLACK
  6
Continuous
 62
     7
100
AcDbLine
 10
48.8969
 20
-136.295
 30
0.0
 11
48.8098
 21
-136.382
 31
0.0
  0
LINE
  5
161
330
1F
100
AcDbEntity
  8
BLACK
  6
Continuous
 62
     7
100
AcDbLine
 10
48.8098
 20
-136.382
 30
0.0
 11
48.7227
 21
-136.426
 31
0.0
  0
LINE
  5
162
330
1F
100
AcDbEntity
  8
BLACK
  6
Continuous
 62
     7
100
AcDbLine
 10
47.2913
 20
-174.074
 30
0.0
 11
47.8573
 21
-174.074
 31
0.0
  0
LINE
  5
163
330
1F
100
AcDbEntity
  8
BLACK
  6
Continuous
 62
     7
100
AcDbLine
 10
47.8573
 20
-174.074
 30
0.0
 11
47.5525
 21
-174.422
 31
0.0
  0
LINE
  5
164
330
1F
100
AcDbEntity
  8
BLACK
  6
Continuous
 62
     7
100
AcDbLine
 10
47.5525
 20
-174.422
 30
0.0
 11
47.6832
 21
-174.422
 31
0.0
  0
LINE
  5
165
330
1F
100
AcDbEntity
  8
BLACK
  6
Continuous
 62
     7
100
AcDbLine
 10
47.6832
 20
-174.422
 30
0.0
 11
47.7702
 21
-174.466
 31
0.0
  0
LINE
  5
166
330
1F
100
AcDbEntity
  8
BLACK
  6
Continuous
 62
     7
100
AcDbLine
 10
47.7702
 20
-174.466
 30
0.0
 11
47.8138
 21
-174.509
 31
0.0
  0
LINE
  5
167
330
1F
100
AcDbEntity
  8
BLACK
  6
Continuous
 62
     7
100
AcDbLine
 10
47.8138
 20
-174.509
 30
0.0
 11
47.8573
 21
-174.596
 31
0.0
  0
LINE
  5
168
330
1F
100
AcDbEntity
  8
BLACK
  6
Continuous
 62
     7
100
AcDbLine
 10
47.8573
 20
-174.596
 30
0.0
 11
47.8573
 21
-174.814
 31
0.0
  0
LINE
  5
169
330
1F
100
AcDbEntity
  8
BLACK
  6
Continuous
 62
     7
100
AcDbLine
 10
47.8573
 20
-174.814
 30
0.0
 11
47.8138
 21
-174.901
 31
0.0
  0
LINE
  5
16A
330
1F
100
AcDbEntity
  8
BLACK
  6
Continuous
 62
     7
100
AcDbLine
 10
47.8138
 20
-174.901
 30
0.0
 11
47.7702
 21
-174.945
 31
0.0
  0
LINE
  5
16B
330
1F
100
AcDbEntity
  8
BLACK
  6
Continuous
 62
     7
100
AcDbLine
 10
47.7702
 20
-174.945
 30
0.0
 11
47.6832
 21
-174.988
 31
0.0
  0
LINE
  5
16C
330
1F
100
AcDbEntity
  8
BLACK
  6
Continuous
 62
     7
100
AcDbLine
 10
47.6832
 20
-174.988
 30
0.0
 11
47.4219
 21
-174.988
 31
0.0
  0
LINE
  5
16D
330
1F
100
AcDbEntity
  8
BLACK
  6
Continuous
 62
     7
100
AcDbLine
 10
47.4219
 20
-174.988
 30
0.0
 11
47.3348
 21
-174.945
 31
0.0
  0
LINE
  5
16E
330
1F
100
AcDbEntity
  8
BLACK
  6
Continuous
 62
     7
100
AcDbLine
 10
47.3348
 20
-174.945
 30
0.0
 11
47.2913
 21
-174.901
 31
0.0
  0
LINE
  5
16F
330
1F
100
AcDbEntity
  8
BLACK
  6
Continuous
 62
     7
100
AcDbLine
 10
48.2928
 20
-174.988
 30
0.0
 11
48.4669
 21
-174.988
 31
0.0
  0
LINE
  5
170
330
1F
100
AcDbEntity
  8
BLACK
  6
Continuous
 62
     7
100
AcDbLine
 10
48.4669
 20
-174.988
 30
0.0
 11
48.554
 21
-174.945
 31
0.0
  0
LINE
  5
171
330
1F
100
AcDbEntity
  8
BLACK
  6
Continuous
 62
     7
100
AcDbLine
 10
48.554
 20
-174.945
 30
0.0
 11
48.5976
 21
-174.901
 31
0.0
  0
LINE
  5
172
330
1F
100
AcDbEntity
  8
BLACK
  6
Continuous
 62
     7
100
AcDbLine
 10
48.5976
 20
-174.901
 30
0.0
 11
48.6846
 21
-174.77
 31
0.0
  0
LINE
  5
173
330
1F
100
AcDbEntity
  8
BLACK
  6
Continuous
 62
     7
100
AcDbLine
 10
48.6846
 20
-174.77
 30
0.0
 11
48.7282
 21
-174.596
 31
0.0
  0
LINE
  5
174
330
1F
100
AcDbEntity
  8
BLACK
  6
Continuous
 62
     7
100
AcDbLine
 10
48.7282
 20
-174.596
 30
0.0
 11
48.7282
 21
-174.248
 31
0.0
  0
LINE
  5
175
330
1F
100
AcDbEntity
  8
BLACK
  6
Continuous
 62
     7
100
AcDbLine
 10
48.7282
 20
-174.248
 30
0.0
 11
48.6846
 21
-174.161
 31
0.0
  0
LINE
  5
176
330
1F
100
AcDbEntity
  8
BLACK
  6
Continuous
 62
     7
100
AcDbLine
 10
48.6846
 20
-174.161
 30
0.0
 11
48.6411
 21
-174.117
 31
0.0
  0
LINE
  5
177
330
1F
100
AcDbEntity
  8
BLACK
  6
Continuous
 62
     7
100
AcDbLine
 10
48.6411
 20
-174.117
 30
0.0
 11
48.554
 21
-174.074
 31
0.0
  0
LINE
  5
178
330
1F
100
AcDbEntity
  8
BLACK
  6
Continuous
 62
     7
100
AcDbLine
 10
48.554
 20
-174.074
 30
0.0
 11
48.3798
 21
-174.074
 31
0.0
  0
LINE
  5
179
330
1F
100
AcDbEntity
  8
BLACK
  6
Continuous
 62
     7
100
AcDbLine
 10
48.3798
 20
-174.074
 30
0.0
 11
48.2928
 21
-174.117
 31
0.0
  0
LINE
  5
17A
330
1F
100
AcDbEntity
  8
BLACK
  6
Continuous
 62
     7
100
AcDbLine
 10
48.2928
 20
-174.117
 30
0.0
 11
48.2492
 21
-174.161
 31
0.0
  0
LINE
  5
17B
330
1F
100
AcDbEntity
  8
BLACK
  6
Continuous
 62
     7
100
AcDbLine
 10
48.2492
 20
-174.161
 30
0.0
 11
48.2057
 21
-174.248
 31
0.0
  0
LINE
  5
17C
330
1F
100
AcDbEntity
  8
BLACK
  6
Continuous
 62
     7
100
AcDbLine
 10
48.2057
 20
-174.248
 30
0.0
 11
48.2057
 21
-174.466
 31
0.0
  0
LINE
  5
17D
330
1F
100
AcDbEntity
  8
BLACK
  6
Continuous
 62
     7
100
AcDbLine
 10
48.2057
 20
-174.466
 30
0.0
 11
48.2492
 21
-174.553
 31
0.0
  0
LINE
  5
17E
330
1F
100
AcDbEntity
  8
BLACK
  6
Continuous
 62
     7
100
AcDbLine
 10
48.2492
 20
-174.553
 30
0.0
 11
48.2928
 21
-174.596
 31
0.0
  0
LINE
  5
17F
330
1F
100
AcDbEntity
  8
BLACK
  6
Continuous
 62
     7
100
AcDbLine
 10
48.2928
 20
-174.596
 30
0.0
 11
48.3798
 21
-174.64
 31
0.0
  0
LINE
  5
180
330
1F
100
AcDbEntity
  8
BLACK
  6
Continuous
 62
     7
100
AcDbLine
 10
48.3798
 20
-174.64
 30
0.0
 11
48.554
 21
-174.64
 31
0.0
  0
LINE
  5
181
330
1F
100
AcDbEntity
  8
BLACK
  6
Continuous
 62
     7
100
AcDbLine
 10
48.554
 20
-174.64
 30
0.0
 11
48.6411
 21
-174.596
 31
0.0
  0
LINE
  5
182
330
1F
100
AcDbEntity
  8
BLACK
  6
Continuous
 62
     7
100
AcDbLine
 10
48.6411
 20
-174.596
 30
0.0
 11
48.6846
 21
-174.553
 31
0.0
  0
LINE
  5
183
330
1F
100
AcDbEntity
  8
BLACK
  6
Continuous
 62
     7
100
AcDbLine
 10
48.6846
 20
-174.553
 30
0.0
 11
48.7282
 21
-174.466
 31
0.0
  0
LINE
  5
184
330
1F
100
AcDbEntity
  8
BLACK
  6
Continuous
 62
     7
100
AcDbLine
 10
52.0247
 20
-125.075
 30
0.0
 11
52.0683
 21
-125.032
 31
0.0
  0
LINE
  5
185
330
1F
100
AcDbEntity
  8
BLACK
  6
Continuous
 62
     7
100
AcDbLine
 10
52.0683
 20
-125.032
 30
0.0
 11
52.1554
 21
-124.988
 31
0.0
  0
LINE
  5
186
330
1F
100
AcDbEntity
  8
BLACK
  6
Continuous
 62
     7
100
AcDbLine
 10
52.1554
 20
-124.988
 30
0.0
 11
52.3731
 21
-124.988
 31
0.0
  0
LINE
  5
187
330
1F
100
AcDbEntity
  8
BLACK
  6
Continuous
 62
     7
100
AcDbLine
 10
52.3731
 20
-124.988
 30
0.0
 11
52.4602
 21
-125.032
 31
0.0
  0
LINE
  5
188
330
1F
100
AcDbEntity
  8
BLACK
  6
Continuous
 62
     7
100
AcDbLine
 10
52.4602
 20
-125.032
 30
0.0
 11
52.5037
 21
-125.075
 31
0.0
  0
LINE
  5
189
330
1F
100
AcDbEntity
  8
BLACK
  6
Continuous
 62
     7
100
AcDbLine
 10
52.5037
 20
-125.075
 30
0.0
 11
52.5473
 21
-125.162
 31
0.0
  0
LINE
  5
18A
330
1F
100
AcDbEntity
  8
BLACK
  6
Continuous
 62
     7
100
AcDbLine
 10
52.5473
 20
-125.162
 30
0.0
 11
52.5473
 21
-125.25
 31
0.0
  0
LINE
  5
18B
330
1F
100
AcDbEntity
  8
BLACK
  6
Continuous
 62
     7
100
AcDbLine
 10
52.5473
 20
-125.25
 30
0.0
 11
52.5037
 21
-125.38
 31
0.0
  0
LINE
  5
18C
330
1F
100
AcDbEntity
  8
BLACK
  6
Continuous
 62
     7
100
AcDbLine
 10
52.5037
 20
-125.38
 30
0.0
 11
51.9812
 21
-125.903
 31
0.0
  0
LINE
  5
18D
330
1F
100
AcDbEntity
  8
BLACK
  6
Continuous
 62
     7
100
AcDbLine
 10
51.9812
 20
-125.903
 30
0.0
 11
52.5473
 21
-125.903
 31
0.0
  0
LINE
  5
18E
330
1F
100
AcDbEntity
  8
BLACK
  6
Continuous
 62
     7
100
AcDbLine
 10
44.92
 20
-175.4
 30
0.0
 11
44.92
 21
-124.6
 31
0.0
  0
LINE
  5
18F
330
1F
100
AcDbEntity
  8
BLACK
  6
Continuous
 62
     7
100
AcDbLine
 10
55.08
 20
-175.4
 30
0.0
 11
44.92
 21
-175.4
 31
0.0
  0
LINE
  5
190
330
1F
100
AcDbEntity
  8
BLACK
  6
Continuous
 62
     7
100
AcDbLine
 10
55.08
 20
-124.6
 30
0.0
 11
55.08
 21
-175.4
 31
0.0
  0
LINE
  5
191
330
1F
100
AcDbEntity
  8
BLACK
  6
Continuous
 62
     7
100
AcDbLine
 10
44.92
 20
-124.6
 30
0.0
 11
55.08
 21
-124.6
 31
0.0
  0
LINE
  5
192
330
1F
100
AcDbEntity
  8
BLACK
  6
Continuous
 62
     7
100
AcDbLine
 10
48.1023
 20
-125.903
 30
0.0
 11
47.5797
 21
-125.903
 31
0.0
  0
LINE
  5
193
330
1F
100
AcDbEntity
  8
BLACK
  6
Continuous
 62
     7
100
AcDbLine
 10
47.841
 20
-125.903
 30
0.0
 11
47.841
 21
-124.988
 31
0.0
  0
LINE
  5
194
330
1F
100
AcDbEntity
  8
BLACK
  6
Continuous
 62
     7
100
AcDbLine
 10
47.841
 20
-124.988
 30
0.0
 11
47.7539
 21
-125.119
 31
0.0
  0
LINE
  5
195
330
1F
100
AcDbEntity
  8
BLACK
  6
Continuous
 62
     7
100
AcDbLine
 10
47.7539
 20
-125.119
 30
0.0
 11
47.6668
 21
-125.206
 31
0.0
  0
LINE
  5
196
330
1F
100
AcDbEntity
  8
BLACK
  6
Continuous
 62
     7
100
AcDbLine
 10
47.6668
 20
-125.206
 30
0.0
 11
47.5797
 21
-125.25
 31
0.0
  0
LINE
  5
197
330
1F
100
AcDbEntity
  8
BLACK
  6
Continuous
 62
     7
100
AcDbLine
 10
51.7072
 20
-174.379
 30
0.0
 11
51.7072
 21
-174.988
 31
0.0
  0
LINE
  5
198
330
1F
100
AcDbEntity
  8
BLACK
  6
Continuous
 62
     7
100
AcDbLine
 10
51.4895
 20
-174.03
 30
0.0
 11
51.2718
 21
-174.683
 31
0.0
  0
LINE
  5
199
330
1F
100
AcDbEntity
  8
BLACK
  6
Continuous
 62
     7
100
AcDbLine
 10
51.2718
 20
-174.683
 30
0.0
 11
51.8379
 21
-174.683
 31
0.0
  0
LINE
  5
19A
330
1F
100
AcDbEntity
  8
BLACK
  6
Continuous
 62
     7
100
AcDbLine
 10
52.3604
 20
-174.074
 30
0.0
 11
52.4475
 21
-174.074
 31
0.0
  0
LINE
  5
19B
330
1F
100
AcDbEntity
  8
BLACK
  6
Continuous
 62
     7
100
AcDbLine
 10
52.4475
 20
-174.074
 30
0.0
 11
52.5346
 21
-174.117
 31
0.0
  0
LINE
  5
19C
330
1F
100
AcDbEntity
  8
BLACK
  6
Continuous
 62
     7
100
AcDbLine
 10
52.5346
 20
-174.117
 30
0.0
 11
52.5781
 21
-174.161
 31
0.0
  0
LINE
  5
19D
330
1F
100
AcDbEntity
  8
BLACK
  6
Continuous
 62
     7
100
AcDbLine
 10
52.5781
 20
-174.161
 30
0.0
 11
52.6216
 21
-174.248
 31
0.0
  0
LINE
  5
19E
330
1F
100
AcDbEntity
  8
BLACK
  6
Continuous
 62
     7
100
AcDbLine
 10
52.6216
 20
-174.248
 30
0.0
 11
52.6652
 21
-174.422
 31
0.0
  0
LINE
  5
19F
330
1F
100
AcDbEntity
  8
BLACK
  6
Continuous
 62
     7
100
AcDbLine
 10
52.6652
 20
-174.422
 30
0.0
 11
52.6652
 21
-174.64
 31
0.0
  0
LINE
  5
1A0
330
1F
100
AcDbEntity
  8
BLACK
  6
Continuous
 62
     7
100
AcDbLine
 10
52.6652
 20
-174.64
 30
0.0
 11
52.6216
 21
-174.814
 31
0.0
  0
LINE
  5
1A1
330
1F
100
AcDbEntity
  8
BLACK
  6
Continuous
 62
     7
100
AcDbLine
 10
52.6216
 20
-174.814
 30
0.0
 11
52.5781
 21
-174.901
 31
0.0
  0
LINE
  5
1A2
330
1F
100
AcDbEntity
  8
BLACK
  6
Continuous
 62
     7
100
AcDbLine
 10
52.5781
 20
-174.901
 30
0.0
 11
52.5346
 21
-174.945
 31
0.0
  0
LINE
  5
1A3
330
1F
100
AcDbEntity
  8
BLACK
  6
Continuous
 62
     7
100
AcDbLine
 10
52.5346
 20
-174.945
 30
0.0
 11
52.4475
 21
-174.988
 31
0.0
  0
LINE
  5
1A4
330
1F
100
AcDbEntity
  8
BLACK
  6
Continuous
 62
     7
100
AcDbLine
 10
52.4475
 20
-174.988
 30
0.0
 11
52.3604
 21
-174.988
 31
0.0
  0
LINE
  5
1A5
330
1F
100
AcDbEntity
  8
BLACK
  6
Continuous
 62
     7
100
AcDbLine
 10
52.3604
 20
-174.988
 30
0.0
 11
52.2733
 21
-174.945
 31
0.0
  0
LINE
  5
1A6
330
1F
100
AcDbEntity
  8
BLACK
  6
Continuous
 62
     7
100
AcDbLine
 10
52.2733
 20
-174.945
 30
0.0
 11
52.2298
 21
-174.901
 31
0.0
  0
LINE
  5
1A7
330
1F
100
AcDbEntity
  8
BLACK
  6
Continuous
 62
     7
100
AcDbLine
 10
52.2298
 20
-174.901
 30
0.0
 11
52.1862
 21
-174.814
 31
0.0
  0
LINE
  5
1A8
330
1F
100
AcDbEntity
  8
BLACK
  6
Continuous
 62
     7
100
AcDbLine
 10
52.1862
 20
-174.814
 30
0.0
 11
52.1427
 21
-174.64
 31
0.0
  0
LINE
  5
1A9
330
1F
100
AcDbEntity
  8
BLACK
  6
Continuous
 62
     7
100
AcDbLine
 10
52.1427
 20
-174.64
 30
0.0
 11
52.1427
 21
-174.422
 31
0.0
  0
LINE
  5
1AA
330
1F
100
AcDbEntity
  8
BLACK
  6
Continuous
 62
     7
100
AcDbLine
 10
52.1427
 20
-174.422
 30
0.0
 11
52.1862
 21
-174.248
 31
0.0
  0
LINE
  5
1AB
330
1F
100
AcDbEntity
  8
BLACK
  6
Continuous
 62
     7
100
AcDbLine
 10
52.1862
 20
-174.248
 30
0.0
 11
52.2298
 21
-174.161
 31
0.0
  0
LINE
  5
1AC
330
1F
100
AcDbEntity
  8
BLACK
  6
Continuous
 62
     7
100
AcDbLine
 10
52.2298
 20
-174.161
 30
0.0
 11
52.2733
 21
-174.117
 31
0.0
  0
LINE
  5
1AD
330
1F
100
AcDbEntity
  8
BLACK
  6
Continuous
 62
     7
100
AcDbLine
 10
52.2733
 20
-174.117
 30
0.0
 11
52.3604
 21
-174.074
 31
0.0
  0
CIRCLE
  5
1AE
330
1F
100
AcDbEntity
  8
BLACK
  6
Continuous
 62
     7
100
AcDbCircle
 10
53.81
 20
-174.13
 30
0.0
 40
0.5
  0
CIRCLE
  5
1AF
330
1F
100
AcDbEntity
  8
BLACK
  6
Continuous
 62
     7
100
AcDbCircle
 10
46.19
 20
-174.13
 30
0.0
 40
0.5
  0
CIRCLE
  5
1B0
330
1F
100
AcDbEntity
  8
BLACK
  6
Continuous
 62
     7
100
AcDbCircle
 10
53.81
 20
-171.59
 30
0.0
 40
0.5
  0
CIRCLE
  5
1B1
330
1F
100
AcDbEntity
  8
BLACK
  6
Continuous
 62
     7
100
AcDbCircle
 10
46.19
 20
-171.59
 30
0.0
 40
0.5
  0
CIRCLE
  5
1B2
330
1F
100
AcDbEntity
  8
BLACK
  6
Continuous
 62
     7
100
AcDbCircle
 10
53.81
 20
-169.05
 30
0.0
 40
0.5
  0
CIRCLE
  5
1B3
330
1F
100
AcDbEntity
  8
BLACK
  6
Continuous
 62
     7
100
AcDbCircle
 10
46.19
 20
-169.05
 30
0.0
 40
0.5
  0
CIRCLE
  5
1B4
330
1F
100
AcDbEntity
  8
BLACK
  6
Continuous
 62
     7
100
AcDbCircle
 10
53.81
 20
-166.51
 30
0.0
 40
0.5
  0
CIRCLE
  5
1B5
330
1F
100
AcDbEntity
  8
BLACK
  6
Continuous
 62
     7
100
AcDbCircle
 10
46.19
 20
-166.51
 30
0.0
 40
0.5
  0
CIRCLE
  5
1B6
330
1F
100
AcDbEntity
  8
BLACK
  6
Continuous
 62
     7
100
AcDbCircle
 10
53.81
 20
-163.97
 30
0.0
 40
0.5
  0
CIRCLE
  5
1B7
330
1F
100
AcDbEntity
  8
BLACK
  6
Continuous
 62
     7
100
AcDbCircle
 10
46.19
 20
-163.97
 30
0.0
 40
0.5
  0
CIRCLE
  5
1B8
330
1F
100
AcDbEntity
  8
BLACK
  6
Continuous
 62
     7
100
AcDbCircle
 10
53.81
 20
-161.43
 30
0.0
 40
0.5
  0
CIRCLE
  5
1B9
330
1F
100
AcDbEntity
  8
BLACK
  6
Continuous
 62
     7
100
AcDbCircle
 10
46.19
 20
-161.43
 30
0.0
 40
0.5
  0
CIRCLE
  5
1BA
330
1F
100
AcDbEntity
  8
BLACK
  6
Continuous
 62
     7
100
AcDbCircle
 10
53.81
 20
-158.89
 30
0.0
 40
0.5
  0
CIRCLE
  5
1BB
330
1F
100
AcDbEntity
  8
BLACK
  6
Continuous
 62
     7
100
AcDbCircle
 10
46.19
 20
-158.89
 30
0.0
 40
0.5
  0
CIRCLE
  5
1BC
330
1F
100
AcDbEntity
  8
BLACK
  6
Continuous
 62
     7
100
AcDbCircle
 10
53.81
 20
-156.35
 30
0.0
 40
0.5
  0
CIRCLE
  5
1BD
330
1F
100
AcDbEntity
  8
BLACK
  6
Continuous
 62
     7
100
AcDbCircle
 10
46.19
 20
-156.35
 30
0.0
 40
0.5
  0
CIRCLE
  5
1BE
330
1F
100
AcDbEntity
  8
BLACK
  6
Continuous
 62
     7
100
AcDbCircle
 10
53.81
 20
-153.81
 30
0.0
 40
0.5
  0
CIRCLE
  5
1BF
330
1F
100
AcDbEntity
  8
BLACK
  6
Continuous
 62
     7
100
AcDbCircle
 10
46.19
 20
-153.81
 30
0.0
 40
0.5
  0
CIRCLE
  5
1C0
330
1F
100
AcDbEntity
  8
BLACK
  6
Continuous
 62
     7
100
AcDbCircle
 10
53.81
 20
-151.27
 30
0.0
 40
0.5
  0
CIRCLE
  5
1C1
330
1F
100
AcDbEntity
  8
BLACK
  6
Continuous
 62
     7
100
AcDbCircle
 10
46.19
 20
-151.27
 30
0.0
 40
0.5
  0
CIRCLE
  5
1C2
330
1F
100
AcDbEntity
  8
BLACK
  6
Continuous
 62
     7
100
AcDbCircle
 10
53.81
 20
-148.73
 30
0.0
 40
0.5
  0
CIRCLE
  5
1C3
330
1F
100
AcDbEntity
  8
BLACK
  6
Continuous
 62
     7
100
AcDbCircle
 10
46.19
 20
-148.73
 30
0.0
 40
0.5
  0
CIRCLE
  5
1C4
330
1F
100
AcDbEntity
  8
BLACK
  6
Continuous
 62
     7
100
AcDbCircle
 10
53.81
 20
-146.19
 30
0.0
 40
0.5
  0
CIRCLE
  5
1C5
330
1F
100
AcDbEntity
  8
BLACK
  6
Continuous
 62
     7
100
AcDbCircle
 10
46.19
 20
-146.19
 30
0.0
 40
0.5
  0
CIRCLE
  5
1C6
330
1F
100
AcDbEntity
  8
BLACK
  6
Continuous
 62
     7
100
AcDbCircle
 10
53.81
 20
-143.65
 30
0.0
 40
0.5
  0
CIRCLE
  5
1C7
330
1F
100
AcDbEntity
  8
BLACK
  6
Continuous
 62
     7
100
AcDbCircle
 10
46.19
 20
-143.65
 30
0.0
 40
0.5
  0
CIRCLE
  5
1C8
330
1F
100
AcDbEntity
  8
BLACK
  6
Continuous
 62
     7
100
AcDbCircle
 10
53.81
 20
-141.11
 30
0.0
 40
0.5
  0
CIRCLE
  5
1C9
330
1F
100
AcDbEntity
  8
BLACK
  6
Continuous
 62
     7
100
AcDbCircle
 10
46.19
 20
-141.11
 30
0.0
 40
0.5
  0
CIRCLE
  5
1CA
330
1F
100
AcDbEntity
  8
BLACK
  6
Continuous
 62
     7
100
AcDbCircle
 10
53.81
 20
-138.57
 30
0.0
 40
0.5
  0
CIRCLE
  5
1CB
330
1F
100
AcDbEntity
  8
BLACK
  6
Continuous
 62
     7
100
AcDbCircle
 10
46.19
 20
-138.57
 30
0.0
 40
0.5
  0
CIRCLE
  5
1CC
330
1F
100
AcDbEntity
  8
BLACK
  6
Continuous
 62
     7
100
AcDbCircle
 10
53.81
 20
-136.03
 30
0.0
 40
0.5
  0
CIRCLE
  5
1CD
330
1F
100
AcDbEntity
  8
BLACK
  6
Continuous
 62
     7
100
AcDbCircle
 10
46.19
 20
-136.03
 30
0.0
 40
0.5
  0
CIRCLE
  5
1CE
330
1F
100
AcDbEntity
  8
BLACK
  6
Continuous
 62
     7
100
AcDbCircle
 10
53.81
 20
-133.49
 30
0.0
 40
0.5
  0
CIRCLE
  5
1CF
330
1F
100
AcDbEntity
  8
BLACK
  6
Continuous
 62
     7
100
AcDbCircle
 10
46.19
 20
-133.49
 30
0.0
 40
0.5
  0
CIRCLE
  5
1D0
330
1F
100
AcDbEntity
  8
BLACK
  6
Continuous
 62
     7
100
AcDbCircle
 10
53.81
 20
-130.95
 30
0.0
 40
0.5
  0
CIRCLE
  5
1D1
330
1F
100
AcDbEntity
  8
BLACK
  6
Continuous
 62
     7
100
AcDbCircle
 10
46.19
 20
-130.95
 30
0.0
 40
0.5
  0
CIRCLE
  5
1D2
330
1F
100
AcDbEntity
  8
BLACK
  6
Continuous
 62
     7
100
AcDbCircle
 10
53.81
 20
-128.41
 30
0.0
 40
0.5
  0
CIRCLE
  5
1D3
330
1F
100
AcDbEntity
  8
BLACK
  6
Continuous
 62
     7
100
AcDbCircle
 10
46.19
 20
-128.41
 30
0.0
 40
0.5
  0
CIRCLE
  5
1D4
330
1F
100
AcDbEntity
  8
BLACK
  6
Continuous
 62
     7
100
AcDbCircle
 10
53.81
 20
-125.87
 30
0.0
 40
0.5
  0
CIRCLE
  5
1D5
330
1F
100
AcDbEntity
  8
BLACK
  6
Continuous
 62
     7
100
AcDbCircle
 10
46.19
 20
-125.87
 30
0.0
 40
0.5
  0
CIRCLE
  5
1D6
330
1F
100
AcDbEntity
  8
BLACK
  6
Continuous
 62
     7
100
AcDbCircle
 10
50.0
 20
-127.5
 30
0.0
 40
1.600000000000001
  0
CIRCLE
  5
1D7
330
1F
100
AcDbEntity
  8
BLACK
  6
Continuous
 62
     7
100
AcDbCircle
 10
50.0
 20
-172.5
 30
0.0
 40
1.600000000000001
  0
CIRCLE
  5
1D8
330
1F
100
AcDbEntity
  8
BLACK
  6
Continuous
 62
     7
100
AcDbCircle
 10
50.635
 20
-162.065
 30
0.0
 40
0.3250000000000028
  0
CIRCLE
  5
1D9
330
1F
100
AcDbEntity
  8
BLACK
  6
Continuous
 62
     7
100
AcDbCircle
 10
49.365
 20
-162.065
 30
0.0
 40
0.3250000000000028
  0
CIRCLE
  5
1DA
330
1F
100
AcDbEntity
  8
BLACK
  6
Continuous
 62
     7
100
AcDbCircle
 10
50.635
 20
-160.795
 30
0.0
 40
0.3250000000000028
  0
CIRCLE
  5
1DB
330
1F
100
AcDbEntity
  8
BLACK
  6
Continuous
 62
     7
100
AcDbCircle
 10
49.365
 20
-160.795
 30
0.0
 40
0.3250000000000028
  0
CIRCLE
  5
1DC
330
1F
100
AcDbEntity
  8
BLACK
  6
Continuous
 62
     7
100
AcDbCircle
 10
50.635
 20
-159.525
 30
0.0
 40
0.3250000000000028
  0
CIRCLE
  5
1DD
330
1F
100
AcDbEntity
  8
BLACK
  6
Continuous
 62
     7
100
AcDbCircle
 10
49.365
 20
-159.525
 30
0.0
 40
0.3250000000000028
  0
CIRCLE
  5
1DE
330
1F
100
AcDbEntity
  8
BLACK
  6
Continuous
 62
     7
100
AcDbCircle
 10
50.635
 20
-158.255
 30
0.0
 40
0.3250000000000028
  0
CIRCLE
  5
1DF
330
1F
100
AcDbEntity
  8
BLACK
  6
Continuous
 62
     7
100
AcDbCircle
 10
49.365
 20
-158.255
 30
0.0
 40
0.3250000000000028
  0
CIRCLE
  5
1E0
330
1F
100
AcDbEntity
  8
BLACK
  6
Continuous
 62
     7
100
AcDbCircle
 10
50.635
 20
-156.985
 30
0.0
 40
0.3250000000000028
  0
CIRCLE
  5
1E1
330
1F
100
AcDbEntity
  8
BLACK
  6
Continuous
 62
     7
100
AcDbCircle
 10
49.365
 20
-156.985
 30
0.0
 40
0.3250000000000028
  0
CIRCLE
  5
1E2
330
1F
100
AcDbEntity
  8
BLACK
  6
Continuous
 62
     7
100
AcDbCircle
 10
50.635
 20
-155.715
 30
0.0
 40
0.3250000000000028
  0
CIRCLE
  5
1E3
330
1F
100
AcDbEntity
  8
BLACK
  6
Continuous
 62
     7
100
AcDbCircle
 10
49.365
 20
-155.715
 30
0.0
 40
0.3250000000000028
  0
CIRCLE
  5
1E4
330
1F
100
AcDbEntity
  8
BLACK
  6
Continuous
 62
     7
100
AcDbCircle
 10
50.635
 20
-154.445
 30
0.0
 40
0.3250000000000028
  0
CIRCLE
  5
1E5
330
1F
100
AcDbEntity
  8
BLACK
  6
Continuous
 62
     7
100
AcDbCircle
 10
49.365
 20
-154.445
 30
0.0
 40
0.3250000000000028
  0
CIRCLE
  5
1E6
330
1F
100
AcDbEntity
  8
BLACK
  6
Continuous
 62
     7
100
AcDbCircle
 10
50.635
 20
-153.175
 30
0.0
 40
0.3250000000000028
  0
CIRCLE
  5
1E7
330
1F
100
AcDbEntity
  8
BLACK
  6
Continuous
 62
     7
100
AcDbCircle
 10
49.365
 20
-153.175
 30
0.0
 40
0.3250000000000028
  0
CIRCLE
  5
1E8
330
1F
100
AcDbEntity
  8
BLACK
  6
Continuous
 62
     7
100
AcDbCircle
 10
50.635
 20
-151.905
 30
0.0
 40
0.3250000000000028
  0
CIRCLE
  5
1E9
330
1F
100
AcDbEntity
  8
BLACK
  6
Continuous
 62
     7
100
AcDbCircle
 10
49.365
 20
-151.905
 30
0.0
 40
0.3250000000000028
  0
CIRCLE
  5
1EA
330
1F
100
AcDbEntity
  8
BLACK
  6
Continuous
 62
     7
100
AcDbCircle
 10
50.635
 20
-150.635
 30
0.0
 40
0.3250000000000028
  0
CIRCLE
  5
1EB
330
1F
100
AcDbEntity
  8
BLACK
  6
Continuous
 62
     7
100
AcDbCircle
 10
49.365
 20
-150.635
 30
0.0
 40
0.3250000000000028
  0
CIRCLE
  5
1EC
330
1F
100
AcDbEntity
  8
BLACK
  6
Continuous
 62
     7
100
AcDbCircle
 10
50.635
 20
-149.365
 30
0.0
 40
0.3250000000000028
  0
CIRCLE
  5
1ED
330
1F
100
AcDbEntity
  8
BLACK
  6
Continuous
 62
     7
100
AcDbCircle
 10
49.365
 20
-149.365
 30
0.0
 40
0.3250000000000028
  0
CIRCLE
  5
1EE
330
1F
100
AcDbEntity
  8
BLACK
  6
Continuous
 62
     7
100
AcDbCircle
 10
50.635
 20
-148.095
 30
0.0
 40
0.3250000000000028
  0
CIRCLE
  5
1EF
330
1F
100
AcDbEntity
  8
BLACK
  6
Continuous
 62
     7
100
AcDbCircle
 10
49.365
 20
-148.095
 30
0.0
 40
0.3250000000000028
  0
CIRCLE
  5
1F0
330
1F
100
AcDbEntity
  8
BLACK
  6
Continuous
 62
     7
100
AcDbCircle
 10
50.635
 20
-146.825
 30
0.0
 40
0.3250000000000028
  0
CIRCLE
  5
1F1
330
1F
100
AcDbEntity
  8
BLACK
  6
Continuous
 62
     7
100
AcDbCircle
 10
49.365
 20
-146.825
 30
0.0
 40
0.3250000000000028
  0
CIRCLE
  5
1F2
330
1F
100
AcDbEntity
  8
BLACK
  6
Continuous
 62
     7
100
AcDbCircle
 10
50.635
 20
-145.555
 30
0.0
 40
0.3250000000000028
  0
CIRCLE
  5
1F3
330
1F
100
AcDbEntity
  8
BLACK
  6
Continuous
 62
     7
100
AcDbCircle
 10
49.365
 20
-145.555
 30
0.0
 40
0.3250000000000028
  0
CIRCLE
  5
1F4
330
1F
100
AcDbEntity
  8
BLACK
  6
Continuous
 62
     7
100
AcDbCircle
 10
50.635
 20
-144.285
 30
0.0
 40
0.3250000000000028
  0
CIRCLE
  5
1F5
330
1F
100
AcDbEntity
  8
BLACK
  6
Continuous
 62
     7
100
AcDbCircle
 10
50.635
 20
-143.015
 30
0.0
 40
0.3250000000000028
  0
CIRCLE
  5
1F6
330
1F
100
AcDbEntity
  8
BLACK
  6
Continuous
 62
     7
100
AcDbCircle
 10
49.365
 20
-144.285
 30
0.0
 40
0.3250000000000028
  0
CIRCLE
  5
1F7
330
1F
100
AcDbEntity
  8
BLACK
  6
Continuous
 62
     7
100
AcDbCircle
 10
49.365
 20
-143.015
 30
0.0
 40
0.3250000000000028
  0
CIRCLE
  5
1F8
330
1F
100
AcDbEntity
  8
BLACK
  6
Continuous
 62
     7
100
AcDbCircle
 10
50.635
 20
-141.745
 30
0.0
 40
0.3250000000000028
  0
CIRCLE
  5
1F9
330
1F
100
AcDbEntity
  8
BLACK
  6
Continuous
 62
     7
100
AcDbCircle
 10
49.365
 20
-141.745
 30
0.0
 40
0.3250000000000028
  0
CIRCLE
  5
1FA
330
1F
100
AcDbEntity
  8
BLACK
  6
Continuous
 62
     7
100
AcDbCircle
 10
50.635
 20
-140.475
 30
0.0
 40
0.3250000000000028
  0
CIRCLE
  5
1FB
330
1F
100
AcDbEntity
  8
BLACK
  6
Continuous
 62
     7
100
AcDbCircle
 10
49.365
 20
-140.475
 30
0.0
 40
0.3250000000000028
  0
CIRCLE
  5
1FC
330
1F
100
AcDbEntity
  8
BLACK
  6
Continuous
 62
     7
100
AcDbCircle
 10
50.635
 20
-139.205
 30
0.0
 40
0.3250000000000028
  0
CIRCLE
  5
1FD
330
1F
100
AcDbEntity
  8
BLACK
  6
Continuous
 62
     7
100
AcDbCircle
 10
49.365
 20
-139.205
 30
0.0
 40
0.3250000000000028
  0
CIRCLE
  5
1FE
330
1F
100
AcDbEntity
  8
BLACK
  6
Continuous
 62
     7
100
AcDbCircle
 10
50.635
 20
-137.935
 30
0.0
 40
0.3250000000000028
  0
CIRCLE
  5
1FF
330
1F
100
AcDbEntity
  8
BLACK
  6
Continuous
 62
     7
100
AcDbCircle
 10
49.365
 20
-137.935
 30
0.0
 40
0.3250000000000028
  0
DIMENSION
  5
212
330
1F
100
AcDbEntity
  8
Default
  6
Continuous
 62
     7
100
AcDbDimension
280
     0
  2
DMBLK1
 10
44.92
 20
-120.4131797612
 30
0.0
 11
50.0000000317
 21
-120.4131797612
 31
0.0
 70
   161
  1
\A1;<>
 71
     5
 42
-1.0
 73
     0
 74
     0
 75
     0
  3
JIS_(mm)
100
AcDbAlignedDimension
 13
44.92
 23
-124.6
 33
0.0
 14
55.08
 24
-124.6
 34
0.0
  0
DIMENSION
  5
21C
330
1F
100
AcDbEntity
  8
Default
  6
Continuous
 62
     7
100
AcDbDimension
280
     0
  2
DMBLK2
 10
39.5644714442
 20
-175.4
 30
0.0
 11
39.5644714442
 21
-150.000000307
 31
0.0
 70
   161
  1
\A1;<>
 71
     5
 42
-1.0
 73
     0
 74
     0
 75
     0
  3
JIS_(mm)
100
AcDbAlignedDimension
 13
44.92
 23
-175.4
 33
0.0
 14
44.92
 24
-124.6
 34
0.0
  0
DIMENSION
  5
226
330
1F
100
AcDbEntity
  8
Default
  6
Continuous
 62
     7
100
AcDbDimension
280
     0
  2
DMBLK3
 10
42.6539841108
 20
-127.5
 30
0.0
 11
42.6539841108
 21
-150.0000008941
 31
0.0
 70
   161
  1
\A1;<>
 71
     5
 42
-1.0
 73
     0
 74
     0
 75
     0
  3
JIS_(mm)
100
AcDbAlignedDimension
 13
50.0
 23
-127.5
 33
0.0
 14
50.0
 24
-172.5
 34
0.0
  0
DIMENSION
  5
230
330
1F
100
AcDbEntity
  8
Default
  6
Continuous
 62
     7
100
AcDbDimension
280
     0
  2
DMBLK4
 10
46.19
 20
-123.6521847424
 30
0.0
 11
49.9999999074
 21
-123.6521847424
 31
0.0
 70
   161
  1
\A1;<>
 71
     5
 42
-1.0
 73
     0
 74
     0
 75
     0
  3
JIS_(mm)
100
AcDbAlignedDimension
 13
46.19
 23
-125.87
 33
0.0
 14
53.81
 24
-125.87
 34
0.0
  0
DIMENSION
  5
23A
330
1F
100
AcDbEntity
  8
Default
  6
Continuous
 62
     7
100
AcDbDimension
280
     0
  2
DMBLK5
 10
48.46432199
 20
-127.0508975065
 30
0.0
 11
54.5635563361
 21
-128.834592614
 31
0.0
 70
   163
  1
\A1;<> x2
 71
     5
 42
-1.0
 73
     0
 74
     0
 75
     0
  3
JIS_(mm)
100
AcDbDiametricDimension
 15
51.53567801
 25
-127.9491024935
 35
0.0
 40
0.0
1001
ACAD
1000
DSTYLE
1002
{
1070
   279
1070
     1
1070
   283
1070
     1
1070
     0
1002
}
  0
ENDSEC
  0
SECTION
  2
OBJECTS
  0
DICTIONARY
  5
C
330
0
100
AcDbDictionary
281
     1
  3
ACAD_DETAILVIEWSTYLE
350
24D
  3
ACAD_GROUP
350
D
  3
ACAD_LAYOUT
350
1A
  3
ACAD_MATERIAL
350
43
  3
ACAD_MLEADERSTYLE
350
6B
  3
ACAD_MLINESTYLE
350
17
  3
ACAD_PLOTSETTINGS
350
19
  3
ACAD_PLOTSTYLENAME
350
E
  3
ACAD_SCALELIST
350
47
  3
ACAD_SECTIONVIEWSTYLE
350
24E
  3
ACAD_TABLESTYLE
350
69
  3
ACAD_VISUALSTYLE
350
2A
  3
ACDB_RECOMPOSE_DATA
350
24A
  3
AcDbVariableDictionary
350
246
  0
SUN
  5
6D
330
29
100
AcDbSun
 90
        1
290
     0
 63
     7
421
 16777215
 40
1.0
291
     1
 91
  2455826
 92
 54000000
292
     0
 70
     2
 71
   256
280
     1
  0
DICTIONARY
  5
24D
102
{ACAD_REACTORS
330
C
102
}
330
C
100
AcDbDictionary
281
     1
  0
DICTIONARY
  5
D
102
{ACAD_REACTORS
330
C
102
}
330
C
100
AcDbDictionary
281
     1
  0
DICTIONARY
  5
1A
102
{ACAD_REACTORS
330
C
102
}
330
C
100
AcDbDictionary
281
     1
  3
Layout1
350
1E
  3
Model
350
22
  0
DICTIONARY
  5
43
102
{ACAD_REACTORS
330
C
102
}
330
C
100
AcDbDictionary
281
     1
  3
ByBlock
350
45
  3
ByLayer
350
44
  3
Global
350
46
  0
DICTIONARY
  5
6B
102
{ACAD_REACTORS
330
C
102
}
330
C
100
AcDbDictionary
281
     1
  3
Standard
350
6C
  0
DICTIONARY
  5
17
102
{ACAD_REACTORS
330
C
102
}
330
C
100
AcDbDictionary
281
     1
  3
Standard
350
18
  0
DICTIONARY
  5
19
102
{ACAD_REACTORS
330
C
102
}
330
C
100
AcDbDictionary
281
     1
  0
ACDBDICTIONARYWDFLT
  5
E
102
{ACAD_REACTORS
330
C
102
}
330
C
100
AcDbDictionary
281
     1
  3
Normal
350
F
100
AcDbDictionaryWithDefault
340
F
  0
DICTIONARY
  5
47
102
{ACAD_REACTORS
330
C
102
}
330
C
100
AcDbDictionary
281
     1
  3
A0
350
48
  3
A1
350
49
  3
A2
350
4A
  3
A3
350
4B
  3
A4
350
4C
  3
A5
350
4D
  3
A6
350
4E
  3
A7
350
4F
  3
A8
350
50
  3
A9
350
51
  3
B0
350
52
  3
B1
350
53
  3
B2
350
54
  3
B3
350
55
  3
B4
350
56
  3
B5
350
57
  3
B6
350
58
  3
B7
350
59
  3
B8
350
5A
  3
B9
350
5B
  3
C0
350
5C
  3
C1
350
5D
  3
C2
350
5E
  3
C3
350
5F
  3
C4
350
60
  3
C5
350
61
  3
C6
350
62
  3
C7
350
63
  3
C8
350
64
  3
C9
350
65
  3
D0
350
66
  3
D1
350
67
  3
D2
350
68
  0
DICTIONARY
  5
24E
102
{ACAD_REACTORS
330
C
102
}
330
C
100
AcDbDictionary
281
     1
  0
DICTIONARY
  5
69
102
{ACAD_REACTORS
330
C
102
}
330
C
100
AcDbDictionary
281
     1
  3
Standard
350
6A
  0
DICTIONARY
  5
2A
102
{ACAD_REACTORS
330
C
102
}
330
C
100
AcDbDictionary
281
     1
  3
2dWireframe
350
2F
  3
Basic
350
32
  3
Brighten
350
36
  3
ColorChange
350
3A
  3
Conceptual
350
34
  3
Dim
350
35
  3
EdgeColorOff
350
3D
  3
Facepattern
350
39
  3
Flat
350
2B
  3
FlatWithEdges
350
2C
  3
Gouraud
350
2D
  3
GouraudWithEdges
350
2E
  3
Hidden
350
31
  3
JitterOff
350
3B
  3
Linepattern
350
38
  3
OverhangOff
350
3C
  3
Realistic
350
33
  3
Shaded
350
42
  3
Shaded with edges
350
41
  3
Shades of Gray
350
3E
  3
Sketchy
350
3F
  3
Thicken
350
37
  3
Wireframe
350
30
  3
X-Ray
350
40
  0
XRECORD
  5
24A
102
{ACAD_REACTORS
330
C
102
}
330
C
100
AcDbXrecord
280
     1
 90
        1
330
6A
  0
DICTIONARY
  5
246
102
{ACAD_REACTORS
330
C
102
}
330
C
100
AcDbDictionary
281
     1
  3
CANNOSCALE
350
247
  3
CENTEREXE
350
24F
  3
CENTERLTYPEFILE
350
250
  3
CMLEADERSTYLE
350
24C
  3
CTABLESTYLE
350
24B
  0
LAYOUT
  5
1E
102
{ACAD_REACTORS
330
1A
102
}
330
1A
100
AcDbPlotSettings
  1

  2
none_device
  4

  6

 40
0.0
 41
0.0
 42
0.0
 43
0.0
 44
0.0
 45
0.0
 46
0.0
 47
0.0
 48
0.0
 49
0.0
140
0.0
141
0.0
142
1.0
143
1.0
 70
   688
 72
     1
 73
     0
 74
     5
  7

 75
    16
 76
     0
 77
     2
 78
   300
147
1.0
148
0.0
149
0.0
100
AcDbLayout
  1
Layout1
 70
     1
 71
     1
 10
0.0
 20
0.0
 11
594.0
 21
420.0
 12
0.0
 22
0.0
 32
0.0
 14
0.0
 24
0.0
 34
0.0
 15
594.0
 25
420.0
 35
0.0
146
0.0
 13
0.0
 23
0.0
 33
0.0
 16
1.0
 26
0.0
 36
0.0
 17
0.0
 27
1.0
 37
0.0
 76
     0
330
1B
  0
LAYOUT
  5
22
102
{ACAD_REACTORS
330
1A
102
}
330
1A
100
AcDbPlotSettings
  1

  2
none_device
  4
Letter_(8.50_x_11.00_Inches)
  6

 40
6.35
 41
6.35
 42
6.35000508
 43
6.35000508
 44
215.9
 45
279.4
 46
0.0
 47
0.0
 48
0.0
 49
0.0
140
0.0
141
0.0
142
1.0
143
1.0
 70
  1712
 72
     1
 73
     0
 74
     0
  7

 75
     0
 76
     0
 77
     2
 78
   300
147
1.0
148
0.0
149
0.0
100
AcDbLayout
  1
Model
 70
     1
 71
     0
 10
0.0
 20
0.0
 11
594.0
 21
420.0
 12
0.0
 22
0.0
 32
0.0
 14
0.0
 24
0.0
 34
0.0
 15
594.0
 25
420.0
 35
0.0
146
0.0
 13
0.0
 23
0.0
 33
0.0
 16
1.0
 26
0.0
 36
0.0
 17
0.0
 27
1.0
 37
0.0
 76
     0
330
1F
331
29
  0
MATERIAL
  5
45
102
{ACAD_REACTORS
330
43
102
}
330
43
100
AcDbMaterial
  1
ByBlock
 72
     1
 94
      127
  0
MATERIAL
  5
44
102
{ACAD_REACTORS
330
43
102
}
330
43
100
AcDbMaterial
  1
ByLayer
 72
     1
 94
      127
  0
MATERIAL
  5
46
102
{ACAD_REACTORS
330
43
102
}
330
43
100
AcDbMaterial
  1
Global
 72
     1
 94
      127
  0
MLEADERSTYLE
  5
6C
102
{ACAD_REACTORS
330
6B
102
}
330
6B
100
AcDbMLeaderStyle
179
     2
170
     2
171
     1
172
     0
 90
        2
 40
0.0
 41
0.0
173
     1
 91
-1056964608
340
14
 92
       -2
290
     1
 42
2.0
291
     1
 43
8.0
  3
Standard
341
0
 44
4.0
300

342
11
174
     1
178
     6
175
     1
176
     0
 93
-1056964608
 45
4.0
292
     0
297
     0
 46
4.0
343
0
 94
-1056964608
 47
1.0
 49
1.0
140
1.0
293
     1
141
0.0
294
     1
177
     0
142
1.0
295
     0
296
     0
143
3.75
271
     0
272
     9
273
     9
298
     0
  0
MLINESTYLE
  5
18
102
{ACAD_REACTORS
330
17
102
}
330
17
100
AcDbMlineStyle
  2
Standard
 70
     0
  3

 62
   256
 51
90.0
 52
90.0
 71
     2
 49
0.5
 62
   256
  6
BYLAYER
 49
-0.5
 62
   256
  6
BYLAYER
  0
ACDBPLACEHOLDER
  5
F
102
{ACAD_REACTORS
330
E
102
}
330
E
  0
SCALE
  5
48
102
{ACAD_REACTORS
330
47
102
}
330
47
100
AcDbScale
 70
     0
300
1:1
140
1.0
141
1.0
290
     1
  0
SCALE
  5
49
102
{ACAD_REACTORS
330
47
102
}
330
47
100
AcDbScale
 70
     0
300
1:2
140
1.0
141
2.0
290
     0
  0
SCALE
  5
4A
102
{ACAD_REACTORS
330
47
102
}
330
47
100
AcDbScale
 70
     0
300
1:4
140
1.0
141
4.0
290
     0
  0
SCALE
  5
4B
102
{ACAD_REACTORS
330
47
102
}
330
47
100
AcDbScale
 70
     0
300
1:5
140
1.0
141
5.0
290
     0
  0
SCALE
  5
4C
102
{ACAD_REACTORS
330
47
102
}
330
47
100
AcDbScale
 70
     0
300
1:8
140
1.0
141
8.0
290
     0
  0
SCALE
  5
4D
102
{ACAD_REACTORS
330
47
102
}
330
47
100
AcDbScale
 70
     0
300
1:10
140
1.0
141
10.0
290
     0
  0
SCALE
  5
4E
102
{ACAD_REACTORS
330
47
102
}
330
47
100
AcDbScale
 70
     0
300
1:16
140
1.0
141
16.0
290
     0
  0
SCALE
  5
4F
102
{ACAD_REACTORS
330
47
102
}
330
47
100
AcDbScale
 70
     0
300
1:20
140
1.0
141
20.0
290
     0
  0
SCALE
  5
50
102
{ACAD_REACTORS
330
47
102
}
330
47
100
AcDbScale
 70
     0
300
1:30
140
1.0
141
30.0
290
     0
  0
SCALE
  5
51
102
{ACAD_REACTORS
330
47
102
}
330
47
100
AcDbScale
 70
     0
300
1:40
140
1.0
141
40.0
290
     0
  0
SCALE
  5
52
102
{ACAD_REACTORS
330
47
102
}
330
47
100
AcDbScale
 70
     0
300
1:50
140
1.0
141
50.0
290
     0
  0
SCALE
  5
53
102
{ACAD_REACTORS
330
47
102
}
330
47
100
AcDbScale
 70
     0
300
1:100
140
1.0
141
100.0
290
     0
  0
SCALE
  5
54
102
{ACAD_REACTORS
330
47
102
}
330
47
100
AcDbScale
 70
     0
300
2:1
140
2.0
141
1.0
290
     0
  0
SCALE
  5
55
102
{ACAD_REACTORS
330
47
102
}
330
47
100
AcDbScale
 70
     0
300
4:1
140
4.0
141
1.0
290
     0
  0
SCALE
  5
56
102
{ACAD_REACTORS
330
47
102
}
330
47
100
AcDbScale
 70
     0
300
8:1
140
8.0
141
1.0
290
     0
  0
SCALE
  5
57
102
{ACAD_REACTORS
330
47
102
}
330
47
100
AcDbScale
 70
     0
300
10:1
140
10.0
141
1.0
290
     0
  0
SCALE
  5
58
102
{ACAD_REACTORS
330
47
102
}
330
47
100
AcDbScale
 70
     0
300
100:1
140
100.0
141
1.0
290
     0
  0
SCALE
  5
59
102
{ACAD_REACTORS
330
47
102
}
330
47
100
AcDbScale
 70
     0
300
1/128" = 1'-0"
140
0.0078125
141
12.0
290
     0
  0
SCALE
  5
5A
102
{ACAD_REACTORS
330
47
102
}
330
47
100
AcDbScale
 70
     0
300
1/64" = 1'-0"
140
0.015625
141
12.0
290
     0
  0
SCALE
  5
5B
102
{ACAD_REACTORS
330
47
102
}
330
47
100
AcDbScale
 70
     0
300
1/32" = 1'-0"
140
0.03125
141
12.0
290
     0
  0
SCALE
  5
5C
102
{ACAD_REACTORS
330
47
102
}
330
47
100
AcDbScale
 70
     0
300
1/16" = 1'-0"
140
0.0625
141
12.0
290
     0
  0
SCALE
  5
5D
102
{ACAD_REACTORS
330
47
102
}
330
47
100
AcDbScale
 70
     0
300
3/32" = 1'-0"
140
0.09375
141
12.0
290
     0
  0
SCALE
  5
5E
102
{ACAD_REACTORS
330
47
102
}
330
47
100
AcDbScale
 70
     0
300
1/8" = 1'-0"
140
0.125
141
12.0
290
     0
  0
SCALE
  5
5F
102
{ACAD_REACTORS
330
47
102
}
330
47
100
AcDbScale
 70
     0
300
3/16" = 1'-0"
140
0.1875
141
12.0
290
     0
  0
SCALE
  5
60
102
{ACAD_REACTORS
330
47
102
}
330
47
100
AcDbScale
 70
     0
300
1/4" = 1'-0"
140
0.25
141
12.0
290
     0
  0
SCALE
  5
61
102
{ACAD_REACTORS
330
47
102
}
330
47
100
AcDbScale
 70
     0
300
3/8" = 1'-0"
140
0.375
141
12.0
290
     0
  0
SCALE
  5
62
102
{ACAD_REACTORS
330
47
102
}
330
47
100
AcDbScale
 70
     0
300
1/2" = 1'-0"
140
0.5
141
12.0
290
     0
  0
SCALE
  5
63
102
{ACAD_REACTORS
330
47
102
}
330
47
100
AcDbScale
 70
     0
300
3/4" = 1'-0"
140
0.75
141
12.0
290
     0
  0
SCALE
  5
64
102
{ACAD_REACTORS
330
47
102
}
330
47
100
AcDbScale
 70
     0
300
1" = 1'-0"
140
1.0
141
12.0
290
     0
  0
SCALE
  5
65
102
{ACAD_REACTORS
330
47
102
}
330
47
100
AcDbScale
 70
     0
300
1-1/2" = 1'-0"
140
1.5
141
12.0
290
     0
  0
SCALE
  5
66
102
{ACAD_REACTORS
330
47
102
}
330
47
100
AcDbScale
 70
     0
300
3" = 1'-0"
140
3.0
141
12.0
290
     0
  0
SCALE
  5
67
102
{ACAD_REACTORS
330
47
102
}
330
47
100
AcDbScale
 70
     0
300
6" = 1'-0"
140
6.0
141
12.0
290
     0
  0
SCALE
  5
68
102
{ACAD_REACTORS
330
47
102
}
330
47
100
AcDbScale
 70
     0
300
1'-0" = 1'-0"
140
12.0
141
12.0
290
     0
  0
TABLESTYLE
  5
6A
102
{ACAD_REACTORS
330
69
102
}
102
{ACAD_XDICTIONARY
360
248
102
}
330
69
100
AcDbTableStyle
  3
Standard
 70
     0
 71
     0
 40
0.06
 41
0.06
280
     0
281
     0
  7
Standard
140
4.5
170
     2
 62
     0
 63
   257
283
     0
 90
        4
 91
        0
  1

274
    -2
284
     1
 64
     0
275
    -2
285
     1
 65
     0
276
    -2
286
     1
 66
     0
277
    -2
287
     1
 67
     0
278
    -2
288
     1
 68
     0
279
    -2
289
     1
 69
     0
  7
Standard
140
6.0
170
     5
 62
     0
 63
   257
283
     0
 90
        4
 91
        0
  1

274
    -2
284
     1
 64
     0
275
    -2
285
     1
 65
     0
276
    -2
286
     1
 66
     0
277
    -2
287
     1
 67
     0
278
    -2
288
     1
 68
     0
279
    -2
289
     1
 69
     0
  7
Standard
140
4.5
170
     5
 62
     0
 63
   257
283
     0
 90
        4
 91
        0
  1

274
    -2
284
     1
 64
     0
275
    -2
285
     1
 65
     0
276
    -2
286
     1
 66
     0
277
    -2
287
     1
 67
     0
278
    -2
288
     1
 68
     0
279
    -2
289
     1
 69
     0
  0
VISUALSTYLE
  5
2F
102
{ACAD_REACTORS
330
2A
102
}
330
2A
100
AcDbVisualStyle
  2
2dWireframe
 70
     4
177
     3
291
     0
 70
    58
 90
        0
176
     1
 90
        2
176
     1
 90
        0
176
     1
 90
        0
176
     1
 40
0.6
176
     1
 40
30.0
176
     1
 62
     7
420
 16777215
176
     1
 90
        1
176
     1
 90
        4
176
     1
 62
     7
176
     1
 62
   257
176
     1
 90
        1
176
     1
 90
        1
176
     1
 40
1.0
176
     1
 90
        0
176
     1
 62
   257
176
     1
 40
1.0
176
     1
 90
        1
176
     1
 90
        6
176
     1
 90
        2
176
     1
 62
     7
176
     1
 90
        5
176
     1
 90
        0
176
     1
 90
        0
176
     1
290
     0
176
     1
 90
        1
176
     1
 40
0.0
176
     1
 90
        0
176
     1
290
     1
176
     1
290
     1
176
     1
290
     0
176
     1
290
     0
176
     1
290
     0
176
     1
290
     0
176
     1
290
     0
176
     1
290
     0
176
     1
290
     0
176
     1
 90
       50
176
     1
 40
0.0
176
     1
 40
1.0
176
     1
 90
        0
176
     1
 62
    18
420
        0
176
     1
 90
       50
176
     1
 90
        3
176
     1
 62
     5
420
      255
176
     1
290
     0
176
     1
 90
       50
176
     1
 90
       50
176
     1
 90
       50
176
     1
290
     0
176
     1
 90
       50
176
     1
 62
   256
176
     0
 40
1.0
176
     0
 90
        2
176
     1
  1
strokes_ogs.tif
176
     1
290
     0
176
     1
 40
1.0
176
     1
 40
1.0
176
     1
  0
VISUALSTYLE
  5
32
102
{ACAD_REACTORS
330
2A
102
}
330
2A
100
AcDbVisualStyle
  2
Basic
 70
     7
177
     3
291
     1
 70
    58
 90
        1
176
     1
 90
        0
176
     1
 90
        1
176
     1
 90
        0
176
     1
 40
0.6
176
     1
 40
30.0
176
     1
 62
     7
420
 16777215
176
     1
 90
        0
176
     1
 90
        4
176
     1
 62
     7
176
     1
 62
   257
176
     1
 90
        1
176
     1
 90
        1
176
     1
 40
1.0
176
     1
 90
        8
176
     1
 62
     7
176
     1
 40
1.0
176
     1
 90
        1
176
     1
 90
        6
176
     1
 90
        2
176
     1
 62
     7
176
     1
 90
        5
176
     1
 90
        0
176
     1
 90
        0
176
     1
290
     0
176
     1
 90
        1
176
     1
 40
0.0
176
     1
 90
        0
176
     1
290
     0
176
     1
290
     1
176
     1
290
     1
176
     1
290
     0
176
     1
290
     0
176
     1
290
     0
176
     1
290
     0
176
     1
290
     0
176
     1
290
     0
176
     1
 90
       50
176
     1
 40
0.0
176
     1
 40
1.0
176
     1
 90
        0
176
     1
 62
    18
420
        0
176
     1
 90
       50
176
     1
 90
        3
176
     1
 62
     5
420
      255
176
     1
290
     0
176
     1
 90
       50
176
     1
 90
       50
176
     1
 90
       50
176
     1
290
     0
176
     1
 90
       50
176
     1
 62
   256
176
     0
 40
1.0
176
     0
 90
        2
176
     1
  1
strokes_ogs.tif
176
     1
290
     0
176
     1
 40
1.0
176
     1
 40
1.0
176
     1
  0
VISUALSTYLE
  5
36
102
{ACAD_REACTORS
330
2A
102
}
330
2A
100
AcDbVisualStyle
  2
Brighten
 70
    12
177
     3
291
     1
 70
    58
 90
        2
176
     1
 90
        2
176
     1
 90
        0
176
     1
 90
        0
176
     1
 40
0.6
176
     1
 40
30.0
176
     1
 62
     7
420
 16777215
176
     1
 90
        1
176
     1
 90
        4
176
     1
 62
     7
176
     1
 62
   257
176
     1
 90
        1
176
     1
 90
        1
176
     1
 40
1.0
176
     1
 90
        8
176
     1
 62
     7
176
     1
 40
1.0
176
     1
 90
        1
176
     1
 90
        6
176
     1
 90
        2
176
     1
 62
     7
176
     1
 90
        5
176
     1
 90
        0
176
     1
 90
        0
176
     1
290
     0
176
     1
 90
        1
176
     1
 40
50.0
176
     1
 90
        0
176
     1
290
     0
176
     1
290
     1
176
     1
290
     1
176
     1
290
     0
176
     1
290
     0
176
     1
290
     0
176
     1
290
     0
176
     1
290
     0
176
     1
290
     0
176
     1
 90
       50
176
     1
 40
0.0
176
     1
 40
1.0
176
     1
 90
        0
176
     1
 62
    18
420
        0
176
     1
 90
       50
176
     1
 90
        3
176
     1
 62
     5
420
      255
176
     1
290
     0
176
     1
 90
       50
176
     1
 90
       50
176
     1
 90
       50
176
     1
290
     0
176
     1
 90
       50
176
     1
 62
   256
176
     0
 40
1.0
176
     0
 90
        2
176
     1
  1
strokes_ogs.tif
176
     1
290
     0
176
     1
 40
1.0
176
     1
 40
1.0
176
     1
  0
VISUALSTYLE
  5
3A
102
{ACAD_REACTORS
330
2A
102
}
330
2A
100
AcDbVisualStyle
  2
ColorChange
 70
    16
177
     3
291
     1
 70
    58
 90
        2
176
     1
 90
        2
176
     1
 90
        3
176
     1
 90
        0
176
     1
 40
0.6
176
     1
 40
30.0
176
     1
 62
     8
420
  8421504
176
     1
 90
        1
176
     1
 90
        4
176
     1
 62
     7
176
     1
 62
   257
176
     1
 90
        1
176
     1
 90
        1
176
     1
 40
1.0
176
     1
 90
        8
176
     1
 62
     8
420
  8421504
176
     1
 40
1.0
176
     1
 90
        1
176
     1
 90
        6
176
     1
 90
        2
176
     1
 62
     7
176
     1
 90
        5
176
     1
 90
        0
176
     1
 90
        0
176
     1
290
     0
176
     1
 90
        1
176
     1
 40
0.0
176
     1
 90
        0
176
     1
290
     0
176
     1
290
     1
176
     1
290
     1
176
     1
290
     0
176
     1
290
     0
176
     1
290
     0
176
     1
290
     0
176
     1
290
     0
176
     1
290
     0
176
     1
 90
       50
176
     1
 40
0.0
176
     1
 40
1.0
176
     1
 90
        0
176
     1
 62
    18
420
        0
176
     1
 90
       50
176
     1
 90
        3
176
     1
 62
     5
420
      255
176
     1
290
     0
176
     1
 90
       50
176
     1
 90
       50
176
     1
 90
       50
176
     1
290
     0
176
     1
 90
       50
176
     1
 62
   256
176
     0
 40
1.0
176
     0
 90
        2
176
     1
  1
strokes_ogs.tif
176
     1
290
     0
176
     1
 40
1.0
176
     1
 40
1.0
176
     1
  0
VISUALSTYLE
  5
34
102
{ACAD_REACTORS
330
2A
102
}
330
2A
100
AcDbVisualStyle
  2
Conceptual
 70
     9
177
     3
291
     0
 70
    58
 90
        3
176
     1
 90
        2
176
     1
 90
        0
176
     1
 90
        0
176
     1
 40
0.6
176
     1
 40
30.0
176
     1
 62
     7
420
 16777215
176
     1
 90
        2
176
     1
 90
        2
176
     1
 62
     7
176
     1
 62
   257
176
     1
 90
        1
176
     1
 90
        1
176
     1
 40
179.0
176
     1
 90
        8
176
     1
 62
     7
176
     1
 40
1.0
176
     1
 90
        1
176
     1
 90
        6
176
     1
 90
        2
176
     1
 62
     7
176
     1
 90
        3
176
     1
 90
        0
176
     1
 90
        0
176
     1
290
     0
176
     1
 90
        1
176
     1
 40
0.0
176
     1
 90
        0
176
     1
290
     0
176
     1
290
     1
176
     1
290
     1
176
     1
290
     0
176
     1
290
     0
176
     1
290
     0
176
     1
290
     0
176
     1
290
     0
176
     1
290
     0
176
     1
 90
       50
176
     1
 40
0.0
176
     1
 40
1.0
176
     1
 90
        0
176
     1
 62
    18
420
        0
176
     1
 90
       50
176
     1
 90
        3
176
     1
 62
     5
420
      255
176
     1
290
     0
176
     1
 90
       50
176
     1
 90
       50
176
     1
 90
       50
176
     1
290
     0
176
     1
 90
       50
176
     1
 62
   256
176
     0
 40
1.0
176
     0
 90
        2
176
     1
  1
strokes_ogs.tif
176
     1
290
     0
176
     1
 40
1.0
176
     1
 40
1.0
176
     1
  0
VISUALSTYLE
  5
35
102
{ACAD_REACTORS
330
2A
102
}
330
2A
100
AcDbVisualStyle
  2
Dim
 70
    11
177
     3
291
     1
 70
    58
 90
        2
176
     1
 90
        2
176
     1
 90
        0
176
     1
 90
        0
176
     1
 40
0.6
176
     1
 40
30.0
176
     1
 62
     7
420
 16777215
176
     1
 90
        1
176
     1
 90
        4
176
     1
 62
     7
176
     1
 62
   257
176
     1
 90
        1
176
     1
 90
        1
176
     1
 40
1.0
176
     1
 90
        8
176
     1
 62
     7
176
     1
 40
1.0
176
     1
 90
        1
176
     1
 90
        6
176
     1
 90
        2
176
     1
 62
     7
176
     1
 90
        5
176
     1
 90
        0
176
     1
 90
        0
176
     1
290
     0
176
     1
 90
        1
176
     1
 40
-50.0
176
     1
 90
        0
176
     1
290
     0
176
     1
290
     1
176
     1
290
     1
176
     1
290
     0
176
     1
290
     0
176
     1
290
     0
176
     1
290
     0
176
     1
290
     0
176
     1
290
     0
176
     1
 90
       50
176
     1
 40
0.0
176
     1
 40
1.0
176
     1
 90
        0
176
     1
 62
    18
420
        0
176
     1
 90
       50
176
     1
 90
        3
176
     1
 62
     5
420
      255
176
     1
290
     0
176
     1
 90
       50
176
     1
 90
       50
176
     1
 90
       50
176
     1
290
     0
176
     1
 90
       50
176
     1
 62
   256
176
     0
 40
1.0
176
     0
 90
        2
176
     1
  1
strokes_ogs.tif
176
     1
290
     0
176
     1
 40
1.0
176
     1
 40
1.0
176
     1
  0
VISUALSTYLE
  5
3D
102
{ACAD_REACTORS
330
2A
102
}
330
2A
100
AcDbVisualStyle
  2
EdgeColorOff
 70
    22
177
     3
291
     1
 70
    58
 90
        2
176
     0
 90
        2
176
     0
 90
        0
176
     0
 90
        0
176
     0
 40
0.6
176
     0
 40
30.0
176
     0
 62
     7
420
 16777215
176
     0
 90
        1
176
     0
 90
        4
176
     0
 62
     7
176
     0
 62
   257
176
     0
 90
        1
176
     0
 90
        1
176
     0
 40
1.0
176
     0
 90
        8
176
     2
 62
     7
176
     0
 40
1.0
176
     0
 90
        1
176
     0
 90
        6
176
     0
 90
        2
176
     0
 62
     7
176
     0
 90
        5
176
     0
 90
        0
176
     0
 90
        0
176
     0
290
     0
176
     0
 90
        1
176
     0
 40
0.0
176
     0
 90
        0
176
     0
290
     0
176
     0
290
     1
176
     0
290
     1
176
     0
290
     0
176
     0
290
     0
176
     0
290
     0
176
     0
290
     0
176
     0
290
     0
176
     0
290
     0
176
     0
 90
       50
176
     0
 40
0.0
176
     0
 40
1.0
176
     0
 90
        0
176
     0
 62
    18
420
        0
176
     0
 90
       50
176
     0
 90
        3
176
     0
 62
     5
420
      255
176
     0
290
     0
176
     0
 90
       50
176
     0
 90
       50
176
     0
 90
       50
176
     0
290
     0
176
     0
 90
       50
176
     0
 62
   256
176
     0
 40
1.0
176
     0
 90
        2
176
     0
  1
strokes_ogs.tif
176
     0
290
     0
176
     0
 40
1.0
176
     0
 40
1.0
176
     0
  0
VISUALSTYLE
  5
39
102
{ACAD_REACTORS
330
2A
102
}
330
2A
100
AcDbVisualStyle
  2
Facepattern
 70
    15
177
     3
291
     1
 70
    58
 90
        2
176
     1
 90
        2
176
     1
 90
        0
176
     1
 90
        0
176
     1
 40
0.6
176
     1
 40
30.0
176
     1
 62
     7
420
 16777215
176
     1
 90
        1
176
     1
 90
        4
176
     1
 62
     7
176
     1
 62
   257
176
     1
 90
        1
176
     1
 90
        1
176
     1
 40
1.0
176
     1
 90
        8
176
     1
 62
     7
176
     1
 40
1.0
176
     1
 90
        1
176
     1
 90
        6
176
     1
 90
        2
176
     1
 62
     7
176
     1
 90
        5
176
     1
 90
        0
176
     1
 90
        0
176
     1
290
     0
176
     1
 90
        1
176
     1
 40
0.0
176
     1
 90
        0
176
     1
290
     0
176
     1
290
     1
176
     1
290
     1
176
     1
290
     0
176
     1
290
     0
176
     1
290
     0
176
     1
290
     0
176
     1
290
     0
176
     1
290
     0
176
     1
 90
       50
176
     1
 40
0.0
176
     1
 40
1.0
176
     1
 90
        0
176
     1
 62
    18
420
        0
176
     1
 90
       50
176
     1
 90
        3
176
     1
 62
     5
420
      255
176
     1
290
     0
176
     1
 90
       50
176
     1
 90
       50
176
     1
 90
       50
176
     1
290
     0
176
     1
 90
       50
176
     1
 62
   256
176
     0
 40
1.0
176
     0
 90
        2
176
     1
  1
strokes_ogs.tif
176
     1
290
     0
176
     1
 40
1.0
176
     1
 40
1.0
176
     1
  0
VISUALSTYLE
  5
2B
102
{ACAD_REACTORS
330
2A
102
}
330
2A
100
AcDbVisualStyle
  2
Flat
 70
     0
177
     3
291
     1
 70
    58
 90
        2
176
     1
 90
        1
176
     1
 90
        1
176
     1
 90
        2
176
     1
 40
0.6
176
     1
 40
30.0
176
     1
 62
     7
420
 16777215
176
     1
 90
        0
176
     1
 90
        0
176
     1
 62
     7
176
     1
 62
   257
176
     1
 90
        1
176
     1
 90
        1
176
     1
 40
1.0
176
     1
 90
        8
176
     1
 62
     7
176
     1
 40
1.0
176
     1
 90
        1
176
     1
 90
        6
176
     1
 90
        2
176
     1
 62
     7
176
     1
 90
        5
176
     1
 90
        0
176
     1
 90
        0
176
     1
290
     0
176
     1
 90
       13
176
     1
 40
0.0
176
     1
 90
        0
176
     1
290
     0
176
     1
290
     1
176
     1
290
     1
176
     1
290
     0
176
     1
290
     0
176
     1
290
     0
176
     1
290
     0
176
     1
290
     0
176
     1
290
     0
176
     1
 90
       50
176
     1
 40
0.0
176
     1
 40
1.0
176
     1
 90
        0
176
     1
 62
    18
420
        0
176
     1
 90
       50
176
     1
 90
        3
176
     1
 62
     5
420
      255
176
     1
290
     0
176
     1
 90
       50
176
     1
 90
       50
176
     1
 90
       50
176
     1
290
     0
176
     1
 90
       50
176
     1
 62
   256
176
     0
 40
1.0
176
     0
 90
        2
176
     1
  1
strokes_ogs.tif
176
     1
290
     0
176
     1
 40
1.0
176
     1
 40
1.0
176
     1
  0
VISUALSTYLE
  5
2C
102
{ACAD_REACTORS
330
2A
102
}
330
2A
100
AcDbVisualStyle
  2
FlatWithEdges
 70
     1
177
     3
291
     1
 70
    58
 90
        2
176
     1
 90
        1
176
     1
 90
        1
176
     1
 90
        2
176
     1
 40
0.6
176
     1
 40
30.0
176
     1
 62
     7
420
 16777215
176
     1
 90
        1
176
     1
 90
        0
176
     1
 62
     7
176
     1
 62
   257
176
     1
 90
        1
176
     1
 90
        1
176
     1
 40
1.0
176
     1
 90
        0
176
     1
 62
   257
176
     1
 40
1.0
176
     1
 90
        1
176
     1
 90
        6
176
     1
 90
        2
176
     1
 62
     7
176
     1
 90
        5
176
     1
 90
        0
176
     1
 90
        0
176
     1
290
     0
176
     1
 90
       13
176
     1
 40
0.0
176
     1
 90
        0
176
     1
290
     0
176
     1
290
     1
176
     1
290
     1
176
     1
290
     0
176
     1
290
     0
176
     1
290
     0
176
     1
290
     0
176
     1
290
     0
176
     1
290
     0
176
     1
 90
       50
176
     1
 40
0.0
176
     1
 40
1.0
176
     1
 90
        0
176
     1
 62
    18
420
        0
176
     1
 90
       50
176
     1
 90
        3
176
     1
 62
     5
420
      255
176
     1
290
     0
176
     1
 90
       50
176
     1
 90
       50
176
     1
 90
       50
176
     1
290
     0
176
     1
 90
       50
176
     1
 62
   256
176
     0
 40
1.0
176
     0
 90
        2
176
     1
  1
strokes_ogs.tif
176
     1
290
     0
176
     1
 40
1.0
176
     1
 40
1.0
176
     1
  0
VISUALSTYLE
  5
2D
102
{ACAD_REACTORS
330
2A
102
}
330
2A
100
AcDbVisualStyle
  2
Gouraud
 70
     2
177
     3
291
     1
 70
    58
 90
        2
176
     1
 90
        2
176
     1
 90
        1
176
     1
 90
        2
176
     1
 40
0.6
176
     1
 40
30.0
176
     1
 62
     7
420
 16777215
176
     1
 90
        0
176
     1
 90
        0
176
     1
 62
     7
176
     1
 62
   257
176
     1
 90
        1
176
     1
 90
        1
176
     1
 40
1.0
176
     1
 90
        0
176
     1
 62
     7
176
     1
 40
1.0
176
     1
 90
        1
176
     1
 90
        6
176
     1
 90
        2
176
     1
 62
     7
176
     1
 90
        5
176
     1
 90
        0
176
     1
 90
        0
176
     1
290
     0
176
     1
 90
       13
176
     1
 40
0.0
176
     1
 90
        0
176
     1
290
     0
176
     1
290
     1
176
     1
290
     1
176
     1
290
     0
176
     1
290
     0
176
     1
290
     0
176
     1
290
     0
176
     1
290
     0
176
     1
290
     0
176
     1
 90
       50
176
     1
 40
0.0
176
     1
 40
1.0
176
     1
 90
        0
176
     1
 62
    18
420
        0
176
     1
 90
       50
176
     1
 90
        3
176
     1
 62
     5
420
      255
176
     1
290
     0
176
     1
 90
       50
176
     1
 90
       50
176
     1
 90
       50
176
     1
290
     0
176
     1
 90
       50
176
     1
 62
   256
176
     0
 40
1.0
176
     0
 90
        2
176
     1
  1
strokes_ogs.tif
176
     1
290
     0
176
     1
 40
1.0
176
     1
 40
1.0
176
     1
  0
VISUALSTYLE
  5
2E
102
{ACAD_REACTORS
330
2A
102
}
330
2A
100
AcDbVisualStyle
  2
GouraudWithEdges
 70
     3
177
     3
291
     1
 70
    58
 90
        2
176
     1
 90
        2
176
     1
 90
        1
176
     1
 90
        2
176
     1
 40
0.6
176
     1
 40
30.0
176
     1
 62
     7
420
 16777215
176
     1
 90
        1
176
     1
 90
        0
176
     1
 62
     7
176
     1
 62
   257
176
     1
 90
        1
176
     1
 90
        1
176
     1
 40
1.0
176
     1
 90
        0
176
     1
 62
   257
176
     1
 40
1.0
176
     1
 90
        1
176
     1
 90
        6
176
     1
 90
        2
176
     1
 62
     7
176
     1
 90
        5
176
     1
 90
        0
176
     1
 90
        0
176
     1
290
     0
176
     1
 90
       13
176
     1
 40
0.0
176
     1
 90
        0
176
     1
290
     0
176
     1
290
     1
176
     1
290
     1
176
     1
290
     0
176
     1
290
     0
176
     1
290
     0
176
     1
290
     0
176
     1
290
     0
176
     1
290
     0
176
     1
 90
       50
176
     1
 40
0.0
176
     1
 40
1.0
176
     1
 90
        0
176
     1
 62
    18
420
        0
176
     1
 90
       50
176
     1
 90
        3
176
     1
 62
     5
420
      255
176
     1
290
     0
176
     1
 90
       50
176
     1
 90
       50
176
     1
 90
       50
176
     1
290
     0
176
     1
 90
       50
176
     1
 62
   256
176
     0
 40
1.0
176
     0
 90
        2
176
     1
  1
strokes_ogs.tif
176
     1
290
     0
176
     1
 40
1.0
176
     1
 40
1.0
176
     1
  0
VISUALSTYLE
  5
31
102
{ACAD_REACTORS
330
2A
102
}
330
2A
100
AcDbVisualStyle
  2
Hidden
 70
     6
177
     3
291
     0
 70
    58
 90
        1
176
     1
 90
        2
176
     1
 90
        2
176
     1
 90
        0
176
     1
 40
0.6
176
     1
 40
30.0
176
     1
 62
     7
420
 16777215
176
     1
 90
        2
176
     1
 90
        2
176
     1
 62
     7
176
     1
 62
   257
176
     1
 90
        2
176
     1
 90
        1
176
     1
 40
40.0
176
     1
 90
        0
176
     1
 62
   257
176
     1
 40
1.0
176
     1
 90
        1
176
     1
 90
        6
176
     1
 90
        2
176
     1
 62
     7
176
     1
 90
        3
176
     1
 90
        0
176
     1
 90
        0
176
     1
290
     0
176
     1
 90
        1
176
     1
 40
0.0
176
     1
 90
        0
176
     1
290
     0
176
     1
290
     1
176
     1
290
     1
176
     1
290
     0
176
     1
290
     0
176
     1
290
     0
176
     1
290
     0
176
     1
290
     0
176
     1
290
     0
176
     1
 90
       50
176
     1
 40
0.0
176
     1
 40
1.0
176
     1
 90
        0
176
     1
 62
    18
420
        0
176
     1
 90
       50
176
     1
 90
        3
176
     1
 62
     5
420
      255
176
     1
290
     0
176
     1
 90
       50
176
     1
 90
       50
176
     1
 90
       50
176
     1
290
     0
176
     1
 90
       50
176
     1
 62
   256
176
     0
 40
1.0
176
     0
 90
        2
176
     1
  1
strokes_ogs.tif
176
     1
290
     0
176
     1
 40
1.0
176
     1
 40
1.0
176
     1
  0
VISUALSTYLE
  5
3B
102
{ACAD_REACTORS
330
2A
102
}
330
2A
100
AcDbVisualStyle
  2
JitterOff
 70
    20
177
     3
291
     1
 70
    58
 90
        2
176
     0
 90
        2
176
     0
 90
        0
176
     0
 90
        0
176
     0
 40
0.6
176
     0
 40
30.0
176
     0
 62
     7
420
 16777215
176
     0
 90
        1
176
     0
 90
        4
176
     0
 62
     7
176
     0
 62
   257
176
     0
 90
        1
176
     0
 90
        1
176
     0
 40
1.0
176
     0
 90
       10
176
     2
 62
     7
176
     0
 40
1.0
176
     0
 90
        1
176
     0
 90
        6
176
     0
 90
        2
176
     0
 62
     7
176
     0
 90
        5
176
     0
 90
        0
176
     0
 90
        0
176
     0
290
     0
176
     0
 90
        1
176
     0
 40
0.0
176
     0
 90
        0
176
     0
290
     0
176
     0
290
     1
176
     0
290
     1
176
     0
290
     0
176
     0
290
     0
176
     0
290
     0
176
     0
290
     0
176
     0
290
     0
176
     0
290
     0
176
     0
 90
       50
176
     0
 40
0.0
176
     0
 40
1.0
176
     0
 90
        0
176
     0
 62
    18
420
        0
176
     0
 90
       50
176
     0
 90
        3
176
     0
 62
     5
420
      255
176
     0
290
     0
176
     0
 90
       50
176
     0
 90
       50
176
     0
 90
       50
176
     0
290
     0
176
     0
 90
       50
176
     0
 62
   256
176
     0
 40
1.0
176
     0
 90
        2
176
     0
  1
strokes_ogs.tif
176
     0
290
     0
176
     0
 40
1.0
176
     0
 40
1.0
176
     0
  0
VISUALSTYLE
  5
38
102
{ACAD_REACTORS
330
2A
102
}
330
2A
100
AcDbVisualStyle
  2
Linepattern
 70
    14
177
     3
291
     1
 70
    58
 90
        2
176
     1
 90
        2
176
     1
 90
        0
176
     1
 90
        0
176
     1
 40
0.6
176
     1
 40
30.0
176
     1
 62
     7
420
 16777215
176
     1
 90
        1
176
     1
 90
        4
176
     1
 62
     7
176
     1
 62
   257
176
     1
 90
        7
176
     1
 90
        7
176
     1
 40
1.0
176
     1
 90
        8
176
     1
 62
     7
176
     1
 40
1.0
176
     1
 90
        1
176
     1
 90
        6
176
     1
 90
        2
176
     1
 62
     7
176
     1
 90
        5
176
     1
 90
        0
176
     1
 90
        0
176
     1
290
     0
176
     1
 90
        1
176
     1
 40
0.0
176
     1
 90
        0
176
     1
290
     0
176
     1
290
     1
176
     1
290
     1
176
     1
290
     0
176
     1
290
     0
176
     1
290
     0
176
     1
290
     0
176
     1
290
     0
176
     1
290
     0
176
     1
 90
       50
176
     1
 40
0.0
176
     1
 40
1.0
176
     1
 90
        0
176
     1
 62
    18
420
        0
176
     1
 90
       50
176
     1
 90
        3
176
     1
 62
     5
420
      255
176
     1
290
     0
176
     1
 90
       50
176
     1
 90
       50
176
     1
 90
       50
176
     1
290
     0
176
     1
 90
       50
176
     1
 62
   256
176
     0
 40
1.0
176
     0
 90
        2
176
     1
  1
strokes_ogs.tif
176
     1
290
     0
176
     1
 40
1.0
176
     1
 40
1.0
176
     1
  0
VISUALSTYLE
  5
3C
102
{ACAD_REACTORS
330
2A
102
}
330
2A
100
AcDbVisualStyle
  2
OverhangOff
 70
    21
177
     3
291
     1
 70
    58
 90
        2
176
     0
 90
        2
176
     0
 90
        0
176
     0
 90
        0
176
     0
 40
0.6
176
     0
 40
30.0
176
     0
 62
     7
420
 16777215
176
     0
 90
        1
176
     0
 90
        4
176
     0
 62
     7
176
     0
 62
   257
176
     0
 90
        1
176
     0
 90
        1
176
     0
 40
1.0
176
     0
 90
        9
176
     2
 62
     7
176
     0
 40
1.0
176
     0
 90
        1
176
     0
 90
        6
176
     0
 90
        2
176
     0
 62
     7
176
     0
 90
        5
176
     0
 90
        0
176
     0
 90
        0
176
     0
290
     0
176
     0
 90
        1
176
     0
 40
0.0
176
     0
 90
        0
176
     0
290
     0
176
     0
290
     1
176
     0
290
     1
176
     0
290
     0
176
     0
290
     0
176
     0
290
     0
176
     0
290
     0
176
     0
290
     0
176
     0
290
     0
176
     0
 90
       50
176
     0
 40
0.0
176
     0
 40
1.0
176
     0
 90
        0
176
     0
 62
    18
420
        0
176
     0
 90
       50
176
     0
 90
        3
176
     0
 62
     5
420
      255
176
     0
290
     0
176
     0
 90
       50
176
     0
 90
       50
176
     0
 90
       50
176
     0
290
     0
176
     0
 90
       50
176
     0
 62
   256
176
     0
 40
1.0
176
     0
 90
        2
176
     0
  1
strokes_ogs.tif
176
     0
290
     0
176
     0
 40
1.0
176
     0
 40
1.0
176
     0
  0
VISUALSTYLE
  5
33
102
{ACAD_REACTORS
330
2A
102
}
330
2A
100
AcDbVisualStyle
  2
Realistic
 70
     8
177
     3
291
     0
 70
    58
 90
        2
176
     1
 90
        3
176
     1
 90
        0
176
     1
 90
        2
176
     1
 40
0.6
176
     1
 40
30.0
176
     1
 62
     7
420
 16777215
176
     1
 90
        0
176
     1
 90
        0
176
     1
 62
     7
176
     1
 62
   257
176
     1
 90
        1
176
     1
 90
        1
176
     1
 40
1.0
176
     1
 90
        8
176
     1
 62
   257
176
     1
 40
1.0
176
     1
 90
        1
176
     1
 90
        6
176
     1
 90
        2
176
     1
 62
     7
176
     1
 90
        3
176
     1
 90
        0
176
     1
 90
        0
176
     1
290
     0
176
     1
 90
       13
176
     1
 40
0.0
176
     1
 90
        0
176
     1
290
     0
176
     1
290
     1
176
     1
290
     1
176
     1
290
     0
176
     1
290
     0
176
     1
290
     0
176
     1
290
     0
176
     1
290
     0
176
     1
290
     0
176
     1
 90
       50
176
     1
 40
0.0
176
     1
 40
1.0
176
     1
 90
        0
176
     1
 62
    18
420
        0
176
     1
 90
       50
176
     1
 90
        3
176
     1
 62
     5
420
      255
176
     1
290
     0
176
     1
 90
       50
176
     1
 90
       50
176
     1
 90
       50
176
     1
290
     0
176
     1
 90
       50
176
     1
 62
   256
176
     0
 40
1.0
176
     0
 90
        2
176
     1
  1
strokes_ogs.tif
176
     1
290
     0
176
     1
 40
1.0
176
     1
 40
1.0
176
     1
  0
VISUALSTYLE
  5
42
102
{ACAD_REACTORS
330
2A
102
}
330
2A
100
AcDbVisualStyle
  2
Shaded
 70
    27
177
     3
291
     0
 70
    58
 90
        2
176
     1
 90
        2
176
     1
 90
        1
176
     1
 90
        2
176
     1
 40
0.6
176
     1
 40
30.0
176
     1
 62
     7
420
 16777215
176
     1
 90
        0
176
     1
 90
        4
176
     1
 62
     7
176
     1
 62
   257
176
     1
 90
        1
176
     1
 90
        1
176
     1
 40
1.0
176
     1
 90
        8
176
     1
 62
   257
176
     1
 40
1.0
176
     1
 90
        1
176
     1
 90
        6
176
     1
 90
        2
176
     1
 62
     8
420
  7895160
176
     1
 90
        3
176
     1
 90
        0
176
     1
 90
        0
176
     1
290
     0
176
     1
 90
        5
176
     1
 40
0.0
176
     1
 90
        0
176
     1
290
     0
176
     1
290
     1
176
     1
290
     1
176
     1
290
     0
176
     1
290
     0
176
     1
290
     0
176
     1
290
     0
176
     1
290
     0
176
     1
290
     0
176
     1
 90
       50
176
     1
 40
0.0
176
     1
 40
1.0
176
     1
 90
        0
176
     1
 62
    18
420
        0
176
     1
 90
       50
176
     1
 90
        3
176
     1
 62
     5
420
      255
176
     1
290
     0
176
     1
 90
       50
176
     1
 90
       50
176
     1
 90
       50
176
     1
290
     0
176
     1
 90
       50
176
     1
 62
   256
176
     0
 40
1.0
176
     0
 90
        2
176
     1
  1
strokes_ogs.tif
176
     1
290
     0
176
     1
 40
1.0
176
     1
 40
1.0
176
     1
  0
VISUALSTYLE
  5
41
102
{ACAD_REACTORS
330
2A
102
}
330
2A
100
AcDbVisualStyle
  2
Shaded with edges
 70
    26
177
     3
291
     0
 70
    58
 90
        2
176
     1
 90
        2
176
     1
 90
        1
176
     1
 90
        2
176
     1
 40
0.6
176
     1
 40
30.0
176
     1
 62
     7
420
 16777215
176
     1
 90
        1
176
     1
 90
       10
176
     1
 62
     7
176
     1
 62
   257
176
     1
 90
        2
176
     1
 90
        1
176
     1
 40
1.0
176
     1
 90
        8
176
     1
 62
   257
176
     1
 40
1.0
176
     1
 90
        1
176
     1
 90
        6
176
     1
 90
        2
176
     1
 62
     7
176
     1
 90
        3
176
     1
 90
        0
176
     1
 90
        0
176
     1
290
     0
176
     1
 90
        5
176
     1
 40
0.0
176
     1
 90
        0
176
     1
290
     0
176
     1
290
     1
176
     1
290
     1
176
     1
290
     0
176
     1
290
     0
176
     1
290
     0
176
     1
290
     0
176
     1
290
     0
176
     1
290
     0
176
     1
 90
       50
176
     1
 40
0.0
176
     1
 40
1.0
176
     1
 90
        0
176
     1
 62
    18
420
        0
176
     1
 90
       50
176
     1
 90
        3
176
     1
 62
     5
420
      255
176
     1
290
     0
176
     1
 90
       50
176
     1
 90
       50
176
     1
 90
       50
176
     1
290
     0
176
     1
 90
       50
176
     1
 62
   256
176
     0
 40
1.0
176
     0
 90
        2
176
     1
  1
strokes_ogs.tif
176
     1
290
     0
176
     1
 40
1.0
176
     1
 40
1.0
176
     1
  0
VISUALSTYLE
  5
3E
102
{ACAD_REACTORS
330
2A
102
}
330
2A
100
AcDbVisualStyle
  2
Shades of Gray
 70
    23
177
     3
291
     0
 70
    58
 90
        2
176
     1
 90
        2
176
     1
 90
        3
176
     1
 90
        0
176
     1
 40
0.6
176
     1
 40
30.0
176
     1
 62
     7
420
 16777215
176
     1
 90
        2
176
     1
 90
        2
176
     1
 62
     7
176
     1
 62
     7
176
     1
 90
        1
176
     1
 90
        1
176
     1
 40
40.0
176
     1
 90
        8
176
     1
 62
     7
176
     1
 40
1.0
176
     1
 90
        1
176
     1
 90
        6
176
     1
 90
        2
176
     1
 62
     7
176
     1
 90
        3
176
     1
 90
        0
176
     1
 90
        0
176
     1
290
     0
176
     1
 90
        1
176
     1
 40
0.0
176
     1
 90
        0
176
     1
290
     0
176
     1
290
     1
176
     1
290
     1
176
     1
290
     0
176
     1
290
     0
176
     1
290
     0
176
     1
290
     0
176
     1
290
     0
176
     1
290
     0
176
     1
 90
       50
176
     1
 40
0.0
176
     1
 40
1.0
176
     1
 90
        0
176
     1
 62
    18
420
        0
176
     1
 90
       50
176
     1
 90
        3
176
     1
 62
     5
420
      255
176
     1
290
     0
176
     1
 90
       50
176
     1
 90
       50
176
     1
 90
       50
176
     1
290
     0
176
     1
 90
       50
176
     1
 62
   256
176
     0
 40
1.0
176
     0
 90
        2
176
     1
  1
strokes_ogs.tif
176
     1
290
     0
176
     1
 40
1.0
176
     1
 40
1.0
176
     1
  0
VISUALSTYLE
  5
3F
102
{ACAD_REACTORS
330
2A
102
}
330
2A
100
AcDbVisualStyle
  2
Sketchy
 70
    24
177
     3
291
     0
 70
    58
 90
        1
176
     1
 90
        2
176
     1
 90
        2
176
     1
 90
        0
176
     1
 40
0.6
176
     1
 40
30.0
176
     1
 62
     7
420
 16777215
176
     1
 90
        2
176
     1
 90
        2
176
     1
 62
     7
176
     1
 62
     7
176
     1
 90
        1
176
     1
 90
        1
176
     1
 40
40.0
176
     1
 90
       11
176
     1
 62
     7
176
     1
 40
1.0
176
     1
 90
        1
176
     1
 90
        6
176
     1
 90
        2
176
     1
 62
     7
176
     1
 90
        6
176
     1
 90
        0
176
     1
 90
        0
176
     1
290
     0
176
     1
 90
        1
176
     1
 40
0.0
176
     1
 90
        0
176
     1
290
     0
176
     1
290
     1
176
     1
290
     1
176
     1
290
     0
176
     1
290
     0
176
     1
290
     0
176
     1
290
     0
176
     1
290
     0
176
     1
290
     0
176
     1
 90
       50
176
     1
 40
0.0
176
     1
 40
1.0
176
     1
 90
        0
176
     1
 62
    18
420
        0
176
     1
 90
       50
176
     1
 90
        3
176
     1
 62
     5
420
      255
176
     1
290
     0
176
     1
 90
       50
176
     1
 90
       50
176
     1
 90
       50
176
     1
290
     0
176
     1
 90
       50
176
     1
 62
   256
176
     0
 40
1.0
176
     0
 90
        2
176
     1
  1
strokes_ogs.tif
176
     1
290
     0
176
     1
 40
1.0
176
     1
 40
1.0
176
     1
  0
VISUALSTYLE
  5
37
102
{ACAD_REACTORS
330
2A
102
}
330
2A
100
AcDbVisualStyle
  2
Thicken
 70
    13
177
     3
291
     1
 70
    58
 90
        2
176
     1
 90
        2
176
     1
 90
        0
176
     1
 90
        0
176
     1
 40
0.6
176
     1
 40
30.0
176
     1
 62
     7
420
 16777215
176
     1
 90
        1
176
     1
 90
        4
176
     1
 62
     7
176
     1
 62
   257
176
     1
 90
        1
176
     1
 90
        1
176
     1
 40
1.0
176
     1
 90
       12
176
     1
 62
     7
176
     1
 40
1.0
176
     1
 90
        1
176
     1
 90
        6
176
     1
 90
        2
176
     1
 62
     7
176
     1
 90
        5
176
     1
 90
        0
176
     1
 90
        0
176
     1
290
     0
176
     1
 90
        1
176
     1
 40
0.0
176
     1
 90
        0
176
     1
290
     0
176
     1
290
     1
176
     1
290
     1
176
     1
290
     0
176
     1
290
     0
176
     1
290
     0
176
     1
290
     0
176
     1
290
     0
176
     1
290
     0
176
     1
 90
       50
176
     1
 40
0.0
176
     1
 40
1.0
176
     1
 90
        0
176
     1
 62
    18
420
        0
176
     1
 90
       50
176
     1
 90
        3
176
     1
 62
     5
420
      255
176
     1
290
     0
176
     1
 90
       50
176
     1
 90
       50
176
     1
 90
       50
176
     1
290
     0
176
     1
 90
       50
176
     1
 62
   256
176
     0
 40
1.0
176
     0
 90
        2
176
     1
  1
strokes_ogs.tif
176
     1
290
     0
176
     1
 40
1.0
176
     1
 40
1.0
176
     1
  0
VISUALSTYLE
  5
30
102
{ACAD_REACTORS
330
2A
102
}
330
2A
100
AcDbVisualStyle
  2
Wireframe
 70
     5
177
     3
291
     0
 70
    58
 90
        0
176
     1
 90
        2
176
     1
 90
        0
176
     1
 90
        0
176
     1
 40
0.6
176
     1
 40
30.0
176
     1
 62
     7
420
 16777215
176
     1
 90
        1
176
     1
 90
        4
176
     1
 62
     7
176
     1
 62
   257
176
     1
 90
        1
176
     1
 90
        1
176
     1
 40
1.0
176
     1
 90
        0
176
     1
 62
   257
176
     1
 40
1.0
176
     1
 90
        1
176
     1
 90
        6
176
     1
 90
        2
176
     1
 62
     7
176
     1
 90
        3
176
     1
 90
        0
176
     1
 90
        0
176
     1
290
     0
176
     1
 90
        1
176
     1
 40
0.0
176
     1
 90
        0
176
     1
290
     0
176
     1
290
     1
176
     1
290
     1
176
     1
290
     0
176
     1
290
     0
176
     1
290
     0
176
     1
290
     0
176
     1
290
     0
176
     1
290
     0
176
     1
 90
       50
176
     1
 40
0.0
176
     1
 40
1.0
176
     1
 90
        0
176
     1
 62
    18
420
        0
176
     1
 90
       50
176
     1
 90
        3
176
     1
 62
     5
420
      255
176
     1
290
     0
176
     1
 90
       50
176
     1
 90
       50
176
     1
 90
       50
176
     1
290
     0
176
     1
 90
       50
176
     1
 62
   256
176
     0
 40
1.0
176
     0
 90
        2
176
     1
  1
strokes_ogs.tif
176
     1
290
     0
176
     1
 40
1.0
176
     1
 40
1.0
176
     1
  0
VISUALSTYLE
  5
40
102
{ACAD_REACTORS
330
2A
102
}
330
2A
100
AcDbVisualStyle
  2
X-Ray
 70
    25
177
     3
291
     0
 70
    58
 90
        2
176
     1
 90
        2
176
     1
 90
        1
176
     1
 90
        1
176
     1
 40
0.5
176
     1
 40
30.0
176
     1
 62
     7
420
 16777215
176
     1
 90
        1
176
     1
 90
        0
176
     1
 62
     7
176
     1
 62
   257
176
     1
 90
        1
176
     1
 90
        1
176
     1
 40
1.0
176
     1
 90
        8
176
     1
 62
     7
176
     1
 40
1.0
176
     1
 90
        1
176
     1
 90
        6
176
     1
 90
        2
176
     1
 62
     7
176
     1
 90
        3
176
     1
 90
        0
176
     1
 90
        0
176
     1
290
     0
176
     1
 90
       13
176
     1
 40
0.0
176
     1
 90
        0
176
     1
290
     0
176
     1
290
     1
176
     1
290
     1
176
     1
290
     0
176
     1
290
     0
176
     1
290
     0
176
     1
290
     0
176
     1
290
     0
176
     1
290
     0
176
     1
 90
       50
176
     1
 40
0.0
176
     1
 40
1.0
176
     1
 90
        0
176
     1
 62
    18
420
        0
176
     1
 90
       50
176
     1
 90
        3
176
     1
 62
     5
420
      255
176
     1
290
     0
176
     1
 90
       50
176
     1
 90
       50
176
     1
 90
       50
176
     1
290
     0
176
     1
 90
       50
176
     1
 62
   256
176
     0
 40
1.0
176
     0
 90
        2
176
     1
  1
strokes_ogs.tif
176
     1
290
     0
176
     1
 40
1.0
176
     1
 40
1.0
176
     1
  0
DICTIONARYVAR
  5
247
102
{ACAD_REACTORS
330
246
102
}
330
246
100
DictionaryVariables
280
     0
  1
1:1
  0
DICTIONARYVAR
  5
24F
102
{ACAD_REACTORS
330
246
102
}
330
246
100
DictionaryVariables
280
     0
  1
3.500000
  0
DICTIONARYVAR
  5
250
102
{ACAD_REACTORS
330
246
102
}
330
246
100
DictionaryVariables
280
     0
  1
acadiso.lin
  0
DICTIONARYVAR
  5
24C
102
{ACAD_REACTORS
330
246
102
}
330
246
100
DictionaryVariables
280
     0
  1
Standard
  0
DICTIONARYVAR
  5
24B
102
{ACAD_REACTORS
330
246
102
}
330
246
100
DictionaryVariables
280
     0
  1
Standard
  0
DICTIONARY
  5
248
330
6A
100
AcDbDictionary
280
     1
281
     1
  3
ACAD_ROUNDTRIP_2008_TABLESTYLE_CELLSTYLEMAP
360
249
  0
CELLSTYLEMAP
  5
249
102
{ACAD_REACTORS
330
248
102
}
330
248
100
AcDbCellStyleMap
 90
        3
300
CELLSTYLE
  1
TABLEFORMAT_BEGIN
 90
        5
170
     1
 91
        0
 92
    32768
 62
   257
 93
        1
300
CONTENTFORMAT
  1
CONTENTFORMAT_BEGIN
 90
        0
 91
        0
 92
        4
 93
        0
300

 40
0.0
140
1.0
 94
        5
 62
     0
340
11
144
6.0
309
CONTENTFORMAT_END
171
     1
301
MARGIN
  1
CELLMARGIN_BEGIN
 40
1.5
 40
1.5
 40
1.5
 40
1.5
 40
1.5
 40
1.5
309
CELLMARGIN_END
 94
        6
 95
        1
302
GRIDFORMAT
  1
GRIDFORMAT_BEGIN
 90
        0
 91
        1
 62
     0
 92
       -2
340
14
 93
        0
 40
0.045
309
GRIDFORMAT_END
 95
        2
302
GRIDFORMAT
  1
GRIDFORMAT_BEGIN
 90
        0
 91
        1
 62
     0
 92
       -2
340
14
 93
        0
 40
0.045
309
GRIDFORMAT_END
 95
        4
302
GRIDFORMAT
  1
GRIDFORMAT_BEGIN
 90
        0
 91
        1
 62
     0
 92
       -2
340
14
 93
        0
 40
0.045
309
GRIDFORMAT_END
 95
        8
302
GRIDFORMAT
  1
GRIDFORMAT_BEGIN
 90
        0
 91
        1
 62
     0
 92
       -2
340
14
 93
        0
 40
0.045
309
GRIDFORMAT_END
 95
       16
302
GRIDFORMAT
  1
GRIDFORMAT_BEGIN
 90
        0
 91
        1
 62
     0
 92
       -2
340
14
 93
        0
 40
0.045
309
GRIDFORMAT_END
 95
       32
302
GRIDFORMAT
  1
GRIDFORMAT_BEGIN
 90
        0
 91
        1
 62
     0
 92
       -2
340
14
 93
        0
 40
0.045
309
GRIDFORMAT_END
309
TABLEFORMAT_END
  1
CELLSTYLE_BEGIN
 90
        1
 91
        1
300
_TITLE
309
CELLSTYLE_END
300
CELLSTYLE
  1
TABLEFORMAT_BEGIN
 90
        5
170
     1
 91
        0
 92
        0
 62
   257
 93
        1
300
CONTENTFORMAT
  1
CONTENTFORMAT_BEGIN
 90
        0
 91
        0
 92
        4
 93
        0
300

 40
0.0
140
1.0
 94
        5
 62
     0
340
11
144
4.5
309
CONTENTFORMAT_END
171
     1
301
MARGIN
  1
CELLMARGIN_BEGIN
 40
1.5
 40
1.5
 40
1.5
 40
1.5
 40
1.5
 40
1.5
309
CELLMARGIN_END
 94
        6
 95
        1
302
GRIDFORMAT
  1
GRIDFORMAT_BEGIN
 90
        0
 91
        1
 62
     0
 92
       -2
340
14
 93
        0
 40
0.045
309
GRIDFORMAT_END
 95
        2
302
GRIDFORMAT
  1
GRIDFORMAT_BEGIN
 90
        0
 91
        1
 62
     0
 92
       -2
340
14
 93
        0
 40
0.045
309
GRIDFORMAT_END
 95
        4
302
GRIDFORMAT
  1
GRIDFORMAT_BEGIN
 90
        0
 91
        1
 62
     0
 92
       -2
340
14
 93
        0
 40
0.045
309
GRIDFORMAT_END
 95
        8
302
GRIDFORMAT
  1
GRIDFORMAT_BEGIN
 90
        0
 91
        1
 62
     0
 92
       -2
340
14
 93
        0
 40
0.045
309
GRIDFORMAT_END
 95
       16
302
GRIDFORMAT
  1
GRIDFORMAT_BEGIN
 90
        0
 91
        1
 62
     0
 92
       -2
340
14
 93
        0
 40
0.045
309
GRIDFORMAT_END
 95
       32
302
GRIDFORMAT
  1
GRIDFORMAT_BEGIN
 90
        0
 91
        1
 62
     0
 92
       -2
340
14
 93
        0
 40
0.045
309
GRIDFORMAT_END
309
TABLEFORMAT_END
  1
CELLSTYLE_BEGIN
 90
        2
 91
        1
300
_HEADER
309
CELLSTYLE_END
300
CELLSTYLE
  1
TABLEFORMAT_BEGIN
 90
        5
170
     1
 91
        0
 92
        0
 62
   257
 93
        1
300
CONTENTFORMAT
  1
CONTENTFORMAT_BEGIN
 90
        0
 91
        0
 92
        4
 93
        0
300

 40
0.0
140
1.0
 94
        2
 62
     0
340
11
144
4.5
309
CONTENTFORMAT_END
171
     1
301
MARGIN
  1
CELLMARGIN_BEGIN
 40
1.5
 40
1.5
 40
1.5
 40
1.5
 40
1.5
 40
1.5
309
CELLMARGIN_END
 94
        6
 95
        1
302
GRIDFORMAT
  1
GRIDFORMAT_BEGIN
 90
        0
 91
        1
 62
     0
 92
       -2
340
14
 93
        0
 40
0.045
309
GRIDFORMAT_END
 95
        2
302
GRIDFORMAT
  1
GRIDFORMAT_BEGIN
 90
        0
 91
        1
 62
     0
 92
       -2
340
14
 93
        0
 40
0.045
309
GRIDFORMAT_END
 95
        4
302
GRIDFORMAT
  1
GRIDFORMAT_BEGIN
 90
        0
 91
        1
 62
     0
 92
       -2
340
14
 93
        0
 40
0.045
309
GRIDFORMAT_END
 95
        8
302
GRIDFORMAT
  1
GRIDFORMAT_BEGIN
 90
        0
 91
        1
 62
     0
 92
       -2
340
14
 93
        0
 40
0.045
309
GRIDFORMAT_END
 95
       16
302
GRIDFORMAT
  1
GRIDFORMAT_BEGIN
 90
        0
 91
        1
 62
     0
 92
       -2
340
14
 93
        0
 40
0.045
309
GRIDFORMAT_END
 95
       32
302
GRIDFORMAT
  1
GRIDFORMAT_BEGIN
 90
        0
 91
        1
 62
     0
 92
       -2
340
14
 93
        0
 40
0.045
309
GRIDFORMAT_END
309
TABLEFORMAT_END
  1
CELLSTYLE_BEGIN
 90
        3
 91
        2
300
_DATA
309
CELLSTYLE_END
  0
ENDSEC
  0
EOF
